<svg width="512" height="512" viewBox="0 0 512 512" fill="none" xmlns="http://www.w3.org/2000/svg">
<rect width="512" height="512" fill="#00309F"/>
<g clip-path="url(#clip0_474_1036)">
<path d="M83.6451 231.369L82.3236 202.295L151.611 130.364H179.175L121.593 191.533L107.999 206.448L83.6451 231.369ZM61.7451 262.52V130.364H86.2882V262.52H61.7451ZM153.876 262.52L103.28 202.295L119.516 184.359L182.573 262.52H153.876ZM225.9 262.52V130.364H250.443V262.52H225.9ZM312.619 262.52V130.364H332.82L390.591 226.838H380.018L436.845 130.364H457.046L457.234 262.52H434.013L433.824 166.801H438.733L390.402 247.416H379.452L330.366 166.801H336.029V262.52H312.619Z" fill="white"/>
<path d="M139.199 326.502L131.086 302.233H134.658L142.112 324.63H140.309L148.041 302.233H151.23L158.789 324.63H157.055L164.613 302.233H167.907L159.794 326.502H156.154L149.081 305.734H150.017L142.909 326.502H139.199ZM183.624 312.703H196.106V315.65H183.624V312.703ZM183.937 323.486H198.082V326.502H180.469V302.233H197.597V305.249H183.937V323.486ZM212.017 326.502V302.233H215.484V323.486H228.624V326.502H212.017ZM240.924 326.502V302.233H244.391V323.486H257.531V326.502H240.924ZM269.831 326.502V302.233H272.674L288.727 322.168H287.236V302.233H290.703V326.502H287.86L271.807 306.566H273.298V326.502H269.831ZM309.443 312.703H321.925V315.65H309.443V312.703ZM309.755 323.486H323.901V326.502H306.288V302.233H323.416V305.249H309.755V323.486ZM344.909 326.78C343.06 326.78 341.292 326.502 339.604 325.948C337.917 325.37 336.588 324.63 335.617 323.729L336.9 321.024C337.825 321.833 339.003 322.504 340.436 323.035C341.869 323.567 343.36 323.833 344.909 323.833C346.319 323.833 347.463 323.671 348.341 323.347C349.22 323.024 349.867 322.584 350.283 322.03C350.699 321.452 350.907 320.805 350.907 320.088C350.907 319.256 350.63 318.586 350.075 318.077C349.543 317.569 348.838 317.164 347.96 316.864C347.105 316.54 346.157 316.263 345.117 316.032C344.077 315.801 343.025 315.535 341.962 315.234C340.922 314.91 339.962 314.506 339.084 314.021C338.229 313.535 337.535 312.888 337.004 312.079C336.472 311.247 336.207 310.184 336.207 308.889C336.207 307.641 336.53 306.497 337.177 305.457C337.847 304.394 338.865 303.55 340.228 302.926C341.615 302.279 343.372 301.955 345.498 301.955C346.908 301.955 348.307 302.14 349.693 302.51C351.08 302.88 352.282 303.412 353.299 304.105L352.155 306.879C351.115 306.185 350.017 305.688 348.861 305.388C347.706 305.064 346.585 304.902 345.498 304.902C344.134 304.902 343.014 305.075 342.135 305.422C341.257 305.769 340.609 306.231 340.194 306.809C339.8 307.387 339.604 308.034 339.604 308.751C339.604 309.606 339.87 310.288 340.401 310.796C340.956 311.305 341.661 311.709 342.517 312.01C343.395 312.31 344.354 312.587 345.394 312.842C346.434 313.073 347.474 313.339 348.515 313.639C349.578 313.94 350.537 314.333 351.392 314.818C352.271 315.304 352.975 315.951 353.507 316.76C354.039 317.569 354.305 318.609 354.305 319.88C354.305 321.105 353.969 322.249 353.299 323.313C352.629 324.353 351.589 325.196 350.179 325.844C348.792 326.467 347.035 326.78 344.909 326.78ZM374.764 326.78C372.915 326.78 371.146 326.502 369.459 325.948C367.772 325.37 366.443 324.63 365.472 323.729L366.755 321.024C367.679 321.833 368.858 322.504 370.291 323.035C371.724 323.567 373.215 323.833 374.764 323.833C376.174 323.833 377.318 323.671 378.196 323.347C379.074 323.024 379.722 322.584 380.138 322.03C380.554 321.452 380.762 320.805 380.762 320.088C380.762 319.256 380.485 318.586 379.929 318.077C379.398 317.569 378.693 317.164 377.815 316.864C376.959 316.54 376.012 316.263 374.972 316.032C373.931 315.801 372.88 315.535 371.817 315.234C370.777 314.91 369.817 314.506 368.939 314.021C368.084 313.535 367.39 312.888 366.859 312.079C366.327 311.247 366.061 310.184 366.061 308.889C366.061 307.641 366.385 306.497 367.032 305.457C367.702 304.394 368.719 303.55 370.083 302.926C371.47 302.279 373.226 301.955 375.353 301.955C376.763 301.955 378.162 302.14 379.548 302.51C380.935 302.88 382.137 303.412 383.154 304.105L382.01 306.879C380.97 306.185 379.872 305.688 378.716 305.388C377.561 305.064 376.44 304.902 375.353 304.902C373.989 304.902 372.868 305.075 371.99 305.422C371.112 305.769 370.464 306.231 370.048 306.809C369.655 307.387 369.459 308.034 369.459 308.751C369.459 309.606 369.725 310.288 370.256 310.796C370.811 311.305 371.516 311.709 372.371 312.01C373.25 312.31 374.209 312.587 375.249 312.842C376.289 313.073 377.329 313.339 378.369 313.639C379.433 313.94 380.392 314.333 381.247 314.818C382.125 315.304 382.83 315.951 383.362 316.76C383.894 317.569 384.16 318.609 384.16 319.88C384.16 321.105 383.824 322.249 383.154 323.313C382.484 324.353 381.443 325.196 380.033 325.844C378.647 326.467 376.89 326.78 374.764 326.78Z" fill="white"/>
<path d="M55.998 346.497H459.892" stroke="white" stroke-width="1.99948"/>
<path d="M61.4419 386.487L54.8916 366.892H57.7748L63.7933 384.975H62.3376L68.58 366.892H71.1553L77.2577 384.975H75.8581L81.9605 366.892H84.6198L78.0695 386.487H75.1303L69.4198 369.719H70.1756L64.4371 386.487H61.4419ZM110.774 366.892H113.573V386.487H110.774V366.892ZM99.5211 386.487H96.7218V366.892H99.5211V386.487ZM111.026 377.753H99.2411V375.318H111.026V377.753ZM136.962 386.711C135.469 386.711 134.079 386.459 132.791 385.955C131.522 385.451 130.421 384.751 129.488 383.855C128.555 382.941 127.827 381.877 127.305 380.664C126.782 379.451 126.521 378.126 126.521 376.689C126.521 375.253 126.782 373.927 127.305 372.714C127.827 371.502 128.555 370.447 129.488 369.551C130.421 368.637 131.522 367.928 132.791 367.424C134.06 366.92 135.45 366.668 136.962 366.668C138.455 366.668 139.826 366.92 141.077 367.424C142.346 367.909 143.447 368.609 144.38 369.523C145.332 370.419 146.06 371.474 146.564 372.686C147.086 373.899 147.347 375.234 147.347 376.689C147.347 378.145 147.086 379.479 146.564 380.692C146.06 381.905 145.332 382.969 144.38 383.883C143.447 384.779 142.346 385.479 141.077 385.983C139.826 386.468 138.455 386.711 136.962 386.711ZM136.962 384.219C138.044 384.219 139.043 384.033 139.957 383.66C140.89 383.286 141.693 382.764 142.365 382.092C143.055 381.401 143.587 380.599 143.96 379.685C144.352 378.77 144.548 377.772 144.548 376.689C144.548 375.607 144.352 374.609 143.96 373.694C143.587 372.78 143.055 371.987 142.365 371.315C141.693 370.624 140.89 370.092 139.957 369.719C139.043 369.346 138.044 369.159 136.962 369.159C135.861 369.159 134.844 369.346 133.911 369.719C132.996 370.092 132.194 370.624 131.503 371.315C130.813 371.987 130.272 372.78 129.88 373.694C129.506 374.609 129.32 375.607 129.32 376.689C129.32 377.772 129.506 378.77 129.88 379.685C130.272 380.599 130.813 381.401 131.503 382.092C132.194 382.764 132.996 383.286 133.911 383.66C134.844 384.033 135.861 384.219 136.962 384.219ZM160.304 386.487V366.892H163.103V384.051H173.712V386.487H160.304ZM185.602 386.487V366.892H188.401V386.487H185.602ZM208.656 386.711C207.163 386.711 205.735 386.487 204.373 386.039C203.01 385.572 201.937 384.975 201.154 384.247L202.189 382.064C202.936 382.717 203.888 383.258 205.045 383.688C206.201 384.117 207.405 384.331 208.656 384.331C209.794 384.331 210.718 384.201 211.427 383.939C212.136 383.678 212.659 383.324 212.994 382.876C213.33 382.409 213.498 381.887 213.498 381.308C213.498 380.636 213.274 380.095 212.827 379.685C212.397 379.274 211.828 378.948 211.119 378.705C210.428 378.444 209.663 378.22 208.824 378.033C207.984 377.846 207.135 377.632 206.276 377.389C205.436 377.128 204.662 376.801 203.953 376.409C203.262 376.018 202.702 375.495 202.273 374.842C201.844 374.17 201.629 373.311 201.629 372.267C201.629 371.259 201.891 370.335 202.413 369.495C202.954 368.637 203.776 367.956 204.877 367.452C205.996 366.929 207.415 366.668 209.131 366.668C210.27 366.668 211.399 366.817 212.519 367.116C213.638 367.415 214.609 367.844 215.43 368.404L214.506 370.643C213.666 370.083 212.78 369.682 211.847 369.439C210.914 369.178 210.008 369.047 209.131 369.047C208.031 369.047 207.125 369.187 206.416 369.467C205.707 369.747 205.185 370.12 204.849 370.587C204.531 371.054 204.373 371.576 204.373 372.155C204.373 372.845 204.587 373.395 205.017 373.806C205.464 374.217 206.033 374.543 206.724 374.786C207.433 375.029 208.208 375.253 209.047 375.458C209.887 375.644 210.727 375.859 211.567 376.101C212.425 376.344 213.2 376.661 213.89 377.053C214.599 377.445 215.169 377.968 215.598 378.621C216.027 379.274 216.242 380.114 216.242 381.14C216.242 382.129 215.971 383.053 215.43 383.911C214.889 384.751 214.049 385.432 212.91 385.955C211.791 386.459 210.372 386.711 208.656 386.711ZM232.626 386.487V369.327H225.908V366.892H242.116V369.327H235.398V386.487H232.626ZM253.843 386.487V366.892H256.642V386.487H253.843ZM279.948 386.711C278.455 386.711 277.074 386.468 275.805 385.983C274.554 385.479 273.463 384.779 272.53 383.883C271.615 382.969 270.897 381.905 270.374 380.692C269.852 379.479 269.59 378.145 269.59 376.689C269.59 375.234 269.852 373.899 270.374 372.686C270.897 371.474 271.625 370.419 272.558 369.523C273.491 368.609 274.582 367.909 275.833 367.424C277.102 366.92 278.483 366.668 279.976 366.668C281.487 366.668 282.878 366.929 284.147 367.452C285.434 367.956 286.526 368.711 287.422 369.719L285.602 371.483C284.856 370.699 284.016 370.12 283.083 369.747C282.15 369.355 281.151 369.159 280.088 369.159C278.987 369.159 277.96 369.346 277.008 369.719C276.075 370.092 275.264 370.615 274.573 371.287C273.882 371.959 273.341 372.761 272.949 373.694C272.576 374.609 272.39 375.607 272.39 376.689C272.39 377.772 272.576 378.78 272.949 379.713C273.341 380.627 273.882 381.42 274.573 382.092C275.264 382.764 276.075 383.286 277.008 383.66C277.96 384.033 278.987 384.219 280.088 384.219C281.151 384.219 282.15 384.033 283.083 383.66C284.016 383.268 284.856 382.671 285.602 381.868L287.422 383.632C286.526 384.639 285.434 385.404 284.147 385.927C282.878 386.45 281.478 386.711 279.948 386.711ZM316.288 386.487V366.892H319.087V386.487H316.288ZM333.632 386.487V366.892H335.927L348.888 382.988H347.684V366.892H350.483V386.487H348.188L335.227 370.391H336.431V386.487H333.632ZM385.952 386.487V378.985L386.596 380.72L378.17 366.892H381.165L388.247 378.565H386.624L393.734 366.892H396.505L388.107 380.72L388.723 378.985V386.487H385.952ZM416.021 386.711C414.528 386.711 413.138 386.459 411.85 385.955C410.581 385.451 409.48 384.751 408.547 383.855C407.614 382.941 406.886 381.877 406.364 380.664C405.841 379.451 405.58 378.126 405.58 376.689C405.58 375.253 405.841 373.927 406.364 372.714C406.886 371.502 407.614 370.447 408.547 369.551C409.48 368.637 410.581 367.928 411.85 367.424C413.119 366.92 414.509 366.668 416.021 366.668C417.514 366.668 418.886 366.92 420.136 367.424C421.405 367.909 422.506 368.609 423.439 369.523C424.391 370.419 425.119 371.474 425.623 372.686C426.145 373.899 426.406 375.234 426.406 376.689C426.406 378.145 426.145 379.479 425.623 380.692C425.119 381.905 424.391 382.969 423.439 383.883C422.506 384.779 421.405 385.479 420.136 385.983C418.886 386.468 417.514 386.711 416.021 386.711ZM416.021 384.219C417.104 384.219 418.102 384.033 419.016 383.66C419.95 383.286 420.752 382.764 421.424 382.092C422.114 381.401 422.646 380.599 423.019 379.685C423.411 378.77 423.607 377.772 423.607 376.689C423.607 375.607 423.411 374.609 423.019 373.694C422.646 372.78 422.114 371.987 421.424 371.315C420.752 370.624 419.95 370.092 419.016 369.719C418.102 369.346 417.104 369.159 416.021 369.159C414.92 369.159 413.903 369.346 412.97 369.719C412.056 370.092 411.253 370.624 410.563 371.315C409.872 371.987 409.331 372.78 408.939 373.694C408.566 374.609 408.379 375.607 408.379 376.689C408.379 377.772 408.566 378.77 408.939 379.685C409.331 380.599 409.872 381.401 410.563 382.092C411.253 382.764 412.056 383.286 412.97 383.66C413.903 384.033 414.92 384.219 416.021 384.219ZM447.48 386.711C444.905 386.711 442.88 385.974 441.406 384.499C439.932 383.025 439.195 380.869 439.195 378.033V366.892H441.994V377.921C441.994 380.104 442.47 381.7 443.422 382.708C444.392 383.715 445.754 384.219 447.508 384.219C449.282 384.219 450.644 383.715 451.595 382.708C452.567 381.7 453.051 380.104 453.051 377.921V366.892H455.766V378.033C455.766 380.869 455.03 383.025 453.555 384.499C452.099 385.974 450.075 386.711 447.48 386.711Z" fill="white"/>
</g>
<defs>
<clipPath id="clip0_474_1036">
<rect width="407.893" height="282" fill="white" transform="translate(52 115)"/>
</clipPath>
</defs>
</svg>
