<svg width="120" height="120" viewBox="0 0 120 120" fill="none" xmlns="http://www.w3.org/2000/svg">
<rect width="120" height="120" fill="#00309F"/>
<g clip-path="url(#clip0_471_1005)">
<path d="M17.7433 54.4726L17.4199 47.3588L34.3731 29.7588H41.1175L27.0283 44.7257L23.7023 48.375L17.7433 54.4726ZM12.3848 62.0947V29.7588H18.39V62.0947H12.3848ZM34.9275 62.0947L22.5475 47.3588L26.5202 42.9703L41.949 62.0947H34.9275ZM52.5502 62.0947V29.7588H58.5555V62.0947H52.5502ZM73.7688 62.0947V29.7588H78.7116L92.847 53.364H90.2601L104.165 29.7588H109.107L109.153 62.0947H103.472L103.425 38.6743H104.626L92.8008 58.3991H90.1215L78.1111 38.6743H79.4969V62.0947H73.7688Z" fill="white"/>
<path d="M31.3357 77.7504L29.3506 71.812H30.2245L32.0483 77.2922H31.6072L33.499 71.812H34.2794L36.1288 77.2922H35.7046L37.554 71.812H38.3599L36.3748 77.7504H35.4841L33.7535 72.6689H33.9825L32.2434 77.7504H31.3357ZM42.2056 74.374H45.2596V75.0951H42.2056V74.374ZM42.282 77.0123H45.7431V77.7504H41.4337V71.812H45.6243V72.5501H42.282V77.0123ZM49.1528 77.7504V71.812H50.0011V77.0123H53.2163V77.7504H49.1528ZM56.2257 77.7504V71.812H57.0741V77.0123H60.2892V77.7504H56.2257ZM63.2987 77.7504V71.812H63.9944L67.9221 76.6899H67.5574V71.812H68.4057V77.7504H67.71L63.7822 72.8724H64.147V77.7504H63.2987ZM72.9911 74.374H76.0451V75.0951H72.9911V74.374ZM73.0674 77.0123H76.5286V77.7504H72.2191V71.812H76.4098V72.5501H73.0674V77.0123ZM81.6688 77.8183C81.2164 77.8183 80.7838 77.7504 80.3709 77.6146C79.958 77.4733 79.6328 77.2922 79.3953 77.0717L79.7092 76.41C79.9354 76.6079 80.2238 76.772 80.5745 76.902C80.9252 77.0321 81.2899 77.0971 81.6688 77.0971C82.0138 77.0971 82.2937 77.0575 82.5087 76.9783C82.7236 76.8992 82.8819 76.7918 82.9838 76.656C83.0855 76.5147 83.1364 76.3562 83.1364 76.1809C83.1364 75.9774 83.0686 75.8133 82.9329 75.6889C82.8027 75.5645 82.6302 75.4655 82.4154 75.392C82.2061 75.3128 81.9742 75.245 81.7197 75.1884C81.4652 75.1319 81.2079 75.0668 80.9478 74.9932C80.6933 74.9141 80.4585 74.8152 80.2437 74.6964C80.0344 74.5776 79.8647 74.4193 79.7347 74.2213C79.6045 74.0177 79.5396 73.7575 79.5396 73.4408C79.5396 73.1354 79.6187 72.8555 79.777 72.601C79.941 72.3408 80.1899 72.1345 80.5236 71.9817C80.8629 71.8234 81.2928 71.7441 81.813 71.7441C82.158 71.7441 82.5002 71.7894 82.8395 71.88C83.1789 71.9704 83.4729 72.1005 83.7218 72.2702L83.4419 72.9488C83.1874 72.7792 82.9187 72.6575 82.6359 72.5841C82.3531 72.5048 82.0789 72.4653 81.813 72.4653C81.4794 72.4653 81.2051 72.5076 80.9901 72.5925C80.7753 72.6773 80.6168 72.7904 80.5151 72.9318C80.4189 73.0732 80.3709 73.2316 80.3709 73.4069C80.3709 73.6161 80.4359 73.783 80.566 73.9074C80.7017 74.0318 80.8742 74.1308 81.0835 74.2043C81.2984 74.2779 81.5331 74.3457 81.7876 74.4079C82.0421 74.4645 82.2966 74.5295 82.5511 74.603C82.8112 74.6766 83.046 74.7727 83.2552 74.8915C83.4702 75.0103 83.6426 75.1686 83.7727 75.3665C83.9027 75.5645 83.9678 75.819 83.9678 76.13C83.9678 76.4298 83.8858 76.7098 83.7218 76.9699C83.5577 77.2244 83.3032 77.4308 82.9583 77.5892C82.619 77.7418 82.1891 77.8183 81.6688 77.8183ZM88.9737 77.8183C88.5213 77.8183 88.0886 77.7504 87.6758 77.6146C87.263 77.4733 86.9377 77.2922 86.7002 77.0717L87.0141 76.41C87.2403 76.6079 87.5287 76.772 87.8794 76.902C88.23 77.0321 88.5948 77.0971 88.9737 77.0971C89.3187 77.0971 89.5987 77.0575 89.8135 76.9783C90.0285 76.8992 90.1868 76.7918 90.2887 76.656C90.3905 76.5147 90.4413 76.3562 90.4413 76.1809C90.4413 75.9774 90.3735 75.8133 90.2377 75.6889C90.1077 75.5645 89.9352 75.4655 89.7203 75.392C89.511 75.3128 89.2791 75.245 89.0246 75.1884C88.7701 75.1319 88.5128 75.0668 88.2527 74.9932C87.9982 74.9141 87.7635 74.8152 87.5485 74.6964C87.3393 74.5776 87.1696 74.4193 87.0395 74.2213C86.9095 74.0177 86.8444 73.7575 86.8444 73.4408C86.8444 73.1354 86.9236 72.8555 87.082 72.601C87.246 72.3408 87.4948 72.1345 87.8285 71.9817C88.1679 71.8234 88.5976 71.7441 89.118 71.7441C89.463 71.7441 89.8051 71.7894 90.1445 71.88C90.4838 71.9704 90.7778 72.1005 91.0267 72.2702L90.7467 72.9488C90.4922 72.7792 90.2236 72.6575 89.9409 72.5841C89.6581 72.5048 89.3838 72.4653 89.118 72.4653C88.7843 72.4653 88.5099 72.5076 88.2951 72.5925C88.0802 72.6773 87.9218 72.7904 87.82 72.9318C87.7238 73.0732 87.6758 73.2316 87.6758 73.4069C87.6758 73.6161 87.7409 73.783 87.8709 73.9074C88.0066 74.0318 88.1791 74.1308 88.3884 74.2043C88.6033 74.2779 88.838 74.3457 89.0925 74.4079C89.347 74.4645 89.6015 74.5295 89.856 74.603C90.1162 74.6766 90.3508 74.7727 90.5601 74.8915C90.775 75.0103 90.9475 75.1686 91.0776 75.3665C91.2077 75.5645 91.2727 75.819 91.2727 76.13C91.2727 76.4298 91.1907 76.7098 91.0267 76.9699C90.8627 77.2244 90.6082 77.4308 90.2632 77.5892C89.9238 77.7418 89.4941 77.8183 88.9737 77.8183Z" fill="white"/>
<path d="M10.9775 82.6426H109.803" stroke="white" stroke-width="0.489233"/>
<path d="M12.3098 92.4274L10.707 87.6329H11.4125L12.8851 92.0575H12.5289L14.0563 87.6329H14.6865L16.1796 92.0575H15.8371L17.3303 87.6329H17.981L16.3782 92.4274H15.659L14.2618 88.3247H14.4467L13.0426 92.4274H12.3098ZM24.3804 87.6329H25.0653V92.4274H24.3804V87.6329ZM21.627 92.4274H20.9421V87.6329H21.627V92.4274ZM24.4421 90.2904H21.5585V89.6945H24.4421V90.2904ZM30.7881 92.4822C30.4227 92.4822 30.0826 92.4206 29.7676 92.2973C29.457 92.174 29.1876 92.0028 28.9593 91.7836C28.731 91.5598 28.5529 91.2995 28.4251 91.0028C28.2972 90.706 28.2333 90.3817 28.2333 90.0302C28.2333 89.6786 28.2972 89.3543 28.4251 89.0576C28.5529 88.7608 28.731 88.5028 28.9593 88.2836C29.1876 88.0598 29.457 87.8863 29.7676 87.7631C30.078 87.6398 30.4182 87.5781 30.7881 87.5781C31.1534 87.5781 31.489 87.6398 31.7949 87.7631C32.1054 87.8817 32.3748 88.053 32.6032 88.2768C32.836 88.4959 33.0141 88.754 33.1374 89.0507C33.2652 89.3475 33.3292 89.674 33.3292 90.0302C33.3292 90.3863 33.2652 90.7128 33.1374 91.0096C33.0141 91.3064 32.836 91.5666 32.6032 91.7904C32.3748 92.0096 32.1054 92.1808 31.7949 92.3041C31.489 92.4228 31.1534 92.4822 30.7881 92.4822ZM30.7881 91.8726C31.0529 91.8726 31.2972 91.8269 31.521 91.7356C31.7492 91.6443 31.9456 91.5165 32.11 91.3521C32.2789 91.1831 32.409 90.9868 32.5004 90.763C32.5963 90.5393 32.6442 90.295 32.6442 90.0302C32.6442 89.7653 32.5963 89.5211 32.5004 89.2973C32.409 89.0735 32.2789 88.8795 32.11 88.7151C31.9456 88.5461 31.7492 88.416 31.521 88.3247C31.2972 88.2334 31.0529 88.1877 30.7881 88.1877C30.5186 88.1877 30.2698 88.2334 30.0415 88.3247C29.8178 88.416 29.6214 88.5461 29.4525 88.7151C29.2835 88.8795 29.1511 89.0735 29.0552 89.2973C28.9638 89.5211 28.9182 89.7653 28.9182 90.0302C28.9182 90.295 28.9638 90.5393 29.0552 90.763C29.1511 90.9868 29.2835 91.1831 29.4525 91.3521C29.6214 91.5165 29.8178 91.6443 30.0415 91.7356C30.2698 91.8269 30.5186 91.8726 30.7881 91.8726ZM36.4993 92.4274V87.6329H37.1842V91.8315H39.7801V92.4274H36.4993ZM42.6893 92.4274V87.6329H43.3742V92.4274H42.6893ZM48.3301 92.4822C47.9649 92.4822 47.6156 92.4274 47.2822 92.3178C46.9488 92.2036 46.6863 92.0575 46.4945 91.8795L46.748 91.3452C46.9306 91.505 47.1635 91.6375 47.4466 91.7425C47.7297 91.8475 48.0242 91.9 48.3301 91.9C48.6087 91.9 48.8347 91.868 49.0082 91.8041C49.1817 91.7402 49.3096 91.6534 49.3918 91.5439C49.474 91.4297 49.5151 91.3019 49.5151 91.1603C49.5151 90.9959 49.4603 90.8635 49.3507 90.763C49.2457 90.6625 49.1064 90.5827 48.9329 90.5233C48.7639 90.4594 48.5767 90.4046 48.3712 90.3589C48.1658 90.3132 47.958 90.2608 47.748 90.2014C47.5425 90.1375 47.3529 90.0576 47.1795 89.9617C47.0105 89.8658 46.8735 89.7379 46.7685 89.5781C46.6635 89.4137 46.611 89.2037 46.611 88.948C46.611 88.7014 46.6749 88.4754 46.8028 88.2699C46.9351 88.0598 47.1361 87.8932 47.4055 87.7699C47.6795 87.642 48.0265 87.5781 48.4466 87.5781C48.7251 87.5781 49.0014 87.6146 49.2753 87.6877C49.5493 87.7608 49.7868 87.8658 49.9877 88.0028L49.7616 88.5507C49.5562 88.4137 49.3392 88.3156 49.111 88.2562C48.8827 88.1923 48.6612 88.1603 48.4466 88.1603C48.1772 88.1603 47.9557 88.1946 47.7822 88.2631C47.6087 88.3315 47.4808 88.4228 47.3986 88.537C47.321 88.6512 47.2822 88.779 47.2822 88.9206C47.2822 89.0896 47.3347 89.2242 47.4397 89.3247C47.5493 89.4252 47.6886 89.505 47.8575 89.5644C48.031 89.6238 48.2206 89.6786 48.426 89.7288C48.6315 89.7745 48.837 89.8269 49.0425 89.8863C49.2525 89.9457 49.442 90.0233 49.611 90.1192C49.7844 90.2151 49.9238 90.343 50.0288 90.5028C50.1337 90.6625 50.1863 90.868 50.1863 91.1192C50.1863 91.3612 50.12 91.5872 49.9877 91.7973C49.8553 92.0028 49.6498 92.1694 49.3712 92.2973C49.0973 92.4206 48.7502 92.4822 48.3301 92.4822ZM54.1954 92.4274V88.2288H52.5515V87.6329H56.5173V88.2288H54.8734V92.4274H54.1954ZM59.3865 92.4274V87.6329H60.0714V92.4274H59.3865ZM65.7739 92.4822C65.4087 92.4822 65.0707 92.4228 64.7603 92.3041C64.4543 92.1808 64.1872 92.0096 63.9589 91.7904C63.7351 91.5666 63.5594 91.3064 63.4315 91.0096C63.3036 90.7128 63.2397 90.3863 63.2397 90.0302C63.2397 89.674 63.3036 89.3475 63.4315 89.0507C63.5594 88.754 63.7375 88.4959 63.9657 88.2768C64.194 88.053 64.4611 87.8817 64.7671 87.7631C65.0776 87.6398 65.4155 87.5781 65.7808 87.5781C66.1507 87.5781 66.4909 87.642 66.8013 87.7699C67.1164 87.8932 67.3835 88.0781 67.6027 88.3247L67.1575 88.7562C66.9748 88.5644 66.7693 88.4228 66.5411 88.3315C66.3128 88.2357 66.0685 88.1877 65.8082 88.1877C65.5388 88.1877 65.2876 88.2334 65.0548 88.3247C64.8265 88.416 64.6279 88.5439 64.4589 88.7083C64.2899 88.8726 64.1575 89.069 64.0616 89.2973C63.9703 89.5211 63.9246 89.7653 63.9246 90.0302C63.9246 90.295 63.9703 90.5416 64.0616 90.7699C64.1575 90.9937 64.2899 91.1877 64.4589 91.3521C64.6279 91.5165 64.8265 91.6443 65.0548 91.7356C65.2876 91.8269 65.5388 91.8726 65.8082 91.8726C66.0685 91.8726 66.3128 91.8269 66.5411 91.7356C66.7693 91.6397 66.9748 91.4937 67.1575 91.2973L67.6027 91.7288C67.3835 91.9754 67.1164 92.1625 66.8013 92.2904C66.4909 92.4183 66.1484 92.4822 65.7739 92.4822ZM74.6658 92.4274V87.6329H75.3507V92.4274H74.6658ZM78.9094 92.4274V87.6329H79.471L82.6422 91.5712H82.3477V87.6329H83.0326V92.4274H82.471L79.2998 88.4891H79.5943V92.4274H78.9094ZM91.7111 92.4274V90.5918L91.8687 91.0165L89.807 87.6329H90.5399L92.2728 90.4891H91.8755L93.6152 87.6329H94.2933L92.2385 91.0165L92.3892 90.5918V92.4274H91.7111ZM99.0685 92.4822C98.7033 92.4822 98.363 92.4206 98.048 92.2973C97.7375 92.174 97.4681 92.0028 97.2398 91.7836C97.0115 91.5598 96.8334 91.2995 96.7055 91.0028C96.5777 90.706 96.5137 90.3817 96.5137 90.0302C96.5137 89.6786 96.5777 89.3543 96.7055 89.0576C96.8334 88.7608 97.0115 88.5028 97.2398 88.2836C97.4681 88.0598 97.7375 87.8863 98.048 87.7631C98.3585 87.6398 98.6987 87.5781 99.0685 87.5781C99.4339 87.5781 99.7695 87.6398 100.075 87.7631C100.386 87.8817 100.655 88.053 100.884 88.2768C101.116 88.4959 101.295 88.754 101.418 89.0507C101.546 89.3475 101.61 89.674 101.61 90.0302C101.61 90.3863 101.546 90.7128 101.418 91.0096C101.295 91.3064 101.116 91.5666 100.884 91.7904C100.655 92.0096 100.386 92.1808 100.075 92.3041C99.7695 92.4228 99.4339 92.4822 99.0685 92.4822ZM99.0685 91.8726C99.3334 91.8726 99.5777 91.8269 99.8014 91.7356C100.03 91.6443 100.226 91.5165 100.39 91.3521C100.559 91.1831 100.69 90.9868 100.781 90.763C100.877 90.5393 100.925 90.295 100.925 90.0302C100.925 89.7653 100.877 89.5211 100.781 89.2973C100.69 89.0735 100.559 88.8795 100.39 88.7151C100.226 88.5461 100.03 88.416 99.8014 88.3247C99.5777 88.2334 99.3334 88.1877 99.0685 88.1877C98.7991 88.1877 98.5503 88.2334 98.3219 88.3247C98.0983 88.416 97.9019 88.5461 97.7329 88.7151C97.564 88.8795 97.4315 89.0735 97.3357 89.2973C97.2444 89.5211 97.1987 89.7653 97.1987 90.0302C97.1987 90.295 97.2444 90.5393 97.3357 90.763C97.4315 90.9868 97.564 91.1831 97.7329 91.3521C97.9019 91.5165 98.0983 91.6443 98.3219 91.7356C98.5503 91.8269 98.7991 91.8726 99.0685 91.8726ZM106.766 92.4822C106.136 92.4822 105.64 92.3019 105.28 91.9411C104.919 91.5803 104.739 91.053 104.739 90.3589V87.6329H105.424V90.3315C105.424 90.8658 105.54 91.2562 105.773 91.5028C106.01 91.7493 106.344 91.8726 106.773 91.8726C107.207 91.8726 107.54 91.7493 107.773 91.5028C108.011 91.2562 108.129 90.8658 108.129 90.3315V87.6329H108.793V90.3589C108.793 91.053 108.613 91.5803 108.252 91.9411C107.896 92.3019 107.401 92.4822 106.766 92.4822Z" fill="white"/>
</g>
<defs>
<clipPath id="clip0_471_1005">
<rect width="99.8036" height="69" fill="white" transform="translate(10 26)"/>
</clipPath>
</defs>
</svg>
