<svg width="120" height="120" viewBox="0 0 120 120" fill="none" xmlns="http://www.w3.org/2000/svg">
<path d="M17.6689 24.6924C18.1268 24.6872 17.815 25.3779 18.2599 25.2735C18.2247 25.5372 18.4386 25.7096 18.5704 25.9068C18.6213 25.9055 18.7244 25.9029 18.7752 25.9016C18.8444 26.1222 18.7948 26.4291 19.0531 26.5427C19.1066 26.7725 19.0949 27.0598 19.3649 27.1538C19.374 27.3118 19.3819 27.4698 19.3897 27.6278C19.4536 27.6304 19.5789 27.6356 19.6415 27.6369C19.6793 27.8877 19.6023 28.2428 19.9689 28.2559C19.9611 28.5053 19.9533 28.756 19.9455 29.0067C20.3864 29.0498 20.1842 29.5369 20.3329 29.8189C20.4843 30.101 20.5508 30.4117 20.5691 30.7291C21.0478 30.7669 20.7791 31.2801 20.8143 31.5856C21.2448 31.6627 21.0713 32.1497 21.1261 32.4592C21.5762 32.6538 21.3296 33.227 21.3923 33.607C21.4614 33.6201 21.5997 33.6462 21.6675 33.6592C21.6714 33.9504 21.6727 34.2429 21.6897 34.5354C21.7497 34.6268 21.871 34.8096 21.9311 34.901C21.9571 35.251 21.9767 35.6009 21.995 35.9522C22.0719 35.9522 22.2233 35.9509 22.3003 35.9509C22.342 36.3609 22.0706 36.972 22.5338 37.2149C22.5442 37.5466 22.5481 37.8782 22.5573 38.2112C23.0204 38.3666 22.7699 38.9294 22.8286 39.2937C23.4157 39.6619 22.8299 40.5564 23.3752 40.939C23.3974 41.3817 23.4105 41.8243 23.4261 42.267C23.4979 42.2696 23.6427 42.2735 23.7144 42.2761C23.7197 42.3506 23.7288 42.4981 23.734 42.5725C23.8018 42.9721 23.5214 43.5636 23.9714 43.7961C23.9741 43.8431 23.9767 43.9358 23.978 43.9828C23.9858 44.3536 23.9584 44.7284 24.0093 45.0979C24.068 45.1319 24.1867 45.2024 24.2454 45.2376C24.2832 45.7678 24.265 46.3006 24.2637 46.8333C24.3263 46.8712 24.4502 46.9482 24.5128 46.9874C24.6094 47.6181 24.5089 48.2645 24.6133 48.8965L24.8025 48.9422C24.7946 49.5128 24.8338 50.0821 24.8729 50.6514C24.8729 50.7115 24.8729 50.8316 24.8742 50.893C24.9342 50.9087 25.0569 50.94 25.1169 50.957C25.1325 51.1189 25.1508 51.2821 25.173 51.4467C25.1743 52.0147 25.1117 52.5866 25.1769 53.1533C25.2317 53.1938 25.3413 53.2761 25.3961 53.3165C25.3961 53.4706 25.4 53.6273 25.4091 53.784C25.4391 54.6289 25.3739 55.4776 25.4417 56.3212C25.5043 56.3551 25.6296 56.4217 25.6922 56.4557C25.7522 58.9327 25.6739 61.4124 25.7026 63.8908C25.8827 63.8947 26.064 63.8986 26.2441 63.9039C26.2584 63.8347 26.2845 63.6936 26.2988 63.6231C26.5141 63.5735 26.7502 63.5552 26.9185 63.3959C27.0098 63.281 27.1012 63.1674 27.1925 63.0538C27.3412 63.0381 27.4912 63.0238 27.6426 63.0107C27.7861 62.8305 27.9348 62.6542 28.0809 62.4753C28.3158 62.4649 28.5715 62.461 28.6002 62.158C28.6445 62.1541 28.7319 62.1463 28.7763 62.1424C28.8872 62.0353 29.0033 61.9308 29.1494 61.8747C29.4364 61.7741 29.6412 61.5326 29.8056 61.2871C29.9687 61.2792 30.1318 61.2727 30.2961 61.2675C30.2909 61.1944 30.2805 61.0494 30.2753 60.9763C30.3405 60.988 30.4696 61.0128 30.5349 61.0246C30.4827 60.6603 30.818 60.6955 31.0698 60.6642C31.1911 60.5349 31.3163 60.4083 31.435 60.2764L31.4637 60.1811C31.4951 60.1693 31.5564 60.1484 31.5877 60.138C31.7795 60.1275 31.9986 60.1471 32.0717 59.9251C32.1943 59.8089 32.3117 59.6901 32.4252 59.566C32.5714 59.566 32.7188 59.566 32.8662 59.5687C32.8584 59.5021 32.844 59.3715 32.8375 59.3062C33.0749 59.2657 33.345 59.2683 33.5172 59.0698C33.6281 58.9536 33.7324 58.8322 33.8303 58.7055C34.0429 58.6768 34.253 58.6311 34.373 58.4326C34.5191 58.4235 34.63 58.3268 34.7448 58.2485C34.8113 58.2145 34.947 58.1453 35.0136 58.1101C35.298 57.9273 35.4336 57.4925 35.8302 57.512C35.9698 57.5042 36.0612 57.4259 36.1042 57.277C36.1486 57.2639 36.236 57.2365 36.2803 57.2222C36.3051 57.1738 36.3547 57.0759 36.3782 57.0263C36.5086 56.9741 36.6443 56.9453 36.7865 56.9414C36.8883 56.8265 36.9926 56.7142 37.1022 56.6084C37.461 56.3682 37.8967 56.2337 38.1368 55.8445L38.1602 55.8406C38.4655 55.8432 38.6964 55.6565 38.93 55.4894C38.9287 55.4345 38.926 55.3222 38.9234 55.2674C39.1609 55.2452 39.4909 55.3457 39.5444 55.0154C39.8027 54.7412 40.275 54.7542 40.4289 54.3886C40.5672 54.3768 40.7055 54.3664 40.8438 54.3586C40.9951 54.181 41.1582 54.0125 41.2848 53.8167C41.3826 53.8219 41.5796 53.8323 41.6774 53.8376C41.7179 53.7749 41.7975 53.6469 41.8366 53.5842C41.954 53.4772 42.0675 53.3662 42.1823 53.2565C42.3258 53.2447 42.4693 53.233 42.6141 53.2225C42.6155 53.1468 42.6194 52.9966 42.6207 52.9209C42.7029 52.93 42.8672 52.9457 42.9507 52.9535C42.9507 52.883 42.952 52.7394 42.952 52.6676C43.2064 52.6663 43.4634 52.6663 43.7191 52.665C43.7518 52.3255 44.0531 52.3712 44.3075 52.3685C44.5332 51.8175 45.3408 52.3568 45.6095 51.8358C45.9122 51.8697 46.3127 51.7339 46.5084 52.0538C46.1209 52.0238 45.8261 52.2354 45.5547 52.4795C45.5443 52.5083 45.5234 52.567 45.5117 52.5971C45.329 52.6663 45.2338 52.8177 45.1894 53.0019C45.0485 52.9979 44.9102 52.994 44.7706 52.9888C44.6154 53.1664 44.4536 53.34 44.3258 53.5398C44.2358 53.5385 44.057 53.5333 43.967 53.5307C43.7074 53.8284 43.4165 54.0961 43.1529 54.3899C42.9377 54.4121 42.7237 54.4539 42.6481 54.6902C42.5815 54.6915 42.4511 54.6968 42.3845 54.6994C42.3898 54.7738 42.3989 54.924 42.4041 54.9984C42.3493 54.9932 42.2384 54.9814 42.1836 54.9762C42.061 55.2909 41.6905 55.2831 41.4504 55.462C41.3474 55.5782 41.2508 55.6996 41.1621 55.8289C40.943 55.8589 40.6912 55.8576 40.6155 56.1162C40.5777 56.124 40.5033 56.1397 40.4655 56.1475C40.3676 56.2885 40.2437 56.4047 40.0963 56.4909C40.095 56.5314 40.0924 56.6137 40.0924 56.6541C39.6866 56.6567 39.3983 56.914 39.157 57.2091C39.0474 57.3149 38.943 57.4245 38.8399 57.5381C38.6129 57.5669 38.3351 57.5421 38.2855 57.8359C38.2333 57.8411 38.1302 57.8515 38.0794 57.8568C38.0807 57.9234 38.0833 58.0566 38.0846 58.1231C37.8967 58.1427 37.7089 58.1649 37.5223 58.1858C37.5171 58.2315 37.5079 58.3203 37.5027 58.366C37.3344 58.4352 37.2249 58.5671 37.1622 58.7356C37.0996 58.7329 36.9744 58.729 36.9117 58.7264C36.9144 58.7917 36.9222 58.921 36.9248 58.985C36.6978 59.0163 36.3873 58.9471 36.3273 59.2487C36.0951 59.4185 35.8772 59.6091 35.6841 59.8233C35.5406 59.8468 35.3971 59.8729 35.2536 59.9003C35.1179 60.0505 34.9783 60.198 34.8387 60.3469C34.7005 60.3887 34.5556 60.4109 34.4291 60.4814C34.3952 60.5597 34.3286 60.7164 34.296 60.7961C34.236 60.7843 34.116 60.7621 34.056 60.7504C34.0534 60.8039 34.0482 60.9084 34.0468 60.9606C33.7872 61.257 33.298 61.2309 33.1323 61.6005C33.0775 61.6083 32.9666 61.624 32.9119 61.6318C32.9158 61.6997 32.9223 61.8368 32.9262 61.9047C32.8479 61.8982 32.6914 61.8851 32.6131 61.8786C32.6131 61.9517 32.6131 62.098 32.6131 62.1711C32.4448 62.1894 32.2765 62.209 32.1082 62.2311C31.9999 62.3408 31.889 62.4479 31.7755 62.5524C31.7638 62.6046 31.739 62.7104 31.7273 62.7639C31.4911 62.7966 31.1806 62.7391 31.1037 63.0407C31.0554 63.046 30.9563 63.0564 30.908 63.0616C30.9041 63.1099 30.8976 63.2066 30.8936 63.2549C30.7384 63.3345 30.6092 63.4508 30.4918 63.5774C30.2635 63.6244 30.0483 63.7028 29.9674 63.947C29.9295 63.9339 29.8526 63.9065 29.8134 63.8934C29.6751 64.0828 29.5264 64.263 29.3894 64.4536C29.1585 64.481 28.8885 64.4719 28.8193 64.7552C28.7554 64.7591 28.6289 64.767 28.5649 64.7709C28.5754 64.8388 28.5936 64.9746 28.6041 65.0425C28.5245 65.049 28.3679 65.0621 28.2897 65.0686C28.3523 65.3755 28.1344 65.8795 28.5715 65.9657C28.5767 66.0218 28.5871 66.1355 28.5923 66.1916C28.6497 66.1864 28.7671 66.1746 28.8245 66.1694C28.8128 66.6068 29.0881 66.9255 29.4547 67.1213C29.4625 67.2467 29.4703 67.3733 29.4781 67.5013C29.6243 67.6058 29.7312 67.7481 29.803 67.9126C29.8513 67.9139 29.9478 67.9178 29.9961 67.9205C30.0443 68.1359 30.0704 68.3723 30.2309 68.542C30.3392 68.6635 30.4436 68.7862 30.5453 68.9142C30.5518 68.9677 30.5649 69.0761 30.5714 69.1309C30.5766 69.1779 30.5871 69.2733 30.5923 69.3203C30.7788 69.4587 30.9589 69.6062 31.1441 69.7486C31.148 69.8687 31.1533 69.9914 31.1598 70.1155C31.4207 70.2878 31.6333 70.5216 31.7455 70.8167C31.8408 71.0726 32.0613 71.245 32.2596 71.4213C32.4044 71.5871 32.544 71.7582 32.6796 71.9331C32.7396 71.9331 32.8584 71.9331 32.9171 71.9318C32.9105 72.005 32.8975 72.1512 32.891 72.2243C32.9406 72.2283 33.041 72.2374 33.0919 72.2413C33.1754 72.3706 33.2745 72.492 33.3906 72.5952C33.5981 72.795 33.7977 73.0039 34.0195 73.188C34.0299 73.2363 34.0521 73.3343 34.0638 73.3826C34.1212 73.38 34.236 73.3734 34.2934 73.3695C34.3652 73.5079 34.45 73.6463 34.5504 73.7678C34.7148 74.008 35.0123 73.9441 35.2614 73.9545C35.2406 74.0172 35.1975 74.1438 35.1766 74.2065C35.2379 74.217 35.3606 74.2352 35.4219 74.2444C35.508 74.6087 35.9685 74.4846 36.1746 74.7419C36.3886 74.8242 36.6208 74.8907 36.7174 75.1258C36.8778 75.1245 37.0383 75.1232 37.2001 75.1232C37.2105 75.1937 37.2314 75.336 37.2431 75.4065C37.3971 75.4091 37.5536 75.4144 37.7089 75.4196C37.8145 75.8205 38.2685 75.6599 38.5699 75.7173C38.8347 76.0947 39.3879 75.9732 39.7466 76.2396C40.1445 76.2932 40.5477 76.2775 40.9482 76.2736C40.956 76.3428 40.969 76.4825 40.9756 76.553L41.0408 76.5478C42.2906 76.5674 43.543 76.5948 44.7915 76.5426C44.845 76.4786 44.952 76.3493 45.0042 76.2853C45.3851 76.2971 45.7674 76.2866 46.1457 76.2344C46.1887 76.2305 46.2762 76.22 46.3192 76.2161C46.4875 75.746 47.222 76.2174 47.3211 75.6807C47.3603 75.6742 47.4372 75.6612 47.4764 75.6546C47.6838 75.6599 47.8925 75.669 48.1013 75.6821C48.1104 75.6089 48.1274 75.4614 48.1365 75.3869L48.2083 75.3856C48.4966 75.3425 48.9584 75.5358 49.0471 75.1206C49.1998 75.1193 49.3511 75.1193 49.5037 75.1219C49.522 75.0448 49.5572 74.8894 49.5755 74.8111C49.7333 74.8059 49.8912 74.8006 50.0503 74.7954C50.1678 74.5604 50.4261 74.5408 50.6544 74.4925C50.6857 74.1438 50.9988 74.2379 51.2454 74.247C51.2649 74.1843 51.3054 74.0577 51.3249 73.995C51.535 73.9571 51.7698 73.9493 51.9081 73.7586C51.9864 73.679 52.1403 73.5197 52.2186 73.4413C52.323 73.4087 52.4273 73.376 52.5317 73.3421C52.5852 73.2846 52.6922 73.171 52.7456 73.1136C52.807 73.107 52.9309 73.0953 52.9935 73.0888C52.9974 73.0091 53.0066 72.8511 53.0105 72.7715C53.1723 72.7702 53.334 72.7702 53.4971 72.7715C53.6445 72.5926 53.8024 72.4228 53.9328 72.2296C53.9876 72.2309 54.0985 72.2322 54.1533 72.2335C54.1533 72.1721 54.152 72.0507 54.152 71.9893C54.4769 71.9527 54.7482 71.7856 54.9987 71.5884C55.0065 71.5453 55.0222 71.4591 55.03 71.4174C55.197 71.3573 55.3144 71.2385 55.3679 71.0687C55.4201 71.0726 55.5257 71.0805 55.5779 71.0831C55.5805 71.01 55.5871 70.8611 55.5897 70.7867C55.7736 70.8036 55.9589 70.8193 56.1441 70.835C56.148 70.7501 56.1559 70.5816 56.1598 70.4968C56.2302 70.4863 56.3711 70.4641 56.4416 70.4537C56.4442 70.3949 56.4507 70.2748 56.4546 70.2147C56.5212 70.2121 56.6542 70.2056 56.7208 70.203C56.7208 70.1233 56.7208 69.9653 56.7208 69.887C56.8016 69.8948 56.9634 69.9131 57.043 69.9209C57.0378 69.8452 57.0273 69.6937 57.0221 69.618C57.0978 69.6258 57.2478 69.6428 57.3222 69.6519C57.3183 69.5749 57.3091 69.4208 57.3039 69.3438C57.3744 69.3516 57.5153 69.366 57.5857 69.3738C57.5844 69.3072 57.5792 69.1766 57.5779 69.1113C57.8062 69.0552 58.0893 69.0722 58.2237 68.8397C58.375 68.7614 58.482 68.6386 58.5394 68.478C58.5929 68.4767 58.7011 68.4728 58.7546 68.4715C58.752 68.4036 58.7468 68.2678 58.7442 68.1999C58.9125 68.1999 59.0821 68.1986 59.2517 68.1999C59.3091 67.7037 59.8844 67.9779 60.2171 67.9113L60.1336 67.6985C60.2797 67.688 60.4258 67.6789 60.5732 67.6724L60.4806 67.9126C60.6815 67.9087 60.8837 67.9035 61.0859 67.8996C61.0794 67.9531 61.0664 68.0589 61.0598 68.1124C61.1968 68.1986 61.3299 68.2939 61.4551 68.3997C61.5999 68.5603 61.7448 68.7235 61.9117 68.8645L61.9222 68.9494C61.9313 69.0539 61.9509 69.2615 61.96 69.3647C62.0253 69.3647 62.1544 69.366 62.2196 69.366C62.2196 69.5671 62.2222 69.7695 62.2262 69.9732L62.4479 69.8491C62.4806 70.1494 62.5223 70.4498 62.5654 70.7501C62.6123 70.7814 62.7063 70.8454 62.7532 70.8768C62.7819 71.2607 63.0663 71.5218 63.3455 71.749L63.3507 71.7804C63.3638 71.8966 63.3886 72.1264 63.4016 72.2426C63.4694 72.2387 63.6051 72.2309 63.6743 72.2269C63.6677 72.3001 63.6534 72.4463 63.6469 72.5194C63.7056 72.5194 63.823 72.5181 63.8817 72.5181C63.9717 72.6422 64.0656 72.7662 64.1609 72.8903C64.2496 72.9856 64.3396 73.0822 64.4309 73.1776C64.5549 73.2716 64.6814 73.3643 64.8093 73.457C64.8145 73.5131 64.8262 73.6241 64.8314 73.679C64.9945 73.6724 65.1576 73.6672 65.3233 73.6633C65.335 74.0315 65.6912 73.9519 65.9456 73.9754C66.0108 73.9767 66.1426 73.9793 66.2091 73.9819C66.2352 74.0446 66.2874 74.1713 66.3135 74.2352C67.0336 74.2248 67.7564 74.2405 68.4765 74.2287C68.5026 74.1647 68.5561 74.0355 68.5822 73.9715C68.6317 73.9689 68.7283 73.9649 68.7779 73.9623C69.1484 73.961 69.5189 73.9689 69.8907 73.9623C70.0668 73.4779 70.6617 73.7338 71.0478 73.6855C71.1013 73.5824 71.1548 73.4805 71.2096 73.3799C71.254 73.3786 71.3414 73.3747 71.3857 73.3734C71.7158 73.346 72.1515 73.4727 72.3564 73.1227C72.402 73.1214 72.4946 73.1188 72.5416 73.1188C72.8091 73.1097 73.0791 73.094 73.3479 73.0731C73.4966 72.6357 74.0928 72.8942 74.4398 72.7715C74.6277 72.4307 75.0412 72.5416 75.3595 72.5038C75.5618 72.0298 76.1658 72.304 76.5624 72.2439L76.4776 72.0272C76.8116 71.9815 77.1482 71.9423 77.486 71.9136C77.5408 71.8914 77.6478 71.8457 77.7026 71.8235L77.7039 71.7151C78.0379 71.6341 78.5832 71.813 78.6641 71.3521C78.698 71.3508 78.7672 71.3481 78.8011 71.3468C79.139 71.2907 79.6686 71.5284 79.8304 71.0987C80.1278 71.0374 80.6184 71.2385 80.681 70.7945C81.045 70.7958 81.4103 70.8023 81.7756 70.8062L81.6868 70.5843C82.2543 70.5124 82.8388 70.4445 83.4063 70.5516C83.4441 70.6104 83.5224 70.7266 83.5603 70.7854C83.8055 70.7984 84.103 70.754 84.1591 71.0713C84.2973 71.0779 84.4382 71.0857 84.5791 71.0935C84.7253 71.2724 84.874 71.4526 85.0201 71.6341C85.1688 71.6511 85.3202 71.6694 85.4715 71.6876C85.4897 71.8352 85.5106 71.9828 85.5328 72.1316C85.7546 72.317 85.9568 72.5234 86.1486 72.7401C86.3977 72.8354 86.3586 73.0914 86.373 73.3081C86.4356 73.3277 86.5621 73.3643 86.6248 73.3839C86.6404 73.7129 86.8061 73.9911 87.0031 74.2457C87.0618 74.2496 87.1779 74.2561 87.2366 74.2601C87.2418 74.2914 87.2523 74.3541 87.2575 74.3841C87.2627 74.4886 87.2718 74.6962 87.2771 74.8007C87.3423 74.7967 87.4714 74.7876 87.5354 74.7837C87.5354 74.9769 87.5354 75.1715 87.5367 75.3661C87.5902 75.3661 87.6971 75.3674 87.7506 75.3687C87.8054 75.524 87.902 75.6494 88.0402 75.7434C88.1342 75.8427 88.2255 75.9419 88.322 76.0438C88.4421 76.1417 88.5647 76.2344 88.6925 76.3271C88.6925 76.3859 88.6938 76.5008 88.6951 76.5595C88.7695 76.5491 88.9182 76.5269 88.9926 76.5165C88.9874 76.5883 88.9769 76.7345 88.973 76.8063C89.5979 76.805 90.2267 76.8573 90.8503 76.7881C90.9012 76.7319 91.003 76.6183 91.0539 76.5622C91.0734 76.5622 91.11 76.5608 91.1282 76.5595C91.3644 76.5569 91.5992 76.5569 91.8366 76.5569L91.7362 76.3258C92.0388 76.2958 92.3415 76.2644 92.6455 76.2383C92.6781 76.1717 92.742 76.0398 92.7733 75.9732C92.8138 75.9732 92.8933 75.9732 92.9325 75.9732C93.2038 75.9745 93.4739 75.9641 93.7465 75.9537C93.8353 75.8335 93.9253 75.716 94.0205 75.6024C94.2384 75.639 94.4576 75.6742 94.678 75.7082C94.6741 75.622 94.6689 75.4496 94.6663 75.3634C94.9298 75.3817 95.1947 75.3896 95.4621 75.3922C95.5495 75.2172 95.71 75.1297 95.8978 75.0971C96.2031 75.0709 96.7067 75.306 96.785 74.8516C97.0928 74.8163 97.462 74.8751 97.6747 74.5904C97.933 74.5617 98.1939 74.5434 98.4535 74.5147C98.6414 74.5081 98.7562 74.3998 98.7993 74.1882C99.0367 74.2091 99.2754 74.2326 99.5155 74.2574C99.5337 74.1778 99.569 74.0211 99.5872 73.9427C99.9043 73.9036 100.343 74.0746 100.519 73.7051C100.827 73.709 101.136 73.7181 101.448 73.7221C101.523 73.6333 101.6 73.5471 101.68 73.4609C101.872 73.4126 102.069 73.3656 102.26 73.3081C102.575 73.1919 102.906 73.141 103.232 73.0626C103.268 72.9974 103.339 72.8694 103.374 72.8054C103.423 72.8002 103.521 72.791 103.569 72.7871C103.864 72.7884 104.16 72.8067 104.456 72.8185C104.459 72.7493 104.464 72.6108 104.468 72.5416C104.949 72.5364 105.432 72.5351 105.916 72.539C105.918 72.6069 105.922 72.7427 105.925 72.8119C106.179 72.8159 106.436 72.8211 106.693 72.8263C106.791 72.949 106.896 73.0718 107 73.1932C107.31 73.3343 107.629 73.4753 107.866 73.7338C108.061 73.9454 108.237 74.2313 108.554 74.2548C108.539 74.3945 108.526 74.5356 108.517 74.6779C108.684 74.7732 108.802 74.9195 108.855 75.1075C108.907 75.1075 109.01 75.1075 109.061 75.1088C108.948 75.5645 109.434 75.7748 109.43 76.2083L109.64 76.2148C109.642 76.2958 109.646 76.459 109.647 76.54C109.729 76.5439 109.892 76.5517 109.974 76.5543C109.967 76.7149 109.959 76.8755 109.954 77.0375C110.34 77.1328 110.102 77.6969 110.542 77.7086C110.546 77.7609 110.555 77.8627 110.559 77.9149C110.732 78.0507 110.903 78.1931 111.081 78.3276C111.086 78.385 111.096 78.4973 111.102 78.5535C111.156 78.56 111.267 78.5704 111.322 78.577C111.377 78.7298 111.481 78.8225 111.634 78.8551C112.238 78.9034 112.85 78.9178 113.452 78.8407L113.587 78.8172C113.617 78.7402 113.677 78.5874 113.707 78.5104L113.721 78.5065C113.981 78.5156 114.239 78.5443 114.499 78.5691C114.501 78.4869 114.507 78.325 114.511 78.2427C114.685 78.2505 114.863 78.2597 115.041 78.2688C115.118 77.8262 115.63 78.0612 115.933 77.9163L115.998 77.7073C116.192 77.693 116.389 77.6851 116.585 77.659C116.83 77.5532 117.068 77.4305 117.322 77.3443C117.295 77.5807 117.261 77.817 117.221 78.0534C116.924 79.1319 116.517 80.1753 116.038 81.1846C115.704 81.233 115.205 81.0371 115.055 81.451C114.826 81.4588 114.598 81.4667 114.372 81.4797C114.269 81.6129 114.143 81.7148 113.991 81.784C113.875 81.7513 113.646 81.6848 113.529 81.6508C113.506 81.72 113.459 81.8571 113.436 81.9263C113.03 82.1144 112.444 81.8754 112.161 82.2828C111.364 82.3168 110.564 82.3324 109.768 82.2893C109.638 82.1901 109.502 82.1 109.363 82.0216C109.303 82.0099 109.183 81.989 109.123 81.9786C108.948 81.7579 108.743 81.5633 108.521 81.3936C108.434 81.3074 108.349 81.2212 108.265 81.1363C108.092 80.9013 107.898 80.6754 107.643 80.5265C107.625 80.3803 107.607 80.234 107.592 80.0878C107.534 80.0499 107.419 79.9729 107.361 79.935C107.335 79.7078 107.357 79.4297 107.066 79.3905C107.025 79.1685 107.044 78.9034 106.812 78.782C106.764 78.5861 106.735 78.3785 106.563 78.2518C106.46 78.1461 106.359 78.0403 106.26 77.9345L106.207 77.8758C106.186 77.7282 106.168 77.5807 106.153 77.4344C106.092 77.4344 105.971 77.4357 105.909 77.4357C105.912 77.3678 105.92 77.2333 105.922 77.1667C105.857 77.1602 105.725 77.1458 105.66 77.1393C105.596 76.9735 105.494 76.8403 105.341 76.7541C105.333 76.7045 105.314 76.6066 105.305 76.5569C105.264 76.5504 105.181 76.5387 105.141 76.5321C105.072 76.476 104.935 76.3624 104.866 76.3049C104.202 76.2383 103.528 76.2435 102.864 76.2984L102.823 76.3297C102.769 76.3728 102.663 76.4564 102.61 76.4982C102.29 76.5517 101.942 76.4956 101.651 76.6601C101.398 76.8233 101.098 76.8494 100.807 76.8573C100.618 76.7737 100.377 76.9343 100.459 77.1471C100.413 77.1485 100.32 77.1498 100.275 77.1498C99.9343 77.2137 99.4202 77.0009 99.2611 77.4318L99.2533 77.4331C98.9715 77.4253 98.691 77.4161 98.4118 77.4122L98.4979 77.6433C97.8573 77.6277 97.3198 78.022 96.6884 78.0455C96.6467 78.0429 96.5632 78.0351 96.5201 78.0325C96.5006 78.1004 96.4627 78.2375 96.4432 78.3054L96.4105 78.3263C96.1314 78.3119 95.8522 78.2923 95.5743 78.2793C95.5717 78.355 95.5665 78.5039 95.5639 78.5796C95.3003 78.5757 95.0381 78.5744 94.7772 78.5783C94.6754 78.9687 94.2514 78.8251 93.9553 78.8603C93.7009 79.3879 92.9103 78.9295 92.6129 79.3931C92.3637 79.4388 92.0754 79.3853 91.8601 79.542C91.547 79.8149 91.0995 79.696 90.7212 79.7287C90.699 79.7979 90.652 79.9376 90.6286 80.0081C90.3037 80.0055 89.9789 80.0003 89.6566 80.0264C89.6188 80.0786 89.5457 80.1844 89.5079 80.2366C88.7447 80.3959 87.9489 80.281 87.1727 80.3032C87.1727 80.2366 87.1701 80.1034 87.1701 80.0368C86.9887 80.0382 86.8074 80.0421 86.6274 80.0486C86.6052 79.9781 86.5582 79.8384 86.5347 79.7679C86.4473 79.7692 86.2712 79.7718 86.1825 79.7731C86.0259 79.5811 85.8563 79.4009 85.6828 79.226C85.4532 79.1032 85.4858 78.8329 85.448 78.6149C85.401 78.6122 85.3084 78.607 85.2628 78.6044C85.2001 78.4438 85.0905 78.3224 84.9509 78.2323C84.9392 78.0651 84.9262 77.8993 84.9105 77.7347C84.8061 77.6355 84.6952 77.5389 84.6457 77.4031C84.6013 77.2568 84.5126 77.1445 84.3808 77.0688C84.3404 76.8468 84.3287 76.6026 84.0938 76.5008C84.0586 76.2827 84.0743 76.0333 83.8629 75.9014C83.752 75.8035 83.6437 75.7069 83.5381 75.6102C83.4807 75.4118 83.4376 75.2002 83.2745 75.0618C83.0228 74.802 82.7997 74.5082 82.5022 74.3005C81.7181 74.2352 80.925 74.2927 80.137 74.2653C79.9387 74.7171 79.3673 74.4833 78.9863 74.5473C78.8193 75.0344 78.2257 74.7667 77.8461 74.8098C77.8044 74.879 77.7209 75.0174 77.6791 75.0866C77.3752 75.1388 76.9459 75.0109 76.7985 75.3765C76.4476 75.3948 76.0966 75.4065 75.747 75.4183C75.7431 75.494 75.7353 75.6429 75.7314 75.7186C75.473 75.7108 75.216 75.7056 74.959 75.7082C74.7842 76.0882 74.3198 75.9471 73.9871 75.9981L74.0484 76.2279C73.631 76.301 73.0869 76.1548 72.7804 76.5099C72.1985 76.4786 71.7536 76.9421 71.1666 76.8625C71.1587 76.9356 71.1457 77.0792 71.1392 77.1524C70.8065 77.1863 70.316 76.9813 70.1764 77.4161C70.1477 77.4161 70.0916 77.4187 70.0629 77.4187C69.755 77.4214 69.4484 77.4187 69.1418 77.4187C69.134 77.4945 69.1196 77.646 69.1131 77.7217C69.0518 77.723 68.9292 77.7269 68.8666 77.7282C68.4008 77.7191 67.9351 77.7191 67.4706 77.7478C67.2006 78.1461 66.6214 77.9189 66.2182 77.945C65.6599 77.6747 65.031 77.7152 64.4296 77.6642L64.5209 77.4344C64.23 77.4279 63.9391 77.4266 63.6495 77.4279C63.6495 77.3574 63.6482 77.2177 63.6482 77.1471C63.4812 77.1471 63.3155 77.1471 63.1524 77.1471C62.9959 76.8808 62.7911 76.634 62.4923 76.5282C62.4871 76.5086 62.4753 76.4721 62.4701 76.4525L62.4323 76.3363L62.3097 76.3075C62.2066 76.2853 62.1035 76.2644 62.0018 76.2448C61.8739 76.0712 61.7408 75.904 61.6104 75.7356C61.4343 75.5933 61.2595 75.4509 61.082 75.3112C61.0533 75.1663 61.0259 75.0226 60.9998 74.8803L60.8824 74.9012C60.7089 74.6152 60.4884 74.3593 60.2132 74.1686C60.204 74.0289 60.1975 73.8905 60.1923 73.7534C60.1218 73.7325 59.9836 73.6894 59.9144 73.6685C59.8988 73.4374 59.9809 73.1449 59.7083 73.0352C59.5896 72.9295 59.4722 72.8211 59.356 72.7153C59.3391 72.5625 59.3221 72.4111 59.3052 72.2596C59.0703 72.2622 58.8016 72.2256 58.679 72.4803C58.2641 72.462 58.0345 72.7819 57.8284 73.0927C57.6966 73.0992 57.5648 73.1057 57.4331 73.1136C57.2465 73.3369 57.0417 73.5445 56.8369 73.7508C56.696 73.9362 56.4729 73.9715 56.2602 74.008C56.1063 74.1791 55.9497 74.3475 55.8075 74.5264C55.664 74.5356 55.5231 74.546 55.3822 74.5578C55.2348 74.7354 55.0861 74.9116 54.9348 75.0866C54.7156 75.1271 54.4612 75.1388 54.3855 75.3935C54.2446 75.4013 54.105 75.4104 53.9667 75.4196C53.8167 75.6024 53.6654 75.7839 53.5193 75.9693C53.3627 75.9719 53.2075 75.9759 53.0522 75.9798C53.047 76.0464 53.0379 76.1782 53.0327 76.2435C52.7783 76.2853 52.5213 76.3376 52.3099 76.4942C51.9694 76.6039 51.6746 76.8325 51.4919 77.1432C51.3275 77.1419 51.1645 77.1419 51.0014 77.1419C51.0001 77.2124 50.9988 77.3522 50.9975 77.4227C50.6935 77.4762 50.1834 77.2386 50.1077 77.6773C49.6564 77.7674 49.2337 77.9646 48.8632 78.2349C48.6453 78.3054 48.4118 78.2832 48.1874 78.2962C48.1652 78.3668 48.1222 78.5078 48.1013 78.577C47.7947 78.6214 47.3198 78.4268 47.222 78.846C46.9063 78.9034 46.4223 78.6984 46.3296 79.1385C45.9422 79.1254 45.5469 79.1006 45.1685 79.2038C45.0577 79.2586 44.9507 79.3239 44.8502 79.3957C44.7563 79.397 44.6637 79.4009 44.571 79.4088C44.1523 79.4375 43.7296 79.4153 43.3134 79.4767C43.2756 79.5341 43.1973 79.649 43.1595 79.7065C42.3493 79.7013 41.5392 79.7143 40.7303 79.6908C40.6742 79.6373 40.5633 79.5276 40.5072 79.4741C39.9423 79.4114 39.3722 79.4362 38.8047 79.4127C38.7382 79.3513 38.6051 79.2286 38.5386 79.1685C38.1837 79.1411 37.8263 79.1463 37.4714 79.1306C37.4714 79.0693 37.4714 78.9478 37.4727 78.8865C37.2118 78.8629 36.8648 78.9531 36.7982 78.607C36.6208 78.6018 36.4447 78.5966 36.2699 78.5913C36.2281 78.5874 36.1473 78.5783 36.1068 78.5731C36.0951 78.1826 35.7363 78.325 35.4806 78.338C35.4728 78.2636 35.4558 78.1147 35.448 78.0403C35.2132 77.9907 34.9327 77.9972 34.8009 77.7583C34.6587 77.7374 34.5165 77.7152 34.3756 77.6943L34.2504 77.6682C34.2438 77.6185 34.2308 77.5219 34.2243 77.4723C34.0195 77.2386 33.7533 77.1158 33.4402 77.1236C33.4428 77.0766 33.4493 76.9839 33.452 76.9369C33.2667 76.8011 33.0893 76.6575 32.9092 76.5178C32.7253 76.2592 32.3457 76.2736 32.193 75.9876C32.1434 75.9915 32.043 75.9994 31.9934 76.002C31.9973 75.9262 32.0038 75.7721 32.0078 75.6964C31.9334 75.7082 31.7821 75.7317 31.7077 75.7434C31.7168 75.669 31.7351 75.5201 31.7442 75.4457C31.6842 75.4444 31.5629 75.4405 31.5029 75.4379C31.3542 75.2342 31.1989 75.037 31.0593 74.8294C31.015 74.8294 30.9236 74.8307 30.878 74.832C30.8702 74.7576 30.8519 74.61 30.8428 74.5356C30.7645 74.5499 30.6066 74.5774 30.5284 74.5917C30.5401 74.5147 30.5649 74.3593 30.5766 74.2823C30.4997 74.2901 30.3431 74.3084 30.2648 74.3162C30.2753 74.2457 30.2948 74.1034 30.3053 74.0328L30.0704 73.9649C29.5734 73.2951 28.942 72.7453 28.3562 72.1577C28.3131 71.7699 28.0418 71.497 27.7339 71.2881C27.7235 71.1706 27.713 71.053 27.7026 70.9368C27.5604 70.8206 27.443 70.6848 27.3543 70.5268C27.3099 70.5242 27.2212 70.5177 27.1768 70.5151C27.1677 70.1847 27.002 69.9144 26.7985 69.6702C26.7424 69.6559 26.6315 69.6271 26.5767 69.6128C26.6133 69.1283 26.214 68.8241 25.8827 68.5499C25.6178 68.4924 25.3452 68.5211 25.0764 68.5159C24.9434 68.5159 24.8103 68.5172 24.6772 68.5198C24.4033 68.5499 24.0028 68.4062 23.9049 68.7744C23.7705 68.7836 23.6375 68.7927 23.5044 68.8032C23.3596 68.9703 23.2069 69.1335 23.0608 69.3007C22.7438 69.5514 22.4712 69.8517 22.2011 70.1494C22.0889 70.2604 21.9767 70.3727 21.8671 70.4863L21.8449 70.5033C21.6962 70.549 21.5462 70.5895 21.3962 70.6313C21.4027 70.69 21.4144 70.8089 21.4196 70.8676C21.3505 70.8663 21.2122 70.8637 21.1431 70.8624C21.1405 70.9042 21.1366 70.9877 21.1339 71.0295C20.8939 71.2137 20.6786 71.4304 20.4895 71.6681C20.4464 71.685 20.3603 71.7203 20.3173 71.7386C20.2755 71.7777 20.1946 71.8561 20.1542 71.894C20.0172 71.9384 19.8776 71.9736 19.7367 72.0023C19.7237 72.0572 19.6963 72.1682 19.6819 72.223C18.9461 72.2165 18.2051 72.2805 17.4732 72.1865C17.4354 72.163 17.3597 72.1146 17.3219 72.0911L17.2097 72.0193C17.0192 71.941 16.6879 72.0232 16.7153 71.6903C16.5509 71.6759 16.3852 71.6589 16.2208 71.6433C16.213 71.5949 16.1947 71.4996 16.1869 71.4526C16.0434 71.4265 15.9025 71.3938 15.7629 71.3534C15.6311 71.1457 15.8855 70.9656 15.939 70.7762C16.0043 70.7814 16.136 70.7919 16.2026 70.7971C16.2 70.7175 16.1934 70.5568 16.1908 70.4772C16.2587 70.4798 16.3956 70.4837 16.4635 70.4863C16.4674 70.4367 16.4739 70.3375 16.4778 70.2892C16.6579 70.2213 16.7857 70.0894 16.8653 69.9157C16.9201 69.9092 17.031 69.8961 17.0858 69.8896C17.0845 69.8269 17.0819 69.7015 17.0806 69.6389C17.2671 69.631 17.455 69.6245 17.6428 69.6193C17.6363 69.5449 17.6246 69.3986 17.6181 69.3242C17.6742 69.3346 17.7876 69.3542 17.8437 69.3647C17.8972 69.0735 18.1725 69.0526 18.4073 69.0017C18.53 68.8306 18.6983 68.7092 18.8744 68.5995L18.7322 68.5512C18.7804 68.5368 18.8796 68.5094 18.9279 68.495C19.0179 68.4872 19.1953 68.4689 19.284 68.4611C19.4314 68.1372 19.9102 68.2978 20.0016 67.9257C20.0629 67.9218 20.1829 67.9165 20.2429 67.9126C20.2403 67.8552 20.2338 67.7416 20.2299 67.6841C20.5273 67.6554 20.7974 67.5431 20.9944 67.3133C21.0831 67.3159 21.2605 67.3224 21.3492 67.3263C21.3505 67.2493 21.3518 67.0952 21.3518 67.0182C21.4353 67.0182 21.5997 67.0195 21.6832 67.0195C21.6754 66.9581 21.661 66.834 21.6545 66.7714C21.7341 66.7661 21.8945 66.7544 21.9741 66.7479C21.9676 66.6774 21.9571 66.535 21.9506 66.4632C22.1228 66.4736 22.295 66.4841 22.4672 66.4958C22.492 66.4384 22.5429 66.3209 22.569 66.2621C22.689 66.1511 22.8064 66.0375 22.9225 65.9239C23.0595 65.9095 23.1965 65.8965 23.3348 65.8834C23.4757 65.7058 23.6192 65.5322 23.7588 65.3559C23.8162 65.3428 23.931 65.318 23.9884 65.305C23.9754 64.9629 23.9975 64.6168 23.9362 64.2786C23.8697 64.2473 23.7392 64.1833 23.674 64.152C23.6727 64.1141 23.6701 64.0371 23.6688 63.9992C23.6662 63.5252 23.6844 63.0525 23.6649 62.5798C23.6035 62.5236 23.4809 62.41 23.4209 62.3539C23.3648 61.8564 23.447 61.3524 23.3778 60.8548C23.3126 60.8144 23.1835 60.7308 23.1195 60.689C23.1287 60.4174 23.1274 60.1471 23.1195 59.8768C23.1117 59.6091 23.1117 59.3427 23.1117 59.0764C23.0504 59.0516 22.9291 59.0019 22.8678 58.9771C22.8482 58.6285 22.8495 58.2798 22.8312 57.9325C22.8156 57.6283 22.7986 57.3253 22.7803 57.0224L22.586 56.991C22.5729 56.5875 22.552 56.184 22.5325 55.7806C22.5299 55.6199 22.5273 55.4593 22.5246 55.3C22.4581 55.3 22.3276 55.2987 22.2624 55.2987C22.2572 55.0389 22.2546 54.7803 22.2429 54.5218C22.2298 54.1953 22.2233 53.8702 22.2168 53.5438C22.1594 53.5411 22.0459 53.5359 21.9885 53.532C21.9467 52.9065 21.9715 52.2798 21.9532 51.653C21.8841 51.5903 21.7471 51.4662 21.678 51.4049C21.6336 50.9087 21.7236 50.4099 21.6649 49.9163C21.5971 49.8653 21.4627 49.7622 21.3949 49.7113C21.3923 49.2085 21.4327 48.698 21.3466 48.2018C21.297 48.1482 21.1979 48.0399 21.1483 47.9863C21.1131 47.3504 21.1105 46.7132 21.0831 46.0773C21.0113 46.076 20.8665 46.072 20.7947 46.0694C20.7921 46.0133 20.7856 45.901 20.7817 45.8448C20.7713 45.3682 20.8182 44.8903 20.7674 44.4163C20.7086 44.3732 20.5912 44.2883 20.5325 44.2452C20.5312 44.2244 20.5299 44.1826 20.5286 44.1617C20.5247 43.6668 20.5273 43.1719 20.5325 42.677C20.4582 42.6509 20.3081 42.6 20.2338 42.5738C20.222 42.075 20.2494 41.5775 20.2507 41.0787C20.286 40.7549 20.0107 40.5172 19.982 40.2051C19.9441 39.7782 19.9494 39.3485 19.9428 38.9203C19.8763 38.8928 19.7419 38.8367 19.6754 38.8093C19.6858 38.5337 19.6741 38.2582 19.648 37.9853C19.6115 37.6223 19.6376 37.258 19.6532 36.895C19.5854 36.8937 19.4497 36.8911 19.3806 36.8898C19.3793 36.8454 19.374 36.7553 19.3727 36.7096C19.3675 36.6142 19.3584 36.4249 19.3545 36.3309C19.3519 35.9313 19.3506 35.533 19.3466 35.1348C19.2905 35.1309 19.1784 35.1243 19.1223 35.1204C19.1209 34.8579 19.1183 34.5955 19.104 34.3343C19.0792 33.9674 19.0766 33.6005 19.0714 33.2322C19.014 33.2035 18.8979 33.1448 18.8405 33.1147C18.8248 32.9071 18.8196 32.6995 18.8118 32.4919C18.7309 32.108 19.0192 31.5204 18.5495 31.3271C18.5117 30.8178 18.5469 30.3034 18.4791 29.7967C18.4243 29.7432 18.3147 29.6374 18.2599 29.5839C18.2364 29.4298 18.2051 29.2783 18.1738 29.1268C18.1608 28.6646 18.2195 28.2037 18.2116 27.7427C18.1412 27.7075 18.0003 27.6383 17.9299 27.6043C17.9259 27.5677 17.9194 27.4946 17.9168 27.4581C17.9259 26.9775 17.9416 26.497 17.9351 26.0165C17.4511 25.7723 17.7237 25.122 17.6689 24.6924Z" fill="white"/>
<path d="M60.5367 57.2822C60.5967 57.2666 60.7167 57.2339 60.7767 57.2182C60.7559 57.6074 61.1146 57.4872 61.3638 57.4964C61.6156 57.845 61.8948 58.1806 62.0709 58.5776C62.2875 58.8531 62.2927 59.2017 62.2849 59.5373C62.3436 59.5321 62.4623 59.5203 62.521 59.5138C62.5197 59.7998 62.5236 60.087 62.5497 60.373C62.5627 60.5689 62.5797 60.7661 62.598 60.9632L62.8015 60.9593C62.688 61.3145 62.5523 61.667 62.3175 61.9622C62.1231 61.9465 61.9313 61.9321 61.7395 61.9204C61.7134 61.9857 61.66 62.1162 61.6339 62.1828C61.5491 62.1894 61.3808 62.2011 61.2973 62.2076C61.3012 62.1358 61.3077 61.9935 61.3103 61.9217C61.0951 61.9321 60.8785 61.94 60.6646 61.9504C60.5641 61.8577 60.4663 61.765 60.3697 61.671C60.221 61.6553 60.0723 61.6409 59.9248 61.6279C59.8961 61.4242 59.7709 61.3132 59.57 61.3014C59.5648 61.2401 59.5543 61.1173 59.5504 61.0572C59.4787 61.0677 59.3352 61.0886 59.2634 61.1003C59.2738 61.0259 59.2921 60.877 59.3012 60.8039C59.2373 60.8026 59.1082 60.8 59.0429 60.7987C58.9529 60.2986 58.6516 59.8585 58.705 59.3323C58.769 59.2918 58.8942 59.2083 58.9581 59.1665C58.9803 58.9902 59.0051 58.8165 59.0312 58.6428C59.0364 58.6011 59.0495 58.5201 59.056 58.4783C59.3482 58.2328 59.5256 57.8711 59.8583 57.6726C59.8622 57.6282 59.8687 57.5395 59.8727 57.4951C60.0344 57.4925 60.1962 57.4898 60.3593 57.4846C60.4036 57.4337 60.4923 57.3318 60.5367 57.2822Z" fill="white"/>
<path d="M54.1795 0.036562C54.713 0.0313389 55.2479 0.0248099 55.7828 0C56.563 0.135802 57.3509 0.00130577 58.1363 0.0143636C59.5296 0.0261157 60.9229 0.0117521 62.3149 0.0208926C63.2086 0.0574546 64.1048 0.12405 64.9985 0.0287273C65.3742 0.0143637 65.7591 0.0522314 66.0957 0.236347C66.4923 0.304248 66.8967 0.325141 67.2998 0.289885C67.8608 0.313389 68.4805 0.20762 68.9853 0.513174C69.3924 0.556265 69.802 0.584992 70.2117 0.595439C70.5274 0.967588 71.0636 0.852679 71.4941 0.877489C71.6415 0.877489 71.7902 0.876183 71.9403 0.874877C71.9637 0.946695 72.0107 1.09033 72.0342 1.16215C72.3812 1.17913 72.7295 1.20263 73.0753 1.24703C73.3818 1.51994 73.8163 1.4442 74.1868 1.54213C74.6042 1.6479 75.0165 1.77456 75.4431 1.83985C75.7197 1.98349 76.0237 2.05531 76.3368 2.04747C76.5194 2.05531 76.7033 2.06053 76.8886 2.05792C76.839 2.26032 76.9264 2.35042 77.1495 2.32822C77.3282 2.3243 77.5083 2.3243 77.6896 2.33083C77.7079 2.39351 77.7431 2.51886 77.7614 2.58285C78.6172 2.65466 79.3595 3.12997 80.1944 3.2945C80.3445 3.38068 80.5049 3.45119 80.6811 3.476C80.7372 3.47992 80.8507 3.48645 80.9068 3.49037C81.0581 3.75283 81.3568 3.78547 81.6269 3.82726C81.6804 3.87688 81.7874 3.97873 81.8395 4.02835C81.97 4.0623 82.1005 4.09495 82.2335 4.1289C82.5049 4.26078 82.7893 4.35872 83.0776 4.45012C83.439 4.6264 83.803 4.81835 84.2074 4.87842C84.3352 4.90062 84.4644 4.92281 84.5949 4.94501C84.5896 4.99202 84.5792 5.08473 84.574 5.13174C85.4441 5.41771 86.2191 5.92174 87.0605 6.2743C87.114 6.28606 87.221 6.31087 87.2745 6.32392C87.3449 6.33829 87.4871 6.36963 87.5576 6.3853C87.5563 6.41402 87.5537 6.47409 87.5537 6.50412C87.8237 6.58378 88.1081 6.66473 88.296 6.89325C88.386 6.9063 88.5661 6.92981 88.6561 6.94287C88.6769 6.99118 88.7187 7.08911 88.7396 7.13743C88.9418 7.21447 89.1427 7.30196 89.3214 7.42992C89.4741 7.48477 89.6306 7.5383 89.7885 7.59054C89.7858 7.6284 89.7793 7.70675 89.7754 7.74462C89.8302 7.75507 89.9411 7.77465 89.9959 7.78379C90.4682 8.25388 91.1048 8.49022 91.6319 8.88849C91.7427 8.93288 91.8549 8.97728 91.9684 9.02168C92.7995 9.57925 93.5705 10.2622 94.4981 10.6552C94.5163 10.6617 94.5528 10.6735 94.5711 10.68C94.772 11.0195 95.0969 11.252 95.4295 11.4517C96.0166 11.7978 96.4628 12.3514 97.1072 12.6074C97.1999 12.6988 97.2925 12.7928 97.3864 12.8868C97.6617 13.084 97.9422 13.272 98.2175 13.4718C98.4745 13.7147 98.7354 13.9562 99.0146 14.1769C99.025 14.2122 99.0446 14.2853 99.055 14.3206C99.205 14.3858 99.3577 14.4524 99.5064 14.5256C99.5221 14.5543 99.5521 14.6131 99.5664 14.6418C99.6799 15.027 100.001 15.2659 100.334 15.4527C100.387 15.5689 100.442 15.6864 100.498 15.8026C100.596 15.8118 100.793 15.8274 100.892 15.8366L100.944 15.8731C101.27 16.2361 101.633 16.5626 101.964 16.9204C102.452 17.3996 102.952 17.8697 103.408 18.3802C103.462 18.4011 103.569 18.4416 103.624 18.4612C103.621 18.5017 103.615 18.5813 103.612 18.6218C103.835 18.7785 104.053 18.9574 104.196 19.1951C104.228 19.2486 104.289 19.3557 104.32 19.4092C104.641 19.8192 104.92 20.2945 105.399 20.54C105.408 20.557 105.425 20.5923 105.433 20.6105C105.624 20.8168 105.812 21.0258 105.999 21.236C106.219 21.4972 106.444 21.7544 106.691 21.9907C106.884 22.2663 107.077 22.5418 107.27 22.8199C107.453 23.0471 107.654 23.2587 107.873 23.4532C107.886 23.5237 107.915 23.6635 107.928 23.734C107.986 23.7731 108.102 23.8541 108.16 23.8933C108.328 24.1466 108.487 24.4065 108.605 24.6885C108.639 24.695 108.706 24.7081 108.74 24.7146C108.867 24.9262 109 25.1351 109.125 25.3479C109.166 25.3505 109.247 25.3558 109.287 25.3584C109.365 25.7305 109.591 26.0309 109.871 26.2776C109.916 26.386 109.961 26.4957 110.008 26.6041C110.105 26.7543 110.196 26.907 110.289 27.0624C110.341 27.0977 110.444 27.1708 110.496 27.2074C110.508 27.2792 110.533 27.4254 110.545 27.4973C110.684 27.6187 110.79 27.7689 110.868 27.9386C110.931 27.9477 111.055 27.9686 111.116 27.9791C111.038 28.0731 110.965 28.1671 110.889 28.2598C110.94 28.2402 111.042 28.2011 111.091 28.1802C111.112 28.2389 111.154 28.3565 111.175 28.4152C111.249 28.538 111.314 28.6646 111.369 28.7978C111.711 29.6596 112.212 30.4444 112.701 31.2279C112.791 31.4081 112.884 31.5896 112.982 31.7672C113.303 32.3456 113.454 33.0351 113.959 33.4947C113.974 33.5496 114.006 33.6619 114.02 33.718C114.321 34.6791 114.958 35.5135 115.15 36.5098C115.216 36.5385 115.348 36.5986 115.415 36.6286C115.434 36.8232 115.497 37.0138 115.619 37.1705C115.634 37.2214 115.661 37.3233 115.674 37.3755C115.802 38.0402 116.192 38.6186 116.314 39.2872C116.357 39.3407 116.441 39.4504 116.483 39.504C116.52 39.8187 116.619 40.1203 116.822 40.3684C116.835 40.4141 116.863 40.5068 116.877 40.5525C117.095 40.892 117.154 41.3033 117.145 41.7003C117.122 41.921 117.214 42.0071 117.417 41.9614C117.417 42.2487 117.438 42.5373 117.458 42.8246C117.514 42.8233 117.626 42.8207 117.682 42.8193C117.683 42.9003 117.685 43.0609 117.686 43.1406C117.648 43.5049 117.827 43.8222 117.99 44.1317C117.989 44.2061 117.989 44.355 117.989 44.4281C118.04 44.4268 118.14 44.4229 118.191 44.4215C118.221 44.7545 118.253 45.0888 118.274 45.4244C118.243 45.8971 118.486 46.3189 118.544 46.7785C118.54 47.0893 118.57 47.4092 118.786 47.6534C118.794 47.8505 118.8 48.049 118.811 48.2475C118.822 48.5165 118.841 48.7855 118.882 49.0519C118.938 49.0884 119.052 49.1602 119.109 49.1968C119.117 49.4945 119.121 49.7936 119.121 50.0926C119.091 50.4203 119.147 50.7481 119.386 50.9923C119.468 51.6661 119.268 52.4417 119.702 53.0267C119.699 53.2643 119.704 53.502 119.709 53.7409C119.691 54.4892 119.766 55.2308 119.923 55.9608C120.025 58.5737 120.026 61.1931 119.922 63.8046C119.767 64.4954 119.691 65.1992 119.715 65.9083C119.711 66.377 119.669 66.8445 119.689 67.3133C119.625 67.2937 119.498 67.2532 119.434 67.2323C119.429 67.4465 119.428 67.6593 119.428 67.8748C119.426 68.1085 119.428 68.3422 119.429 68.5786C119.415 68.8907 119.391 69.2028 119.357 69.5149C118.998 69.9732 119.167 70.5895 119.112 71.1249C119.079 70.9669 119.043 70.8115 119.004 70.6574C118.774 71.1236 118.83 71.6616 118.659 72.146C118.522 72.5312 118.504 72.9438 118.55 73.3473C118.328 73.2442 118.174 73.5236 118.248 73.7103C118.265 73.9036 118.278 74.0995 118.289 74.2953C118.287 74.4377 118.283 74.5826 118.278 74.7275C118.208 74.7576 118.064 74.8203 117.993 74.8503C117.953 75.4562 117.712 76.0177 117.575 76.604C117.552 76.6614 117.503 76.7776 117.48 76.8364C117.454 76.8965 117.402 77.0166 117.375 77.078C116.959 77.2516 116.481 77.3326 116.154 77.6669C116.263 77.6656 116.478 77.6603 116.585 77.659C116.389 77.6851 116.192 77.693 115.998 77.7073C115.781 77.7126 115.567 77.7557 115.373 77.8497C114.834 78.0978 114.265 78.2727 113.721 78.5065L113.707 78.5104C113.469 78.5652 113.231 78.5979 112.989 78.607C112.665 78.5888 112.341 78.577 112.018 78.5796C111.806 78.5261 111.527 78.611 111.374 78.4177C110.689 77.7805 110.241 76.9513 109.733 76.1796C109.644 76.0007 109.558 75.8231 109.47 75.6468C109.363 75.4745 109.258 75.3047 109.149 75.1363C109.117 75.0775 109.055 74.9613 109.023 74.9025C108.866 74.6858 108.712 74.469 108.554 74.2548C108.067 73.568 107.403 72.9634 106.585 72.7166C106.159 72.3915 105.591 72.5142 105.095 72.4881C104.583 72.5286 103.972 72.3797 103.569 72.7871C103.521 72.791 103.423 72.8002 103.374 72.8054C103.194 72.8224 103.017 72.8472 102.842 72.8772C102.819 72.9308 102.772 73.0379 102.748 73.0901C102.262 73.1397 101.718 73.0744 101.305 73.3917C101.088 73.4139 100.872 73.4361 100.657 73.457C100.932 73.5132 101.205 73.5745 101.479 73.6464C101.545 73.5027 101.615 73.3591 101.686 73.2181C101.83 73.2403 102.117 73.2859 102.26 73.3081C102.069 73.3656 101.872 73.4126 101.68 73.4609C101.6 73.5471 101.523 73.6333 101.448 73.7221C101.136 73.7181 100.827 73.709 100.519 73.7051L100.288 73.7064C99.7373 73.871 99.1672 73.9806 98.6388 74.2118C98.4549 74.2444 98.2723 74.2771 98.0909 74.311C98.0648 74.3162 98.01 74.3267 97.9839 74.3319C97.4569 74.4951 96.9076 74.5852 96.4002 74.8059C96.2658 74.8346 96.1327 74.8647 96.001 74.8947C95.5848 75.1297 95.1033 75.1845 94.6663 75.3634C94.1053 75.6011 93.3969 75.5528 92.9325 75.9732C92.8933 75.9732 92.8138 75.9732 92.7733 75.9732C92.502 75.9667 92.2163 75.968 92.0024 76.16C91.6945 76.254 91.26 76.1887 91.1282 76.5595C91.11 76.5608 91.0734 76.5622 91.0539 76.5622C90.4107 76.5739 89.7337 76.7737 89.114 76.5165C88.5974 76.2292 88.2647 75.7173 87.8733 75.2903C87.7141 74.9587 87.5249 74.6387 87.2575 74.3841C87.2523 74.3541 87.2418 74.2914 87.2366 74.2601C87.221 74.213 87.1897 74.119 87.174 74.072C87.0331 73.8122 86.8936 73.5523 86.7631 73.2899C86.4696 72.7558 86.0664 72.2975 85.7012 71.8143C85.2511 71.2359 84.5648 70.9303 83.9608 70.5477C83.3098 70.4994 82.6601 70.361 82.0065 70.4498C81.229 70.4707 80.518 70.8037 79.7731 70.9852C79.4391 71.074 79.0711 71.1053 78.8011 71.3468C78.7672 71.3481 78.698 71.3508 78.6641 71.3521C78.0118 71.4226 77.3726 71.6211 76.7634 71.8587C76.1332 71.9018 75.5657 72.193 74.9474 72.2831C74.5338 72.5795 73.9546 72.3954 73.5801 72.7545C73.2227 72.8355 72.7334 72.7153 72.5416 73.1188C72.4946 73.1188 72.402 73.1214 72.3564 73.1227C72.0119 73.1097 71.6323 73.0848 71.3857 73.3734C71.3414 73.3747 71.254 73.3786 71.2096 73.3799C70.9461 73.3891 70.6839 73.4022 70.4217 73.4257C69.9338 73.7587 69.284 73.6424 68.7779 73.9623C68.7283 73.9649 68.6317 73.9689 68.5822 73.9715C67.7916 74.0263 66.9997 74.0224 66.2091 73.9819C66.1426 73.9793 66.0108 73.9767 65.9456 73.9754C65.9286 73.9114 65.8947 73.7848 65.8791 73.7208C64.7089 73.6372 64.1178 72.4999 63.3507 71.7804L63.3455 71.749C63.3338 71.6798 63.3103 71.5414 63.2986 71.4709C63.1447 71.2189 63.0129 70.9551 62.8746 70.6953C62.8289 70.5425 62.7833 70.3897 62.7402 70.2383L62.6176 70.2996C62.5328 69.8779 62.3684 69.4809 62.1793 69.0957C62.1153 69.0591 61.9874 68.986 61.9222 68.9494L61.9117 68.8645C61.9104 68.4245 61.5113 68.1816 61.2217 67.9192C60.7586 67.4582 60.0423 67.6045 59.4683 67.7103C59.4279 67.7351 59.3457 67.7834 59.3052 67.8069C57.9967 68.5094 57.0131 69.6363 55.8546 70.5373C55.3393 70.929 54.8892 71.4004 54.3582 71.7726C53.6237 72.2779 52.9505 72.8851 52.126 73.2455C52.2278 73.2703 52.4299 73.3186 52.5317 73.3421C52.4273 73.376 52.323 73.4087 52.2186 73.4413C51.9224 73.5027 51.6394 73.6046 51.3589 73.7143C51.3263 73.7639 51.2598 73.8618 51.2259 73.9101C50.8593 74.0681 50.5083 74.2588 50.1561 74.4455C49.9278 74.5343 49.7021 74.627 49.4947 74.7589C49.3642 74.7941 49.2337 74.8294 49.1033 74.866C49.0641 74.9156 48.9872 75.0122 48.948 75.0618C48.6871 75.1323 48.4313 75.2289 48.2083 75.3856L48.1365 75.3869C47.8952 75.4144 47.6577 75.4849 47.4764 75.6546C47.4372 75.6612 47.3603 75.6742 47.3211 75.6807C47.0002 75.7147 46.7106 75.8557 46.408 75.9511C46.0101 76.0177 45.6056 76.0242 45.2064 76.0647C45.5182 76.1247 45.8313 76.1835 46.1457 76.2344C45.7674 76.2866 45.3851 76.2971 45.0042 76.2853C43.6526 76.2749 42.301 76.3075 40.9482 76.2736C40.5477 76.2775 40.1445 76.2932 39.7466 76.2396C40.0102 76.2527 40.2724 76.237 40.536 76.2188C40.2529 75.8492 39.748 75.9654 39.3475 75.8832C39.1244 75.733 38.8635 75.6625 38.6052 75.6037C37.8263 75.3752 37.161 74.8999 36.4135 74.6022C36.3378 74.5708 36.1878 74.5069 36.1134 74.4755C35.9255 74.3789 35.739 74.2771 35.5524 74.183C35.4559 74.1047 35.3593 74.0289 35.2614 73.9545C34.0573 73.0744 32.951 72.0376 32.0757 70.8285C31.7586 70.2591 31.3699 69.7355 30.9694 69.225C30.8572 69.0591 30.745 68.8959 30.6302 68.734C30.6067 68.6987 30.5584 68.6269 30.5349 68.5904C30.3836 68.3762 30.2284 68.166 30.0718 67.957C30.0496 67.8996 30.004 67.786 29.9818 67.7285C29.8539 67.5653 29.7457 67.3877 29.6609 67.201C29.52 67.0247 29.3778 66.851 29.2316 66.68C29.0333 66.2347 28.7333 65.8443 28.3889 65.5035C28.6394 64.9041 29.3034 64.6691 29.7731 64.2747C30.0353 64.0854 30.2818 63.8765 30.5088 63.6466C30.5728 63.6244 30.7006 63.58 30.7645 63.5578C31.1977 63.1975 31.6869 62.9128 32.1252 62.5589C32.2779 62.4466 32.4305 62.3369 32.5832 62.2259C32.6393 62.1946 32.7514 62.1332 32.8075 62.1032C33.4272 61.5482 34.1291 61.103 34.7905 60.6016C34.6992 60.5715 34.5191 60.5114 34.4291 60.4814C34.5556 60.4109 34.7005 60.3887 34.8387 60.3469C34.9783 60.198 35.1179 60.0505 35.2536 59.9003C35.2471 59.9904 35.2354 60.1706 35.2289 60.2594C35.3946 60.1289 35.5576 59.997 35.7194 59.8612C35.7833 59.8481 35.9125 59.8233 35.9764 59.8102C36.9914 58.9354 38.1447 58.2368 39.1988 57.4115C41.7258 55.5664 44.2671 53.7383 46.7928 51.892C46.1288 51.7588 45.4504 51.7823 44.7811 51.8423C44.7303 51.8998 44.6285 52.016 44.5789 52.0748C44.3624 52.093 44.1471 52.1087 43.9332 52.1335C42.4942 52.8491 41.1283 53.7096 39.8511 54.685C39.7884 54.6981 39.6619 54.7229 39.598 54.736C39.1179 55.1016 38.5686 55.3849 38.1602 55.8406L38.1368 55.8445C38.0572 55.855 37.8968 55.8746 37.8172 55.885C37.8146 55.9347 37.8107 56.0352 37.8081 56.0848C37.6019 56.1423 37.3906 56.2037 37.2445 56.3721C37.1897 56.3995 37.0801 56.4531 37.0253 56.4805C36.6874 56.7443 36.2869 56.9179 35.9673 57.2065C35.5224 57.4337 35.0906 57.7027 34.7684 58.0918C34.8297 58.0957 34.9522 58.1062 35.0136 58.1101C34.947 58.1453 34.8113 58.2145 34.7448 58.2485C34.63 58.3268 34.5191 58.4235 34.373 58.4326L34.1108 58.4287C33.6099 58.6572 33.2054 59.0437 32.7241 59.3075C32.3118 59.536 31.9282 59.8115 31.5877 60.138C31.5564 60.1484 31.4951 60.1693 31.4637 60.1811C30.7149 60.5402 30.0535 61.0664 29.3504 61.5091C29.3125 61.5352 29.2356 61.5848 29.1977 61.6109C28.6563 61.9243 28.1032 62.2312 27.6387 62.6582C27.0504 62.9193 26.5703 63.3633 25.9897 63.6414C25.9819 62.7352 26.0549 61.829 26.0028 60.9228C25.9506 60.1275 26.0549 59.3219 25.8893 58.5358C25.6492 57.0315 25.841 55.4933 25.5253 54.0021C25.4966 53.9473 25.4378 53.8376 25.4091 53.784C25.4 53.6273 25.3961 53.4706 25.3961 53.3165C25.3961 52.6898 25.4287 52.033 25.173 51.4467C25.1508 51.2821 25.1325 51.1189 25.1169 50.957C25.0895 50.5548 25.0687 50.1539 25.0478 49.7531C25.0713 49.6199 25.0948 49.488 25.1182 49.3561C25.0374 49.2242 24.9552 49.0923 24.8808 48.9565C24.8625 48.4878 24.8482 48.0138 24.6812 47.5698C24.4933 47.0514 24.6264 46.4808 24.4399 45.9624C24.1972 45.3186 24.368 44.5795 23.978 43.9828C23.9767 43.9358 23.9741 43.8431 23.9714 43.7961C23.9806 43.3756 23.9336 42.9486 23.734 42.5725C23.7288 42.4981 23.7197 42.3506 23.7144 42.2761C23.7092 41.8935 23.6558 41.5136 23.524 41.1545C23.267 39.5888 22.8548 38.0519 22.5117 36.5006C22.3108 35.7263 22.0329 34.965 21.9533 34.1659C21.9442 33.9818 21.8698 33.8146 21.7511 33.6762C21.7119 33.4373 21.6754 33.1983 21.6402 32.9594C21.5854 32.9032 21.4771 32.7909 21.4223 32.7348C21.4054 32.5128 21.3871 32.2908 21.3636 32.0701C21.0805 31.5138 21.014 30.8779 20.7413 30.3151C20.3708 29.281 20.1321 28.1932 19.6168 27.2152C19.2358 26.5336 18.9866 25.6704 18.2599 25.2735C18.1412 24.7929 17.7942 24.4247 17.3676 24.1975C17.3533 24.5932 17.3794 24.9914 17.5007 25.3714C17.7342 26.0504 17.5463 26.8182 17.9168 27.4581C17.9194 27.4946 17.9259 27.5677 17.9299 27.6043C17.9807 28.1149 17.9325 28.6568 18.1738 29.1268C18.2051 29.2783 18.2364 29.4298 18.2599 29.5839C18.2469 29.8542 18.2326 30.1258 18.2365 30.3974C18.2169 30.6742 18.2561 30.9563 18.4883 31.1378C18.5052 31.3807 18.4974 31.6235 18.4922 31.8677C18.4609 32.2986 18.4387 32.7935 18.8092 33.0965C18.8079 33.3994 18.8053 33.7023 18.7949 34.0053C18.7544 34.3814 18.8483 34.747 18.9684 35.1008C19.1432 35.631 18.8457 36.3283 19.3727 36.7096C19.374 36.7553 19.3793 36.8454 19.3806 36.8898C19.4001 37.275 19.4289 37.6602 19.4537 38.0467L19.648 37.9853C19.6741 38.2582 19.6858 38.5337 19.6754 38.8093C19.6454 39.2846 19.6833 39.7599 19.7276 40.2326L19.9207 40.179C19.9403 40.7275 19.8894 41.289 20.0473 41.823C20.3304 42.5817 20.1307 43.433 20.5286 44.1617C20.5299 44.1826 20.5312 44.2244 20.5325 44.2452C20.5469 44.714 20.5769 45.1854 20.6852 45.6425C20.71 45.6934 20.7582 45.7939 20.7817 45.8448C20.7856 45.901 20.7921 46.0133 20.7947 46.0694C20.8143 46.4664 20.787 46.8764 20.9383 47.2525C21.2084 47.8962 20.9918 48.6157 21.2123 49.2699C21.4732 50.0012 21.2932 50.8108 21.6298 51.525C21.6141 52.4613 21.9924 53.3401 21.9833 54.2763L22.0629 54.3547C22.1085 54.3965 22.1985 54.48 22.2429 54.5218C22.2546 54.7803 22.2572 55.0389 22.2624 55.2987C22.2729 55.6748 22.3042 56.0496 22.3225 56.4269C22.3251 56.4648 22.329 56.5406 22.3316 56.5797C22.3812 56.7116 22.4373 56.8422 22.4934 56.9728C22.5443 57.3867 22.5469 57.8032 22.5612 58.2198C22.5691 58.4823 22.6786 58.7199 22.8 58.9471C22.8391 59.348 22.8535 59.7515 22.8913 60.1524C22.967 60.0596 23.0439 59.9682 23.1195 59.8768C23.1274 60.1471 23.1287 60.4174 23.1195 60.689C23.0882 61.1761 23.0726 61.6814 23.2566 62.145C23.5214 62.7378 23.2422 63.4651 23.6688 63.9992C23.6701 64.0371 23.6727 64.1141 23.674 64.152C23.6896 64.5215 23.6936 64.8897 23.6962 65.2606C22.5873 65.9357 21.5528 66.7218 20.4674 67.4295C19.9442 67.7703 19.3662 68.0406 18.9279 68.495C18.8796 68.5094 18.7804 68.5368 18.7322 68.5512C18.7035 68.5603 18.6461 68.5773 18.6174 68.5864C17.5777 69.2654 16.5288 69.9497 15.6808 70.8703C15.6717 71.0975 15.6547 71.326 15.6403 71.5558C15.8334 71.5832 16.0264 71.6171 16.2208 71.6433C16.3852 71.6589 16.5509 71.6759 16.7153 71.6903C16.6253 71.702 16.4453 71.7255 16.3553 71.7373C16.4805 71.8209 16.6071 71.9031 16.7349 71.9854C16.7753 72.0402 16.8562 72.1499 16.8967 72.2048C17.2215 72.2426 17.5777 72.2178 17.8295 72.4659C18.4374 72.5404 19.108 72.6291 19.6611 72.2962C20.2286 72.0207 20.7713 71.6655 21.1692 71.1667C21.2149 71.1327 21.3075 71.0648 21.3532 71.0296C21.5136 70.8507 21.6727 70.6718 21.8449 70.5033L21.8671 70.4863C21.9467 70.4524 22.1046 70.3845 22.1829 70.3505C22.8235 69.8348 23.3623 69.1688 24.1254 68.8254C24.3159 68.7353 24.5037 68.6386 24.6772 68.5198C24.8103 68.5172 24.9434 68.5159 25.0764 68.5159C25.5604 68.8084 26.0797 69.0813 26.4059 69.5632C27.0908 70.502 27.6805 71.5088 28.3563 72.4542C28.9459 73.0966 29.5291 73.7534 30.197 74.3175C30.7685 74.9051 31.3816 75.4483 31.9739 76.0151C32.1539 76.2096 32.3992 76.3102 32.6393 76.4081L32.5936 76.5047C32.7071 76.587 32.8193 76.6706 32.9315 76.7567C33.3098 77.1028 33.7938 77.3104 34.1448 77.6891C34.1708 77.6838 34.2243 77.6734 34.2504 77.6682L34.3756 77.6943C34.9053 78.0638 35.4389 78.5078 36.1068 78.5731C36.1473 78.5783 36.2281 78.5874 36.2699 78.5913C36.5712 78.9348 37.0657 78.9726 37.4714 79.1306C37.8263 79.1463 38.1837 79.1411 38.5386 79.1685C38.2463 79.1502 37.9359 79.1463 37.7246 79.3814C38.5543 79.35 39.3005 79.7992 40.1289 79.7352C41.5588 79.6791 42.9938 79.7783 44.4224 79.6987C44.4602 79.6256 44.5332 79.4806 44.571 79.4088C44.6637 79.4009 44.7563 79.397 44.8502 79.3957C45.2142 79.4166 45.5822 79.4127 45.9396 79.3265C45.6826 79.2756 45.4256 79.2351 45.1685 79.2038C45.5469 79.1006 45.9422 79.1254 46.3296 79.1385C46.8593 79.1894 47.3395 78.9348 47.8274 78.7768C48.1614 78.6606 48.4888 78.5235 48.811 78.3785C49.3355 78.2479 49.826 78.0207 50.3126 77.7909C51.6003 77.2177 52.8566 76.5609 54.0294 75.7761C55.7254 74.8581 57.2244 73.6281 58.8251 72.5599C58.9569 72.5665 59.09 72.5756 59.223 72.5848C59.5896 73.504 60.1637 74.3097 60.7011 75.1323C61.0482 75.5881 61.4917 75.955 61.8727 76.382C62.0631 76.6053 62.3202 76.7515 62.5863 76.869C62.6228 76.8912 62.6959 76.9343 62.7324 76.9552C63.3834 77.3874 64.0918 77.7831 64.8967 77.7896L64.838 77.9633C65.5608 78.0155 66.2848 77.9855 67.0076 77.9985C67.5581 77.9842 68.1204 78.0469 68.6618 77.9202C68.7127 77.8719 68.8157 77.7765 68.8666 77.7282C68.9292 77.7269 69.0518 77.723 69.1131 77.7217C69.3675 77.7099 69.6233 77.6943 69.8803 77.6773C69.926 77.612 70.0172 77.484 70.0629 77.4187C70.0916 77.4187 70.1477 77.4161 70.1764 77.4161C70.8078 77.3913 71.3989 77.1393 71.9859 76.9265C72.513 76.7633 73.0335 76.5661 73.588 76.51L73.5475 76.3519C73.8541 76.3141 74.162 76.2788 74.4699 76.2436C74.5234 76.1926 74.629 76.0908 74.6812 76.0399C75.3674 75.9432 76.0315 75.7199 76.6733 75.464C77.2969 75.4092 77.8801 75.1689 78.4919 75.0527C78.8246 74.8163 79.2369 74.8216 79.6269 74.7772C79.9961 74.5252 80.4554 74.5317 80.882 74.4742C81.4142 74.4207 81.983 74.3698 82.4801 74.6113C82.8284 74.8255 83.075 75.1663 83.2955 75.5032C83.6047 75.9902 83.9504 76.4669 84.1122 77.0297C84.1617 77.0623 84.2635 77.125 84.3131 77.1576C84.3496 77.3391 84.3887 77.5232 84.4292 77.706C84.5022 77.6055 84.5739 77.5036 84.6457 77.4031C84.6952 77.5389 84.8061 77.6355 84.9105 77.7347C84.9262 77.8993 84.9392 78.0651 84.9509 78.2323L84.8388 78.1409C84.8362 78.0599 84.8323 77.8967 84.8297 77.8157C84.7762 77.7961 84.6679 77.7557 84.6144 77.7348C84.6823 78.12 84.951 78.4112 85.1702 78.718C85.5994 79.2952 86.0782 79.8802 86.7474 80.1844C87.8198 80.6885 89.0279 80.4182 90.142 80.2354C90.6338 80.0996 91.1674 80.0486 91.6097 79.777C91.9958 79.7261 92.4172 79.7509 92.7525 79.5172C93.0147 79.4715 93.2809 79.4323 93.547 79.3957L93.5 79.2168C94.4485 79.1463 95.3239 78.7298 96.2253 78.4582C96.271 78.4255 96.3636 78.3602 96.4105 78.3263L96.4432 78.3054C96.6506 78.2649 96.8594 78.2323 97.0707 78.2062C97.0877 78.2049 97.1216 78.2022 97.1386 78.2009C97.4569 77.9489 97.8965 78.0325 98.2344 77.8223C98.5906 77.7439 98.9819 77.7099 99.2533 77.4331L99.2611 77.4318C99.6212 77.4423 99.963 77.3247 100.275 77.1498C100.32 77.1498 100.413 77.1485 100.459 77.1471C100.549 77.1406 100.729 77.125 100.819 77.1171C101.321 76.98 101.821 76.822 102.347 76.8064C102.429 76.7306 102.512 76.6562 102.597 76.5818C102.82 76.587 103.043 76.5948 103.269 76.5883C103.755 76.5739 104.243 76.5426 104.733 76.5452C104.802 76.5491 104.94 76.5556 105.009 76.5596C105.431 76.9761 105.797 77.4462 106.207 77.8758L106.26 77.9345C106.247 77.9907 106.222 78.1004 106.209 78.1565C106.35 78.3263 106.456 78.5222 106.546 78.7259C106.687 79.0053 106.838 79.2808 107.004 79.5485C107.04 79.6647 107.081 79.7822 107.121 79.9011C107.342 80.1844 107.535 80.49 107.691 80.8151C108.023 81.2251 108.396 81.5986 108.769 81.972C108.937 82.1379 109.136 82.2828 109.373 82.3338C110.1 82.6027 110.869 82.5897 111.633 82.5858C111.826 82.638 112.191 82.6263 112.141 82.3351C112.426 82.3311 112.71 82.305 112.996 82.2802C113.042 82.2241 113.134 82.1131 113.18 82.0569C113.544 82.0373 113.957 82.0752 114.254 81.8154C114.816 81.7057 115.325 81.421 115.892 81.327C115.81 81.6691 115.725 82.0138 115.699 82.3664C115.695 82.4265 115.686 82.5453 115.682 82.6041C115.479 82.5675 115.386 82.6589 115.4 82.8783C115.39 83.0702 115.376 83.2622 115.364 83.4554C115.304 83.4959 115.184 83.5782 115.124 83.62C115.117 83.7166 115.105 83.9098 115.1 84.0065C115.04 84.0208 114.922 84.0509 114.862 84.0652C114.727 84.4308 114.571 84.7886 114.423 85.149C114.329 85.3253 114.234 85.5003 114.14 85.6779C114.079 85.8437 114.021 86.0108 113.981 86.1845C113.973 86.2132 113.957 86.2681 113.95 86.2968C113.815 86.3843 113.676 86.477 113.62 86.6376C113.312 87.2618 113.012 87.8899 112.714 88.5193C112.277 89.2596 111.792 89.9804 111.438 90.7665C111.417 90.8344 111.377 90.9715 111.356 91.0407C111.342 91.0695 111.312 91.1269 111.297 91.1556C111.16 91.3176 111.081 91.5121 111.009 91.7093C110.959 91.7472 110.859 91.8216 110.809 91.8595C110.783 91.9887 110.759 92.1193 110.735 92.2512C110.513 92.4432 110.319 92.6638 110.149 92.9015C110.016 93.1457 109.879 93.3912 109.701 93.6053C109.687 93.6327 109.66 93.6889 109.646 93.7176C109.12 94.1576 108.752 94.7583 108.472 95.3773C108.265 95.6906 108.066 96.0093 107.841 96.3109C107.625 96.512 107.437 96.7431 107.282 96.9951C107.248 97.0003 107.179 97.0095 107.144 97.0134C107.052 97.2367 106.97 97.4783 106.765 97.6258C106.759 97.6754 106.746 97.7747 106.739 97.8243C106.69 97.8256 106.589 97.8295 106.539 97.8308C106.408 98.0332 106.273 98.2343 106.146 98.4393C106.092 98.4432 105.986 98.4485 105.933 98.4524C105.93 98.5033 105.925 98.6065 105.922 98.6587C105.664 98.7514 105.611 99.0243 105.521 99.2489C105.467 99.2502 105.358 99.2502 105.303 99.2502C105.305 99.3207 105.309 99.4618 105.312 99.5323C105.262 99.5362 105.163 99.5453 105.114 99.5492C105.018 99.6759 104.924 99.8052 104.829 99.9318C104.73 100.018 104.633 100.106 104.537 100.194C104.33 100.466 104.099 100.718 103.847 100.949C103.735 101.064 103.628 101.184 103.527 101.309C103.48 101.316 103.386 101.329 103.339 101.336C103.341 101.403 103.342 101.538 103.342 101.606C103.291 101.61 103.188 101.618 103.137 101.623C103.044 101.752 102.953 101.883 102.859 102.013C102.764 102.102 102.67 102.193 102.577 102.285C102.367 102.479 102.153 102.669 101.929 102.846C101.923 102.896 101.911 102.997 101.904 103.047C101.857 103.053 101.762 103.064 101.715 103.071C101.356 103.504 100.918 103.861 100.534 104.271C100.425 104.348 100.315 104.425 100.207 104.503C100.063 104.672 99.9187 104.842 99.7817 105.017C99.7256 105.019 99.6134 105.024 99.5573 105.026C99.5573 105.075 99.5586 105.175 99.5586 105.224C99.2846 105.364 99.0276 105.53 98.7719 105.696C98.7667 105.75 98.7563 105.858 98.751 105.912C98.6989 105.912 98.5932 105.914 98.541 105.915C98.3949 106.095 98.2422 106.271 98.0935 106.452C98.0544 106.462 97.9735 106.486 97.9344 106.497C97.7922 106.7 97.5612 106.785 97.3434 106.872C97.3408 106.922 97.3343 107.02 97.3316 107.069C97.2782 107.073 97.1725 107.082 97.1203 107.088C97.0955 107.118 97.0459 107.178 97.0212 107.206C96.6089 107.342 96.2006 107.545 96.0205 107.969C95.9866 107.982 95.9201 108.006 95.8861 108.017C95.8835 108.05 95.8783 108.114 95.8757 108.145C95.607 108.285 95.3747 108.482 95.1712 108.705C94.8412 108.835 94.5489 109.037 94.3011 109.29C94.1954 109.344 94.091 109.399 93.9867 109.455C93.8484 109.545 93.7062 109.633 93.5666 109.72C93.5209 109.776 93.4283 109.886 93.3826 109.942C93.2939 109.949 93.1191 109.962 93.0304 109.968C93.0252 110.014 93.0134 110.105 93.0082 110.151C92.8608 110.236 92.7186 110.329 92.5777 110.421C92.4003 110.526 92.2268 110.631 92.0545 110.742L91.9776 110.783C91.3501 111.065 90.6756 111.369 90.2294 111.91C90.0494 111.966 89.8837 112.057 89.735 112.171C89.598 112.221 89.4623 112.27 89.3305 112.325C89.1857 112.521 88.9339 112.541 88.7187 112.603C88.7187 112.652 88.7213 112.751 88.7213 112.8C88.6195 112.807 88.4147 112.82 88.313 112.826C88.3208 112.887 88.3377 113.009 88.3456 113.069C88.1799 113.081 88.0155 113.093 87.8511 113.107C87.8107 113.162 87.7311 113.273 87.692 113.328C87.4793 113.381 87.2315 113.4 87.1153 113.615C86.9979 113.636 86.8831 113.66 86.7696 113.687C86.5909 113.722 86.4239 113.784 86.2569 113.852C85.4089 114.318 84.4774 114.618 83.6608 115.14C83.6125 115.14 83.5173 115.138 83.469 115.138C83.2498 115.117 83.165 115.208 83.2146 115.412C83.1637 115.412 83.0633 115.412 83.0137 115.412C82.364 115.437 81.8161 115.825 81.2225 116.041C80.8885 116.193 80.488 116.241 80.2427 116.54C80.2114 116.543 80.1501 116.548 80.1201 116.551C79.85 116.552 79.5813 116.595 79.3478 116.735C78.8194 116.884 78.3067 117.096 77.7588 117.17C77.7627 117.227 77.7705 117.344 77.7744 117.402C77.1821 117.282 76.6185 117.518 76.0641 117.689C75.888 117.722 75.7653 117.847 75.6636 117.987C75.5162 117.995 75.37 118 75.2252 118.008C74.9526 118.01 74.6082 117.954 74.4907 118.277C74.1568 118.298 73.8241 118.323 73.4914 118.347C73.4901 118.396 73.4888 118.492 73.4875 118.541C73.2409 118.565 72.9957 118.594 72.753 118.64C72.1712 118.868 71.5411 118.864 70.9383 119C70.6722 119.15 70.3617 119.136 70.0682 119.144C69.7159 119.173 69.2437 119.041 69.0271 119.41C68.7531 119.406 68.4792 119.417 68.2065 119.425C68.0513 119.426 67.8973 119.429 67.7447 119.431C67.5294 119.426 67.3168 119.421 67.1028 119.418C66.7558 119.405 66.3944 119.43 66.1309 119.682C65.6873 119.713 65.2438 119.721 64.8002 119.722C64.4571 119.724 64.1153 119.728 63.7748 119.716C63.2921 119.695 62.7846 119.607 62.3332 119.828C61.8361 120.064 61.2778 119.987 60.7481 119.99C59.8336 119.976 58.9191 120.011 58.0072 119.985C57.7815 120.016 57.6223 119.869 57.5075 119.698C57.0731 119.669 56.6373 119.679 56.2068 119.734C55.3562 119.769 54.5069 119.695 53.6576 119.694C53.5611 119.415 53.2767 119.429 53.0366 119.423C52.7927 119.423 52.5487 119.431 52.3061 119.439C52.1339 119.438 51.963 119.438 51.792 119.438C51.3798 119.392 50.918 119.481 50.5527 119.243C50.2187 119.197 49.8847 119.166 49.5507 119.14C49.1476 118.986 48.7367 118.814 48.2944 118.851C48.164 118.85 48.0335 118.85 47.9043 118.851C47.3564 118.543 46.7198 118.513 46.1314 118.324C45.6187 118.255 45.1334 118.069 44.622 118C44.5607 117.997 44.438 117.99 44.3767 117.986C44.245 117.88 44.121 117.756 43.9501 117.724C42.9925 117.504 42.0806 117.129 41.127 116.895C41.0774 116.886 40.9769 116.868 40.9274 116.859C40.7264 116.844 40.5255 116.834 40.3259 116.829C40.3299 116.773 40.3377 116.662 40.3416 116.605C40.0715 116.586 39.8028 116.569 39.5367 116.535C39.5001 116.467 39.4284 116.333 39.3932 116.265C39.2418 116.259 39.0905 116.255 38.9405 116.252C38.8909 116.197 38.793 116.086 38.7448 116.031C37.9738 115.836 37.251 115.499 36.5165 115.206C36.4513 115.189 36.3221 115.155 36.2569 115.136C36.1264 115.105 35.9973 115.076 35.8681 115.052C35.8303 114.995 35.7546 114.883 35.7168 114.827C35.5537 114.816 35.392 114.809 35.2302 114.802C35.1963 114.745 35.1271 114.632 35.0932 114.575C34.8727 114.533 34.617 114.523 34.51 114.289C34.3718 114.271 34.2348 114.256 34.0965 114.243C34.06 114.19 33.9869 114.084 33.9504 114.03C33.7377 113.968 33.5212 113.908 33.3529 113.759C33.0815 113.675 32.8102 113.593 32.5558 113.466C32.4227 113.353 32.2909 113.243 32.1605 113.131C32.0117 113.111 31.8643 113.094 31.7182 113.079C31.7182 113.012 31.7182 112.877 31.7182 112.81C31.6634 112.815 31.5525 112.826 31.4977 112.832C31.5799 112.594 31.2981 112.45 31.105 112.537C30.5167 112.443 30.0561 111.991 29.5408 111.715C29.4795 111.69 29.3556 111.64 29.293 111.615C29.1638 111.509 29.0346 111.404 28.9042 111.304C28.6576 111.162 28.4045 111.03 28.1632 110.88C28.0484 110.831 27.9349 110.784 27.8214 110.739C27.5591 110.502 27.2591 110.318 26.9538 110.146C26.8508 110.07 26.749 109.997 26.6446 109.929C26.4124 109.548 25.9949 109.361 25.6401 109.119C25.2239 108.862 24.8495 108.546 24.4594 108.252C24.3811 108.234 24.2233 108.195 24.145 108.177C24.1202 108.169 24.0707 108.154 24.0459 108.147C23.7823 107.878 23.5084 107.61 23.1653 107.444C23.1483 107.359 23.1131 107.188 23.0961 107.103C22.8796 106.995 22.6643 106.886 22.436 106.808C22.3812 106.791 22.2729 106.758 22.2181 106.743C22.2194 106.704 22.2194 106.627 22.2207 106.587C21.9689 106.436 21.725 106.273 21.4784 106.113C21.1979 105.813 20.8966 105.535 20.573 105.283C20.3865 105.115 20.2051 104.943 20.0264 104.768C19.9664 104.749 19.8477 104.71 19.7877 104.69C19.3937 104.202 18.9058 103.806 18.4518 103.379C18.1778 103.088 17.9012 102.799 17.6142 102.52C17.5033 102.406 17.3937 102.29 17.2867 102.174C17.2398 102.165 17.1445 102.146 17.0976 102.137C17.0898 102.092 17.0741 101.998 17.0663 101.951C16.5731 101.542 16.1987 101.01 15.6912 100.617C15.6847 100.565 15.6704 100.462 15.6638 100.41C15.6038 100.412 15.4825 100.418 15.4212 100.419C15.3716 100.243 15.3207 100.068 15.2711 99.894C15.215 99.8966 15.1002 99.9005 15.0441 99.9031C15.0363 99.8509 15.0233 99.7451 15.0167 99.6916C14.7532 99.4552 14.5145 99.1941 14.277 98.9355C14.0931 98.7266 13.9091 98.519 13.7304 98.3087C13.7187 98.2866 13.6952 98.2421 13.6834 98.2199C13.2686 97.3751 12.5341 96.7483 12.0279 95.9636C11.8401 95.6515 11.6117 95.3616 11.3039 95.1605C11.129 94.8824 10.9673 94.5938 10.7546 94.3444C10.7468 94.2934 10.7298 94.1929 10.722 94.1433C10.6764 94.1394 10.585 94.1302 10.5394 94.1263C10.4637 93.9579 10.358 93.8103 10.2184 93.6915C10.2067 93.6236 10.1832 93.4891 10.1702 93.4212C10.1206 93.3755 10.0201 93.2841 9.96926 93.2371C9.87011 93.1013 9.76966 92.9668 9.66529 92.8375C9.62485 92.7148 9.5844 92.5946 9.54526 92.4745C9.46568 92.4001 9.38871 92.3243 9.31174 92.2486C9.2987 92.165 9.26999 91.9966 9.25564 91.9117C8.7899 91.2823 8.44158 90.5772 7.9941 89.936C7.83494 89.6292 7.67969 89.3197 7.53097 89.0076C7.27135 88.6094 7.04957 88.1889 6.82127 87.7737C6.72603 87.5595 6.62949 87.3493 6.52382 87.143C6.46641 86.9693 6.40771 86.7969 6.35031 86.6246C6.31378 86.7264 6.27725 86.8283 6.24072 86.9327C6.16636 86.682 6.07895 86.4326 5.90805 86.2328C5.88848 86.0983 5.86891 85.9651 5.84934 85.8333C5.78933 85.8019 5.668 85.7392 5.60799 85.7079C5.59625 85.5225 5.5832 85.3384 5.57146 85.1543C5.51928 85.1595 5.41752 85.1673 5.36533 85.1712C5.29097 84.8644 5.30271 84.4948 5.02875 84.2846C5.00527 84.1462 4.98178 84.0078 4.9596 83.8707C4.89829 83.8276 4.77435 83.7427 4.71304 83.7009C4.71304 83.6095 4.71564 83.428 4.71695 83.3379C4.62693 83.2361 4.53691 83.1355 4.4469 83.0363C4.43777 82.8717 4.42863 82.7085 4.42081 82.5466C4.36471 82.5479 4.25382 82.5505 4.19902 82.5518C4.1364 82.1666 4.11031 81.7579 3.88723 81.4249C3.852 81.2917 3.81808 81.1612 3.78286 81.0306C3.5963 80.8269 3.55586 80.5553 3.52324 80.2928C3.46584 80.2549 3.35234 80.1792 3.29494 80.1413C3.2845 79.9076 3.27276 79.6752 3.27015 79.4427C3.27667 79.3905 3.28842 79.286 3.29363 79.2338C3.20883 79.1398 3.12273 79.0471 3.03793 78.9557C3.02619 78.7494 3.01445 78.5457 3.00401 78.342C2.93096 78.325 2.78354 78.2884 2.71048 78.2701C2.68047 77.9555 2.687 77.599 2.43782 77.3665C2.42738 77.219 2.41825 77.074 2.41173 76.9291C2.4039 76.6405 2.45347 76.288 2.12471 76.1535C2.12863 76.0921 2.13776 75.9707 2.14298 75.9106C2.2069 75.7056 2.14428 75.3609 1.85858 75.4353C1.86379 75.0723 1.82727 74.6988 1.59374 74.405C1.57809 74.1922 1.56504 73.9806 1.55852 73.7704C1.58592 73.3904 1.4959 73.0235 1.2702 72.7166C1.25977 72.6735 1.23889 72.5887 1.22976 72.5456C0.980582 72.1369 1.03929 71.6341 0.992323 71.1771C0.940139 70.7501 1.13844 70.1521 0.692266 69.8857C0.702703 69.3764 0.581375 68.8802 0.440478 68.3945C0.419605 68.0589 0.409168 67.722 0.40134 67.3864C0.411777 66.6852 0.277404 65.9944 0.123461 65.3141C0.120852 65.0256 0.119547 64.7357 0.119547 64.4484C0.118243 64.0632 0.116938 63.6806 0.118243 63.2967C0.175645 62.4127 -0.00830314 61.5404 0.000829046 60.659C0.026921 59.7476 -0.0526595 58.8309 0.0764957 57.9247C0.140421 57.4037 0.109111 56.8801 0.123461 56.3577C0.15999 55.7492 0.17695 55.1407 0.173036 54.5322C0.227829 54.4774 0.340024 54.369 0.394818 54.3155C0.427432 53.7357 0.436565 53.156 0.439174 52.5762C0.427432 52.0356 0.736622 51.5511 0.706616 51.0079C0.71053 50.7298 0.714444 50.4517 0.726185 50.1748C0.979277 50.0051 0.97145 49.7074 0.964927 49.4371C0.970145 49.2255 0.96884 49.014 0.972754 48.8038C0.980582 48.6627 0.992323 48.523 1.00537 48.3846C1.24281 48.0503 1.19323 47.6207 1.23628 47.2355C1.57939 46.5826 1.60418 45.8344 1.82857 45.1423C1.97469 44.2361 2.4052 43.3926 2.45608 42.472C2.46391 42.3323 2.47174 42.1913 2.47956 42.0515C2.5187 42.0529 2.59698 42.0568 2.63612 42.0581C2.70917 41.4848 3.03141 40.9769 3.04185 40.3919C3.09012 40.371 3.18796 40.3305 3.23623 40.3109C3.46714 39.8343 3.66936 39.3394 3.78808 38.8223C3.84026 38.5494 3.88201 38.2765 3.92245 38.0023C3.96159 38.0062 4.03986 38.0141 4.079 38.0193C4.10118 37.8312 4.12858 37.6445 4.15858 37.4578C4.2199 37.4421 4.34253 37.4082 4.40385 37.3912C4.62302 36.5921 5.01048 35.8582 5.31445 35.0917C5.31054 35.0199 5.30271 34.8776 5.2988 34.807C5.4971 34.8397 5.59103 34.7509 5.5819 34.5381C5.58842 34.3853 5.59625 34.2338 5.60538 34.0823C5.668 34.0419 5.79455 33.9622 5.85717 33.9217C5.87282 33.7846 5.88848 33.6488 5.90544 33.513C6.11548 33.3981 6.15983 33.1735 6.2081 32.9607C6.25768 32.9241 6.35683 32.8497 6.4051 32.8131C6.44815 32.6264 6.4912 32.441 6.53425 32.2555C6.57731 32.2581 6.66471 32.2647 6.70777 32.2673C6.73386 32.108 6.75864 31.95 6.78604 31.792C6.86301 31.6888 6.93868 31.5844 7.01304 31.4786C7.08218 31.4394 7.21786 31.3598 7.2857 31.3206C7.31571 31.1913 7.34571 31.062 7.37572 30.9341C7.58576 30.6129 7.79971 30.2877 7.91843 29.9195C7.93539 29.8712 7.96931 29.7732 7.98758 29.7249C8.14152 29.5552 8.18979 29.328 8.26024 29.1164C8.30851 29.119 8.40766 29.1243 8.45593 29.1269C8.45593 29.0342 8.45593 28.85 8.45593 28.7573C8.51333 28.7508 8.62813 28.7391 8.68554 28.7325C8.75468 28.5223 8.83556 28.3147 8.93602 28.1162C9.03386 27.9961 9.1304 27.8759 9.22564 27.7545C9.31435 27.573 9.39785 27.3836 9.56353 27.2583C9.60397 27.1042 9.64441 26.9501 9.68355 26.796C9.71878 26.7921 9.79053 26.783 9.82706 26.7791C9.97187 26.5088 10.1623 26.2698 10.3737 26.0491C10.4715 25.8768 10.5668 25.7031 10.6698 25.5333C10.7781 25.3597 10.8864 25.186 10.996 25.0136C11.343 24.5958 11.6796 24.1675 11.9653 23.7052C12.0083 23.6674 12.0958 23.5916 12.1388 23.5551C12.6528 23.0497 13.039 22.4334 13.5165 21.8967C13.7761 21.5873 14.1114 21.3091 14.2014 20.8952C14.2131 20.8599 14.2379 20.7868 14.2496 20.7503C14.2953 20.7476 14.3853 20.7411 14.431 20.7385C14.5614 20.5426 14.6984 20.352 14.8328 20.16C14.8706 20.1535 14.9476 20.1418 14.9854 20.1365C15.1381 19.8427 15.3716 19.6064 15.6221 19.3948C15.643 19.3322 15.686 19.2055 15.7082 19.1428C16.1348 18.7772 16.5183 18.3672 16.8941 17.952C17.3037 17.5654 17.7407 17.2011 18.0721 16.7428C18.1204 16.7363 18.2169 16.7245 18.2665 16.7193C18.2639 16.6527 18.2613 16.5195 18.26 16.4542C18.3096 16.4477 18.4087 16.4372 18.4583 16.432C18.6814 16.1552 18.9501 15.9201 19.2528 15.7373C19.6337 15.3404 20.0316 14.9591 20.47 14.6235C20.6174 14.4668 20.77 14.3153 20.9161 14.1573C20.9435 14.1443 20.9996 14.1169 21.027 14.1038C21.4315 13.9406 21.7446 13.6311 22.0603 13.3412C22.5273 12.8946 23.1418 12.623 23.5384 12.0981C23.8176 11.8148 24.1372 11.568 24.5194 11.44C24.526 11.4047 24.5377 11.3342 24.5442 11.299C24.7543 11.1645 24.9604 11.0261 25.1717 10.8955C25.177 10.8641 25.1887 10.8015 25.1939 10.7701C25.4053 10.6748 25.6114 10.5651 25.8045 10.4345C25.9923 10.351 26.1867 10.2674 26.3159 10.0963C26.3485 10.0846 26.4124 10.0611 26.445 10.0493C26.7177 9.70722 27.126 9.52963 27.4926 9.31026C27.6126 9.21755 27.7327 9.12222 27.8514 9.0269C27.9805 8.98381 28.111 8.94202 28.2401 8.90024C28.2689 8.84801 28.3236 8.74224 28.3523 8.69001C28.5533 8.63778 28.7698 8.5973 28.9238 8.44452C29.0451 8.34789 29.1703 8.25518 29.2969 8.16247C29.4665 8.06323 29.6335 7.95746 29.7874 7.83472C29.9544 7.79163 30.1214 7.74984 30.2884 7.71067C30.2858 7.65844 30.2805 7.55397 30.2766 7.50174C30.4541 7.48346 30.6315 7.46649 30.8089 7.44951C30.8089 7.39075 30.8089 7.27192 30.8102 7.21186C30.9094 7.20794 31.1077 7.1988 31.2068 7.19488C31.2029 7.13351 31.1951 7.01338 31.1911 6.95331C31.349 6.94025 31.5069 6.9272 31.666 6.91414C31.7078 6.85146 31.79 6.72349 31.8317 6.66082C31.8904 6.6569 32.0078 6.65037 32.0665 6.64776C32.287 6.65559 32.3705 6.55897 32.317 6.35918C32.4931 6.35787 32.6693 6.35787 32.8454 6.35918C33.0385 6.41402 33.3059 6.25733 33.2081 6.03404C33.2563 6.03273 33.3542 6.03012 33.4037 6.03012C33.4481 5.97789 33.5381 5.87604 33.5838 5.82511C33.799 5.77288 34.0234 5.72065 34.1356 5.5065C34.2739 5.49344 34.4122 5.48169 34.5518 5.46994C34.5896 5.40987 34.6679 5.28974 34.707 5.22837C34.8819 5.21139 35.058 5.19442 35.2341 5.17744C35.2302 5.12391 35.2237 5.01683 35.2197 4.96199C35.3763 4.95285 35.5342 4.9411 35.692 4.92804C35.8629 4.88103 36.026 4.80921 36.1812 4.72564C36.3613 4.66557 36.5426 4.60943 36.7213 4.54152C36.7474 4.52194 36.7996 4.48276 36.8244 4.46448C37.4402 4.23597 38.0729 4.05055 38.6769 3.7907C38.8374 3.73324 38.9378 3.59222 39.0527 3.4747C39.2118 3.46033 39.3723 3.44728 39.534 3.43552C39.5314 3.39243 39.5249 3.30625 39.5223 3.26316C39.8954 3.15478 40.4029 3.26708 40.656 2.9106C40.746 2.90668 40.9234 2.90015 41.0122 2.89623C41.2261 2.88318 41.4257 2.80875 41.6201 2.72387C42.1354 2.58937 42.6403 2.42093 43.1478 2.2564C43.1073 2.22114 43.0278 2.15324 42.9886 2.11929C43.1426 2.08665 43.2978 2.054 43.4544 2.02136C43.654 2.02789 43.8536 2.03964 44.0532 2.05531C44.2332 2.1206 44.5294 2.00046 44.4393 1.76934C45.2925 1.8046 46.0844 1.40111 46.9168 1.264C47.7452 1.18174 48.5071 0.763885 49.3564 0.863125C49.3355 0.803059 49.2964 0.682926 49.2755 0.624166C49.5442 0.618943 49.813 0.605885 50.083 0.592827C50.2565 0.587604 50.4301 0.586298 50.6049 0.586298C50.9702 0.569323 51.4398 0.693373 51.6825 0.330364C51.8625 0.326447 52.0451 0.321223 52.2265 0.313389C52.5839 0.317306 52.9401 0.326447 53.2989 0.326447C53.6094 0.305554 54.0151 0.387819 54.1795 0.036562ZM60.0358 57.3423C59.7827 57.5303 59.4605 57.6557 59.3287 57.9665C59.1735 58.0984 59.0756 58.272 59.056 58.4783C59.0495 58.5201 59.0364 58.6011 59.0312 58.6428C58.9673 58.6742 58.8421 58.7369 58.7782 58.7682C58.7508 59.1077 58.7012 59.4498 58.5212 59.7476C58.6386 60.0505 58.726 60.3639 58.7886 60.6825C58.846 60.7178 58.9595 60.787 59.0169 60.8222C59.0573 60.9463 59.1004 61.0716 59.1448 61.197C59.4683 61.368 59.7527 61.6005 60.0384 61.8303C60.2393 61.8995 60.4428 61.9831 60.6007 62.1345C60.8316 62.158 61.0651 62.1802 61.2973 62.2076C61.3808 62.2011 61.5491 62.1894 61.6339 62.1828C61.9235 62.1828 62.2145 62.1411 62.4767 62.0118C62.5511 61.8917 62.6437 61.7885 62.7546 61.7023C62.8316 61.21 62.8172 60.7099 62.7507 60.2189L62.5497 60.373C62.5236 60.087 62.5197 59.7998 62.521 59.5138C62.504 59.2853 62.4858 59.0581 62.465 58.8322C62.0318 58.1898 61.6808 57.2626 60.7767 57.2182C60.7167 57.2339 60.5967 57.2666 60.5367 57.2822C60.3684 57.2966 60.2015 57.3162 60.0358 57.3423ZM34.4213 58.2237C34.5061 58.2955 34.5061 58.2955 34.4213 58.2237Z" fill="#6495C7"/>
</svg>
