<svg width="144" height="144" viewBox="0 0 144 144" fill="none" xmlns="http://www.w3.org/2000/svg">
<rect width="144" height="144" fill="#00309F"/>
<g clip-path="url(#clip0_471_1011)">
<path d="M24.6409 65.7745L24.2801 57.8359L43.1989 38.1953H50.7252L35.0025 54.8975L31.2908 58.9699L24.6409 65.7745ZM18.6611 74.2803V38.1953H25.3626V74.2803H18.6611ZM43.8175 74.2803L30.0022 57.8359L34.4354 52.9386L51.6531 74.2803H43.8175ZM63.4834 74.2803V38.1953H70.1849V74.2803H63.4834ZM87.1621 74.2803V38.1953H92.678L108.452 64.5374H105.566L121.082 38.1953H126.598L126.649 74.2803H120.309L120.257 48.1445H121.598L108.401 70.1562H105.411L92.0079 48.1445H93.5544V74.2803H87.1621Z" fill="white"/>
<path d="M39.81 91.7504L37.5947 85.1236H38.5699L40.6052 91.2392H40.113L42.2241 85.1236H43.095L45.1588 91.2392H44.6855L46.7492 85.1236H47.6486L45.4333 91.7504H44.4394L42.5081 86.0798H42.7637L40.823 91.7504H39.81ZM51.9402 87.9826H55.3482V88.7873H51.9402V87.9826ZM52.0254 90.9268H55.8879V91.7504H51.0787V85.1236H55.7553V85.9473H52.0254V90.9268ZM59.6928 91.7504V85.1236H60.6395V90.9268H64.2274V91.7504H59.6928ZM67.5858 91.7504V85.1236H68.5325V90.9268H72.1204V91.7504H67.5858ZM75.4788 91.7504V85.1236H76.2552L80.6383 90.567H80.2313V85.1236H81.178V91.7504H80.4016L76.0184 86.3069H76.4255V91.7504H75.4788ZM86.295 87.9826H89.703V88.7873H86.295V87.9826ZM86.3801 90.9268H90.2427V91.7504H85.4335V85.1236H90.1101V85.9473H86.3801V90.9268ZM95.9788 91.8262C95.4739 91.8262 94.9912 91.7504 94.5304 91.599C94.0697 91.4412 93.7068 91.2392 93.4418 90.9931L93.792 90.2546C94.0445 90.4755 94.3663 90.6586 94.7576 90.8038C95.149 90.9489 95.556 91.0215 95.9788 91.0215C96.3638 91.0215 96.6762 90.9773 96.9161 90.8889C97.1559 90.8006 97.3326 90.6807 97.4462 90.5292C97.5598 90.3715 97.6166 90.1947 97.6166 89.999C97.6166 89.7719 97.5409 89.5888 97.3895 89.45C97.2442 89.3111 97.0517 89.2007 96.8119 89.1186C96.5784 89.0303 96.3196 88.9546 96.0356 88.8915C95.7516 88.8284 95.4645 88.7558 95.1742 88.6737C94.8902 88.5853 94.6282 88.4749 94.3884 88.3424C94.1549 88.2098 93.9656 88.0331 93.8204 87.8122C93.6752 87.585 93.6027 87.2947 93.6027 86.9412C93.6027 86.6004 93.691 86.288 93.8677 86.004C94.0507 85.7137 94.3285 85.4834 94.7008 85.313C95.0795 85.1363 95.5592 85.0479 96.1398 85.0479C96.5248 85.0479 96.9066 85.0984 97.2853 85.1994C97.664 85.3003 97.9921 85.4455 98.2699 85.6349L97.9575 86.3922C97.6735 86.2029 97.3736 86.0672 97.0581 85.9852C96.7425 85.8967 96.4364 85.8526 96.1398 85.8526C95.7674 85.8526 95.4614 85.8999 95.2215 85.9945C94.9817 86.0892 94.8049 86.2154 94.6913 86.3732C94.584 86.531 94.5304 86.7078 94.5304 86.9034C94.5304 87.1369 94.603 87.3231 94.7481 87.462C94.8996 87.6007 95.0921 87.7112 95.3256 87.7932C95.5654 87.8754 95.8274 87.951 96.1114 88.0205C96.3954 88.0836 96.6794 88.1562 96.9634 88.2382C97.2537 88.3203 97.5157 88.4275 97.7491 88.5601C97.989 88.6927 98.1814 88.8693 98.3266 89.0902C98.4718 89.3111 98.5444 89.5951 98.5444 89.9422C98.5444 90.2768 98.4529 90.5892 98.2699 90.8795C98.0868 91.1635 97.8027 91.3938 97.4179 91.5706C97.0392 91.7409 96.5595 91.8262 95.9788 91.8262ZM104.131 91.8262C103.626 91.8262 103.143 91.7504 102.682 91.599C102.222 91.4412 101.859 91.2392 101.594 90.9931L101.944 90.2546C102.196 90.4755 102.518 90.6586 102.91 90.8038C103.301 90.9489 103.708 91.0215 104.131 91.0215C104.516 91.0215 104.828 90.9773 105.068 90.8889C105.308 90.8006 105.484 90.6807 105.598 90.5292C105.712 90.3715 105.768 90.1947 105.768 89.999C105.768 89.7719 105.693 89.5888 105.541 89.45C105.396 89.3111 105.204 89.2007 104.964 89.1186C104.73 89.0303 104.471 88.9546 104.187 88.8915C103.903 88.8284 103.616 88.7558 103.326 88.6737C103.042 88.5853 102.78 88.4749 102.54 88.3424C102.307 88.2098 102.117 88.0331 101.972 87.8122C101.827 87.585 101.754 87.2947 101.754 86.9412C101.754 86.6004 101.843 86.288 102.02 86.004C102.203 85.7137 102.48 85.4834 102.853 85.313C103.231 85.1363 103.711 85.0479 104.292 85.0479C104.677 85.0479 105.059 85.0984 105.437 85.1994C105.816 85.3003 106.144 85.4455 106.422 85.6349L106.109 86.3922C105.825 86.2029 105.526 86.0672 105.21 85.9852C104.894 85.8967 104.588 85.8526 104.292 85.8526C103.919 85.8526 103.613 85.8999 103.373 85.9945C103.134 86.0892 102.957 86.2154 102.843 86.3732C102.736 86.531 102.682 86.7078 102.682 86.9034C102.682 87.1369 102.755 87.3231 102.9 87.462C103.051 87.6007 103.244 87.7112 103.478 87.7932C103.717 87.8754 103.979 87.951 104.263 88.0205C104.547 88.0836 104.831 88.1562 105.115 88.2382C105.406 88.3203 105.667 88.4275 105.901 88.5601C106.141 88.6927 106.333 88.8693 106.479 89.0902C106.624 89.3111 106.696 89.5951 106.696 89.9422C106.696 90.2768 106.605 90.5892 106.422 90.8795C106.239 91.1635 105.955 91.3938 105.57 91.5706C105.191 91.7409 104.711 91.8262 104.131 91.8262Z" fill="white"/>
<path d="M17.0918 97.21H127.375" stroke="white" stroke-width="0.545956"/>
<path d="M18.5781 108.129L16.7896 102.779H17.5768L19.2201 107.717H18.8227L20.5272 102.779H21.2304L22.8966 107.717H22.5144L24.1807 102.779H24.9068L23.1183 108.129H22.3157L20.7565 103.551H20.9628L19.3959 108.129H18.5781ZM32.0483 102.779H32.8126V108.129H32.0483V102.779ZM28.9756 108.129H28.2113V102.779H28.9756V108.129ZM32.117 105.745H28.8992V105.08H32.117V105.745ZM39.1989 108.19C38.7911 108.19 38.4116 108.122 38.06 107.984C37.7134 107.846 37.4128 107.655 37.1581 107.411C36.9032 107.161 36.7045 106.871 36.5619 106.539C36.4192 106.208 36.3479 105.846 36.3479 105.454C36.3479 105.062 36.4192 104.7 36.5619 104.369C36.7045 104.038 36.9032 103.75 37.1581 103.505C37.4128 103.255 37.7134 103.062 38.06 102.924C38.4065 102.787 38.7861 102.718 39.1989 102.718C39.6065 102.718 39.981 102.787 40.3224 102.924C40.6689 103.057 40.9695 103.248 41.2243 103.497C41.4842 103.742 41.683 104.03 41.8205 104.361C41.9631 104.692 42.0345 105.057 42.0345 105.454C42.0345 105.852 41.9631 106.216 41.8205 106.547C41.683 106.878 41.4842 107.169 41.2243 107.418C40.9695 107.663 40.6689 107.854 40.3224 107.992C39.981 108.124 39.6065 108.19 39.1989 108.19ZM39.1989 107.51C39.4943 107.51 39.767 107.459 40.0167 107.357C40.2714 107.255 40.4906 107.113 40.674 106.929C40.8625 106.741 41.0077 106.522 41.1097 106.272C41.2167 106.022 41.2702 105.75 41.2702 105.454C41.2702 105.159 41.2167 104.886 41.1097 104.636C41.0077 104.387 40.8625 104.17 40.674 103.987C40.4906 103.798 40.2714 103.653 40.0167 103.551C39.767 103.449 39.4943 103.398 39.1989 103.398C38.8981 103.398 38.6205 103.449 38.3657 103.551C38.116 103.653 37.8969 103.798 37.7084 103.987C37.5198 104.17 37.3721 104.387 37.2651 104.636C37.1631 104.886 37.1122 105.159 37.1122 105.454C37.1122 105.75 37.1631 106.022 37.2651 106.272C37.3721 106.522 37.5198 106.741 37.7084 106.929C37.8969 107.113 38.116 107.255 38.3657 107.357C38.6205 107.459 38.8981 107.51 39.1989 107.51ZM45.5722 108.129V102.779H46.3366V107.464H49.2334V108.129H45.5722ZM52.4799 108.129V102.779H53.2442V108.129H52.4799ZM58.7748 108.19C58.3671 108.19 57.9773 108.129 57.6053 108.007C57.2333 107.88 56.9403 107.717 56.7263 107.518L57.0091 106.922C57.213 107.1 57.4729 107.248 57.7888 107.365C58.1046 107.482 58.4333 107.541 58.7748 107.541C59.0856 107.541 59.3379 107.505 59.5315 107.434C59.725 107.362 59.8678 107.266 59.9595 107.143C60.0512 107.016 60.0971 106.873 60.0971 106.715C60.0971 106.532 60.0359 106.384 59.9136 106.272C59.7965 106.16 59.641 106.071 59.4474 106.004C59.2588 105.933 59.0499 105.872 58.8206 105.821C58.5913 105.77 58.3595 105.711 58.1251 105.645C57.8958 105.574 57.6843 105.485 57.4907 105.378C57.3021 105.271 57.1492 105.128 57.0321 104.95C56.9149 104.766 56.8563 104.532 56.8563 104.246C56.8563 103.971 56.9276 103.719 57.0703 103.49C57.218 103.255 57.4423 103.069 57.7429 102.932C58.0486 102.789 58.4359 102.718 58.9047 102.718C59.2156 102.718 59.5238 102.759 59.8295 102.84C60.1353 102.922 60.4003 103.039 60.6245 103.192L60.3722 103.803C60.1429 103.65 59.9008 103.541 59.6461 103.474C59.3914 103.403 59.1442 103.367 58.9047 103.367C58.6041 103.367 58.3569 103.406 58.1633 103.482C57.9697 103.559 57.827 103.66 57.7353 103.788C57.6487 103.915 57.6053 104.058 57.6053 104.216C57.6053 104.404 57.664 104.555 57.7811 104.667C57.9034 104.779 58.0588 104.868 58.2474 104.934C58.441 105.001 58.6525 105.062 58.8818 105.118C59.1111 105.169 59.3404 105.227 59.5697 105.294C59.8041 105.36 60.0155 105.446 60.2041 105.553C60.3977 105.66 60.5532 105.803 60.6703 105.981C60.7875 106.16 60.8461 106.389 60.8461 106.669C60.8461 106.939 60.7722 107.192 60.6245 107.426C60.4767 107.655 60.2474 107.841 59.9366 107.984C59.6308 108.122 59.2435 108.19 58.7748 108.19ZM65.32 108.129V103.444H63.4856V102.779H67.9111V103.444H66.0767V108.129H65.32ZM71.113 108.129V102.779H71.8774V108.129H71.113ZM78.241 108.19C77.8334 108.19 77.4563 108.124 77.1098 107.992C76.7684 107.854 76.4703 107.663 76.2155 107.418C75.9658 107.169 75.7697 106.878 75.627 106.547C75.4843 106.216 75.413 105.852 75.413 105.454C75.413 105.057 75.4843 104.692 75.627 104.361C75.7697 104.03 75.9684 103.742 76.2232 103.497C76.4779 103.248 76.776 103.057 77.1175 102.924C77.4639 102.787 77.8411 102.718 78.2487 102.718C78.6614 102.718 79.0411 102.789 79.3875 102.932C79.7391 103.069 80.0372 103.276 80.2818 103.551L79.785 104.032C79.5811 103.818 79.3518 103.66 79.0971 103.559C78.8423 103.452 78.5697 103.398 78.2792 103.398C77.9786 103.398 77.6983 103.449 77.4385 103.551C77.1837 103.653 76.9621 103.795 76.7735 103.979C76.5849 104.162 76.4372 104.382 76.3302 104.636C76.2283 104.886 76.1773 105.159 76.1773 105.454C76.1773 105.75 76.2283 106.025 76.3302 106.28C76.4372 106.529 76.5849 106.746 76.7735 106.929C76.9621 107.113 77.1837 107.255 77.4385 107.357C77.6983 107.459 77.9786 107.51 78.2792 107.51C78.5697 107.51 78.8423 107.459 79.0971 107.357C79.3518 107.25 79.5811 107.087 79.785 106.868L80.2818 107.35C80.0372 107.625 79.7391 107.834 79.3875 107.976C79.0411 108.119 78.6589 108.19 78.241 108.19ZM88.1638 108.129V102.779H88.9281V108.129H88.1638ZM92.8994 108.129V102.779H93.5262L97.065 107.174H96.7364V102.779H97.5007V108.129H96.874L93.3351 103.734H93.6637V108.129H92.8994ZM107.185 108.129V106.081L107.361 106.555L105.061 102.779H105.878L107.812 105.966H107.369L109.31 102.779H110.067L107.774 106.555L107.942 106.081V108.129H107.185ZM115.396 108.19C114.988 108.19 114.609 108.122 114.257 107.984C113.911 107.846 113.61 107.655 113.355 107.411C113.1 107.161 112.902 106.871 112.759 106.539C112.616 106.208 112.545 105.846 112.545 105.454C112.545 105.062 112.616 104.7 112.759 104.369C112.902 104.038 113.1 103.75 113.355 103.505C113.61 103.255 113.911 103.062 114.257 102.924C114.604 102.787 114.983 102.718 115.396 102.718C115.804 102.718 116.178 102.787 116.519 102.924C116.866 103.057 117.167 103.248 117.421 103.497C117.681 103.742 117.88 104.03 118.018 104.361C118.16 104.692 118.232 105.057 118.232 105.454C118.232 105.852 118.16 106.216 118.018 106.547C117.88 106.878 117.681 107.169 117.421 107.418C117.167 107.663 116.866 107.854 116.519 107.992C116.178 108.124 115.804 108.19 115.396 108.19ZM115.396 107.51C115.691 107.51 115.964 107.459 116.214 107.357C116.469 107.255 116.688 107.113 116.871 106.929C117.06 106.741 117.205 106.522 117.307 106.272C117.414 106.022 117.467 105.75 117.467 105.454C117.467 105.159 117.414 104.886 117.307 104.636C117.205 104.387 117.06 104.17 116.871 103.987C116.688 103.798 116.469 103.653 116.214 103.551C115.964 103.449 115.691 103.398 115.396 103.398C115.095 103.398 114.818 103.449 114.563 103.551C114.313 103.653 114.094 103.798 113.905 103.987C113.717 104.17 113.569 104.387 113.462 104.636C113.36 104.886 113.309 105.159 113.309 105.454C113.309 105.75 113.36 106.022 113.462 106.272C113.569 106.522 113.717 106.741 113.905 106.929C114.094 107.113 114.313 107.255 114.563 107.357C114.818 107.459 115.095 107.51 115.396 107.51ZM123.986 108.19C123.283 108.19 122.73 107.989 122.327 107.587C121.925 107.184 121.723 106.595 121.723 105.821V102.779H122.488V105.79C122.488 106.387 122.618 106.822 122.878 107.097C123.143 107.373 123.515 107.51 123.993 107.51C124.478 107.51 124.85 107.373 125.109 107.097C125.375 106.822 125.507 106.387 125.507 105.79V102.779H126.248V105.821C126.248 106.595 126.047 107.184 125.644 107.587C125.247 107.989 124.694 108.19 123.986 108.19Z" fill="white"/>
</g>
<defs>
<clipPath id="clip0_471_1011">
<rect width="111.375" height="77" fill="white" transform="translate(16 34)"/>
</clipPath>
</defs>
</svg>
