<svg width="144" height="144" viewBox="0 0 144 144" fill="none" xmlns="http://www.w3.org/2000/svg">
<path d="M21.2027 29.6309C21.7522 29.6246 21.3781 30.4535 21.9119 30.3282C21.8696 30.6447 22.1264 30.8515 22.2845 31.0881C22.3455 31.0866 22.4692 31.0834 22.5303 31.0819C22.6132 31.3467 22.5538 31.7149 22.8637 31.8512C22.9279 32.127 22.9138 32.4717 23.2379 32.5846C23.2488 32.7742 23.2582 32.9638 23.2676 33.1534C23.3443 33.1565 23.4946 33.1628 23.5698 33.1643C23.6152 33.4652 23.5228 33.8914 23.9627 33.9071C23.9533 34.2064 23.9439 34.5072 23.9345 34.8081C24.4637 34.8598 24.221 35.4442 24.3995 35.7827C24.5811 36.1212 24.6609 36.4941 24.6829 36.8749C25.2574 36.9203 24.9349 37.5361 24.9772 37.9028C25.4938 37.9952 25.2856 38.5797 25.3513 38.9511C25.8914 39.1845 25.5956 39.8724 25.6707 40.3284C25.7537 40.3441 25.9196 40.3754 26.001 40.3911C26.0057 40.7405 26.0073 41.0915 26.0276 41.4425C26.0997 41.5522 26.2452 41.7716 26.3173 41.8812C26.3486 42.3012 26.3721 42.7211 26.394 43.1426C26.4863 43.1426 26.6679 43.1411 26.7603 43.1411C26.8104 43.6331 26.4848 44.3664 27.0405 44.6579C27.0531 45.0559 27.0578 45.4539 27.0687 45.8535C27.6245 46.0399 27.3239 46.7153 27.3943 47.1524C28.0988 47.5943 27.3959 48.6677 28.0503 49.1268C28.0769 49.658 28.0926 50.1892 28.1113 50.7204C28.1974 50.7235 28.3712 50.7282 28.4573 50.7313C28.4636 50.8207 28.4745 50.9977 28.4808 51.087C28.5622 51.5665 28.2256 52.2763 28.7657 52.5553C28.7689 52.6117 28.772 52.7229 28.7736 52.7793C28.783 53.2243 28.7501 53.6741 28.8111 54.1175C28.8816 54.1582 29.024 54.2429 29.0945 54.2852C29.1399 54.9214 29.118 55.5607 29.1164 56.2C29.1915 56.2454 29.3403 56.3379 29.4154 56.3849C29.5313 57.1417 29.4107 57.9173 29.536 58.6757L29.763 58.7306C29.7536 59.4153 29.8005 60.0985 29.8475 60.7817C29.8475 60.8538 29.8475 60.998 29.8491 61.0716C29.9211 61.0904 30.0682 61.128 30.1403 61.1484C30.159 61.3427 30.181 61.5386 30.2076 61.736C30.2091 62.4176 30.134 63.1039 30.2123 63.784C30.278 63.8326 30.4095 63.9313 30.4753 63.9799C30.4753 64.1648 30.48 64.3528 30.4909 64.5408C30.5269 65.5546 30.4487 66.5731 30.5301 67.5854C30.6052 67.6261 30.7555 67.706 30.8306 67.7468C30.9027 70.7193 30.8087 73.6949 30.8432 76.669C31.0592 76.6737 31.2768 76.6784 31.4929 76.6846C31.5101 76.6016 31.5414 76.4324 31.5586 76.3477C31.8169 76.2882 32.1003 76.2663 32.3022 76.0751C32.4118 75.9372 32.5214 75.8009 32.631 75.6646C32.8095 75.6458 32.9895 75.6285 33.1711 75.6128C33.3433 75.3966 33.5218 75.1851 33.6971 74.9704C33.9789 74.9579 34.2857 74.9532 34.3202 74.5896C34.3734 74.5849 34.4783 74.5755 34.5315 74.5708C34.6646 74.4423 34.8039 74.317 34.9793 74.2496C35.3237 74.1289 35.5695 73.8391 35.7667 73.5445C35.9624 73.5351 36.1581 73.5272 36.3554 73.521C36.3491 73.4332 36.3366 73.2593 36.3303 73.1715C36.4086 73.1856 36.5636 73.2154 36.6418 73.2295C36.5792 72.7923 36.9816 72.8347 37.2837 72.797C37.4293 72.6419 37.5796 72.4899 37.7221 72.3317L37.7565 72.2173C37.7941 72.2032 37.8676 72.1781 37.9052 72.1656C38.1353 72.153 38.3984 72.1765 38.486 71.9102C38.6332 71.7707 38.7741 71.6281 38.9103 71.4792C39.0856 71.4792 39.2625 71.4792 39.4394 71.4824C39.43 71.4025 39.4128 71.2458 39.405 71.1674C39.6899 71.1188 40.014 71.122 40.2206 70.8838C40.3537 70.7443 40.4789 70.5986 40.5963 70.4466C40.8515 70.4122 41.1036 70.3573 41.2476 70.1191C41.4229 70.1082 41.556 69.9922 41.6938 69.8982C41.7736 69.8575 41.9364 69.7744 42.0163 69.7321C42.3576 69.5127 42.5204 68.9909 42.9963 69.0144C43.1638 69.005 43.2734 68.911 43.325 68.7324C43.3783 68.7167 43.4832 68.6838 43.5364 68.6666C43.5661 68.6086 43.6256 68.4911 43.6538 68.4315C43.8104 68.3689 43.9732 68.3344 44.1438 68.3297C44.2659 68.1918 44.3912 68.057 44.5227 67.9301C44.9532 67.6418 45.4761 67.4804 45.7641 67.0135L45.7923 67.0088C46.1586 67.0119 46.4357 66.7878 46.7159 66.5872C46.7144 66.5214 46.7113 66.3867 46.7081 66.3209C46.993 66.2942 47.3891 66.4149 47.4533 66.0184C47.7633 65.6894 48.33 65.7051 48.5147 65.2663C48.6807 65.2522 48.8466 65.2397 49.0126 65.2303C49.1942 65.0172 49.3899 64.815 49.5417 64.58C49.6591 64.5863 49.8955 64.5988 50.0129 64.6051C50.0615 64.5299 50.157 64.3763 50.2039 64.3011C50.3448 64.1726 50.481 64.0394 50.6188 63.9078C50.791 63.8937 50.9632 63.8796 51.137 63.867C51.1385 63.7761 51.1432 63.596 51.1448 63.5051C51.2434 63.516 51.4407 63.5348 51.5409 63.5442C51.5409 63.4596 51.5424 63.2873 51.5424 63.2011C51.8477 63.1995 52.1561 63.1995 52.463 63.1979C52.5021 62.7905 52.8637 62.8454 53.169 62.8423C53.4398 62.181 54.4089 62.8282 54.7314 62.2029C55.0946 62.2437 55.5752 62.0807 55.81 62.4646C55.3451 62.4286 54.9913 62.6824 54.6656 62.9754C54.6531 63.0099 54.6281 63.0804 54.614 63.1165C54.3948 63.1995 54.2805 63.3813 54.2273 63.6022C54.0582 63.5975 53.8923 63.5928 53.7248 63.5865C53.5385 63.7997 53.3444 64.0081 53.1909 64.2478C53.0829 64.2462 52.8684 64.24 52.7604 64.2368C52.4489 64.5941 52.0998 64.9153 51.7835 65.2679C51.5252 65.2945 51.2685 65.3447 51.1777 65.6283C51.0978 65.6298 50.9413 65.6361 50.8614 65.6392C50.8677 65.7286 50.8787 65.9088 50.8849 65.9981C50.8192 65.9918 50.6861 65.9777 50.6204 65.9714C50.4732 66.3491 50.0286 66.3397 49.7405 66.5543C49.6169 66.6938 49.501 66.8395 49.3946 66.9947C49.1315 67.0307 48.8294 67.0291 48.7386 67.3394C48.6932 67.3488 48.604 67.3676 48.5586 67.377C48.4412 67.5462 48.2924 67.6857 48.1155 67.7891C48.114 67.8377 48.1108 67.9364 48.1108 67.985C47.6239 67.9881 47.278 68.2968 46.9884 68.6509C46.8568 68.7778 46.7316 68.9095 46.6079 69.0458C46.3355 69.0803 46.0021 69.0505 45.9426 69.403C45.88 69.4093 45.7563 69.4218 45.6952 69.4281C45.6968 69.508 45.6999 69.6679 45.7015 69.7478C45.4761 69.7713 45.2506 69.7979 45.0268 69.823C45.0205 69.8778 45.0095 69.9844 45.0033 70.0392C44.8013 70.1223 44.6698 70.2805 44.5947 70.4827C44.5195 70.4795 44.3692 70.4748 44.2941 70.4717C44.2972 70.55 44.3066 70.7052 44.3098 70.782C44.0374 70.8196 43.6648 70.7365 43.5927 71.0985C43.3141 71.3022 43.0526 71.531 42.8209 71.7879C42.6487 71.8161 42.4765 71.8475 42.3043 71.8804C42.1415 72.0606 41.974 72.2376 41.8065 72.4163C41.6405 72.4664 41.4668 72.4931 41.3149 72.5777C41.2742 72.6717 41.1944 72.8597 41.1552 72.9553C41.0832 72.9412 40.9392 72.9146 40.8672 72.9005C40.864 72.9647 40.8578 73.0901 40.8562 73.1527C40.5447 73.5084 39.9576 73.4771 39.7588 73.9205C39.693 73.9299 39.56 73.9487 39.4942 73.9582C39.4989 74.0396 39.5067 74.2042 39.5114 74.2856C39.4175 74.2778 39.2296 74.2621 39.1357 74.2543C39.1357 74.3421 39.1357 74.5175 39.1357 74.6053C38.9338 74.6272 38.7318 74.6507 38.5299 74.6774C38.3999 74.809 38.2669 74.9375 38.1307 75.0628C38.1166 75.1255 38.0868 75.2524 38.0727 75.3167C37.7894 75.3559 37.4168 75.2869 37.3244 75.6489C37.2665 75.6552 37.1475 75.6677 37.0896 75.674C37.0849 75.7319 37.0771 75.8479 37.0724 75.9059C36.8861 76.0014 36.7311 76.1409 36.5902 76.2929C36.3162 76.3493 36.0579 76.4433 35.9608 76.7363C35.9154 76.7207 35.8231 76.6878 35.7761 76.6721C35.6102 76.8993 35.4317 77.1155 35.2673 77.3443C34.9902 77.3772 34.6662 77.3663 34.5832 77.7063C34.5065 77.711 34.3546 77.7204 34.2779 77.7251C34.2904 77.8066 34.3124 77.9695 34.3249 78.051C34.2294 78.0588 34.0415 78.0745 33.9476 78.0823C34.0227 78.4506 33.7613 79.0554 34.2857 79.1588C34.292 79.2262 34.3045 79.3625 34.3108 79.4299C34.3797 79.4237 34.5206 79.4095 34.5895 79.4033C34.5754 79.9282 34.9057 80.3105 35.3456 80.5456C35.355 80.696 35.3644 80.848 35.3738 81.0016C35.5491 81.1269 35.6775 81.2977 35.7636 81.4951C35.8215 81.4967 35.9374 81.5014 35.9953 81.5046C36.0532 81.7631 36.0845 82.0467 36.2771 82.2504C36.407 82.3961 36.5323 82.5434 36.6544 82.697C36.6622 82.7612 36.6779 82.8913 36.6857 82.9571C36.6919 83.0135 36.7045 83.1279 36.7107 83.1843C36.9346 83.3504 37.1506 83.5275 37.3729 83.6983C37.3776 83.8424 37.3839 83.9897 37.3917 84.1386C37.7048 84.3454 37.96 84.6259 38.0946 84.98C38.2089 85.2871 38.4735 85.494 38.7115 85.7055C38.8852 85.9045 39.0527 86.1098 39.2156 86.3198C39.2876 86.3198 39.43 86.3198 39.5005 86.3182C39.4927 86.406 39.477 86.5815 39.4692 86.6692C39.5287 86.6739 39.6492 86.6849 39.7103 86.6896C39.8105 86.8447 39.9294 86.9904 40.0688 87.1142C40.3177 87.354 40.5572 87.6047 40.8233 87.8256C40.8359 87.8836 40.8625 88.0011 40.8766 88.0591C40.9455 88.0559 41.0832 88.0481 41.1521 88.0434C41.2382 88.2095 41.34 88.3756 41.4605 88.5213C41.6578 88.8096 42.0147 88.7329 42.3137 88.7454C42.2887 88.8206 42.237 88.9726 42.212 89.0478C42.2855 89.0604 42.4327 89.0823 42.5063 89.0933C42.6096 89.5304 43.1622 89.3816 43.4096 89.6903C43.6663 89.789 43.945 89.8689 44.0608 90.1509C44.2534 90.1494 44.446 90.1478 44.6401 90.1478C44.6526 90.2324 44.6776 90.4032 44.6917 90.4878C44.8765 90.491 45.0643 90.4972 45.2506 90.5035C45.3774 90.9846 45.9222 90.7918 46.2839 90.8608C46.6017 91.3136 47.2654 91.1679 47.696 91.4876C48.1734 91.5518 48.6572 91.533 49.1378 91.5283C49.1472 91.6113 49.1629 91.779 49.1707 91.8636L49.249 91.8573C50.7487 91.8808 52.2516 91.9138 53.7498 91.8511C53.814 91.7743 53.9424 91.6192 54.005 91.5424C54.4621 91.5565 54.9208 91.544 55.3748 91.4813C55.4265 91.4766 55.5314 91.4641 55.583 91.4594C55.785 90.8953 56.6664 91.4609 56.7854 90.8169C56.8323 90.8091 56.9247 90.7934 56.9717 90.7856C57.2206 90.7918 57.4711 90.8028 57.7215 90.8185C57.7325 90.7307 57.7528 90.5536 57.7638 90.4643L57.8499 90.4628C58.1959 90.4111 58.7501 90.643 58.8565 90.1447C59.0397 90.1431 59.2213 90.1431 59.4045 90.1463C59.4264 90.0538 59.4687 89.8673 59.4906 89.7733C59.68 89.767 59.8694 89.7608 60.0604 89.7545C60.2013 89.4725 60.5113 89.449 60.7852 89.391C60.8228 88.9726 61.1985 89.0854 61.4944 89.0964C61.5179 89.0212 61.5664 88.8692 61.5899 88.794C61.842 88.7485 62.1238 88.7391 62.2897 88.5104C62.3836 88.4148 62.5684 88.2236 62.6623 88.1296C62.7875 88.0904 62.9128 88.0512 63.038 88.0105C63.1022 87.9416 63.2306 87.8052 63.2948 87.7363C63.3684 87.7285 63.5171 87.7144 63.5922 87.7065C63.5969 87.6109 63.6079 87.4213 63.6126 87.3258C63.8067 87.3242 64.0008 87.3242 64.1965 87.3258C64.3734 87.1111 64.5628 86.9074 64.7194 86.6755C64.7851 86.677 64.9182 86.6786 64.984 86.6802C64.984 86.6065 64.9824 86.4608 64.9824 86.3871C65.3722 86.3433 65.6978 86.1427 65.9984 85.9061C66.0078 85.8544 66.0266 85.751 66.036 85.7008C66.2364 85.6288 66.3773 85.4862 66.4415 85.2825C66.5041 85.2872 66.6309 85.2966 66.6935 85.2997C66.6966 85.2119 66.7045 85.0333 66.7076 84.944C66.9283 84.9644 67.1506 84.9832 67.3729 85.002C67.3776 84.9001 67.387 84.698 67.3917 84.5961C67.4763 84.5836 67.6453 84.557 67.7299 84.5444C67.733 84.4739 67.7408 84.3298 67.7455 84.2577C67.8254 84.2545 67.9851 84.2467 68.0649 84.2436C68.0649 84.148 68.0649 83.9584 68.0649 83.8644C68.162 83.8738 68.3561 83.8957 68.4516 83.9051C68.4453 83.8142 68.4328 83.6325 68.4265 83.5416C68.5173 83.551 68.6974 83.5713 68.7866 83.5823C68.7819 83.4899 68.771 83.305 68.7647 83.2125C68.8492 83.2219 69.0183 83.2392 69.1028 83.2486C69.1013 83.1686 69.095 83.0119 69.0934 82.9336C69.3674 82.8662 69.7071 82.8866 69.8684 82.6077C70.05 82.5137 70.1784 82.3664 70.2472 82.1736C70.3114 82.1721 70.4414 82.1674 70.5055 82.1658C70.5024 82.0843 70.4961 81.9214 70.493 81.8399C70.695 81.8399 70.8985 81.8383 71.102 81.8399C71.1709 81.2444 71.8613 81.5735 72.2605 81.4936L72.1603 81.2382C72.3356 81.2256 72.511 81.2147 72.6879 81.2068L72.5767 81.4951C72.8178 81.4904 73.0605 81.4842 73.3031 81.4795C73.2953 81.5437 73.2796 81.6706 73.2718 81.7349C73.4362 81.8383 73.5959 81.9527 73.7462 82.0796C73.9199 82.2723 74.0937 82.4682 74.2941 82.6374L74.3066 82.7393C74.3176 82.8647 74.3411 83.1138 74.352 83.2376C74.4303 83.2376 74.5853 83.2392 74.6636 83.2392C74.6636 83.4805 74.6667 83.7233 74.6714 83.9678L74.9375 83.8189C74.9767 84.1793 75.0268 84.5397 75.0784 84.9001C75.1348 84.9377 75.2475 85.0145 75.3039 85.0521C75.3383 85.5128 75.6796 85.8262 76.0146 86.0988L76.0209 86.1364C76.0365 86.2759 76.0663 86.5517 76.0819 86.6911C76.1633 86.6864 76.3261 86.677 76.4091 86.6723C76.4013 86.7601 76.3841 86.9356 76.3762 87.0233C76.4467 87.0233 76.5876 87.0218 76.658 87.0218C76.7661 87.1706 76.8788 87.3195 76.9931 87.4683C77.0995 87.5827 77.2075 87.6987 77.3171 87.8131C77.4658 87.9259 77.6177 88.0371 77.7711 88.1484C77.7774 88.2158 77.7915 88.349 77.7977 88.4148C77.9934 88.4069 78.1891 88.4007 78.3879 88.396C78.402 88.8378 78.8294 88.7423 79.1347 88.7705C79.213 88.772 79.3711 88.7752 79.4509 88.7783C79.4822 88.8535 79.5448 89.0055 79.5762 89.0823C80.4403 89.0698 81.3076 89.0886 82.1718 89.0745C82.2031 88.9977 82.2673 88.8425 82.2986 88.7658C82.3581 88.7626 82.4739 88.7579 82.5334 88.7548C82.978 88.7532 83.4226 88.7626 83.8688 88.7548C84.0801 88.1735 84.794 88.4806 85.2574 88.4226C85.3216 88.2988 85.3858 88.1766 85.4515 88.0559C85.5048 88.0544 85.6097 88.0497 85.6629 88.0481C86.059 88.0152 86.5818 88.1672 86.8276 87.7473C86.8824 87.7457 86.9936 87.7426 87.0499 87.7426C87.3709 87.7316 87.6949 87.7128 88.0174 87.6877C88.1959 87.1628 88.9113 87.473 89.3278 87.3258C89.5532 86.9168 90.0495 87.05 90.4314 87.0045C90.6741 86.4357 91.3989 86.7648 91.8749 86.6927L91.7731 86.4326C92.1739 86.3777 92.5778 86.3307 92.9832 86.2963C93.049 86.2696 93.1774 86.2148 93.2431 86.1881L93.2447 86.0581C93.6455 85.9609 94.2998 86.1756 94.3969 85.6225C94.4376 85.6209 94.5206 85.6178 94.5613 85.6162C94.9667 85.5488 95.6024 85.834 95.7965 85.3185C96.1534 85.2448 96.7421 85.4862 96.8172 84.9534C97.254 84.955 97.6923 84.9628 98.1307 84.9675L98.0242 84.7011C98.7052 84.6149 99.4066 84.5335 100.088 84.6619C100.133 84.7325 100.227 84.8719 100.272 84.9424C100.567 84.9581 100.924 84.9048 100.991 85.2856C101.157 85.2934 101.326 85.3028 101.495 85.3122C101.67 85.5269 101.849 85.7431 102.024 85.9609C102.203 85.9813 102.384 86.0032 102.566 86.0252C102.588 86.2022 102.613 86.3793 102.639 86.5579C102.905 86.7804 103.148 87.028 103.378 87.2881C103.677 87.4025 103.63 87.7097 103.648 87.9698C103.723 87.9933 103.875 88.0371 103.95 88.0606C103.968 88.4555 104.167 88.7893 104.404 89.0948C104.474 89.0995 104.613 89.1074 104.684 89.1121C104.69 89.1497 104.703 89.2249 104.709 89.2609C104.715 89.3863 104.726 89.6354 104.732 89.7608C104.811 89.7561 104.966 89.7451 105.042 89.7404C105.042 89.9723 105.042 90.2058 105.044 90.4393C105.108 90.4393 105.237 90.4408 105.301 90.4424C105.366 90.6289 105.482 90.7793 105.648 90.8921C105.761 91.0112 105.871 91.1303 105.986 91.2525C106.13 91.37 106.278 91.4813 106.431 91.5925C106.431 91.663 106.433 91.8009 106.434 91.8714C106.523 91.8589 106.702 91.8323 106.791 91.8197C106.785 91.9059 106.772 92.0814 106.768 92.1676C107.518 92.166 108.272 92.2287 109.02 92.1457C109.081 92.0783 109.204 91.942 109.265 91.8746C109.288 91.8746 109.332 91.873 109.354 91.8714C109.637 91.8683 109.919 91.8683 110.204 91.8683L110.083 91.591C110.447 91.5549 110.81 91.5173 111.175 91.486C111.214 91.4061 111.29 91.2478 111.328 91.1679C111.377 91.1679 111.472 91.1679 111.519 91.1679C111.845 91.1695 112.169 91.1569 112.496 91.1444C112.602 91.0002 112.71 90.8592 112.825 90.7229C113.086 90.7668 113.349 90.8091 113.614 90.8498C113.609 90.7464 113.603 90.5395 113.6 90.4361C113.916 90.4581 114.234 90.4675 114.555 90.4706C114.659 90.2606 114.852 90.1556 115.077 90.1165C115.444 90.0851 116.048 90.3672 116.142 89.8219C116.511 89.7796 116.954 89.8501 117.21 89.5085C117.52 89.474 117.833 89.4521 118.144 89.4176C118.37 89.4098 118.507 89.2797 118.559 89.0259C118.844 89.051 119.131 89.0792 119.419 89.1089C119.44 89.0134 119.483 88.8253 119.505 88.7313C119.885 88.6843 120.411 88.8896 120.622 88.4461C120.992 88.4508 121.363 88.4618 121.737 88.4665C121.828 88.3599 121.92 88.2565 122.016 88.1531C122.246 88.0951 122.482 88.0387 122.712 87.9698C123.09 87.8303 123.487 87.7692 123.879 87.6752C123.921 87.5968 124.007 87.4433 124.049 87.3665C124.107 87.3602 124.225 87.3493 124.283 87.3446C124.636 87.3461 124.992 87.3681 125.347 87.3822C125.35 87.2991 125.357 87.133 125.361 87.05C125.939 87.0437 126.518 87.0421 127.099 87.0468C127.102 87.1283 127.107 87.2913 127.11 87.3743C127.415 87.379 127.724 87.3853 128.032 87.3916C128.149 87.5388 128.275 87.6861 128.4 87.8319C128.773 88.0011 129.155 88.1703 129.439 88.4806C129.673 88.7344 129.884 89.0776 130.264 89.1058C130.247 89.2735 130.232 89.4427 130.221 89.6135C130.421 89.7279 130.562 89.9034 130.626 90.129C130.689 90.129 130.812 90.129 130.873 90.1306C130.737 90.6774 131.321 90.9297 131.316 91.4499L131.569 91.4578C131.57 91.5549 131.575 91.7508 131.576 91.8479C131.675 91.8526 131.871 91.862 131.969 91.8652C131.96 92.0579 131.951 92.2506 131.944 92.4449C132.408 92.5593 132.123 93.2363 132.65 93.2504C132.655 93.313 132.666 93.4353 132.671 93.4979C132.879 93.6609 133.084 93.8317 133.297 93.9931C133.303 94.062 133.316 94.1968 133.322 94.2642C133.388 94.272 133.521 94.2845 133.587 94.2924C133.652 94.4757 133.777 94.587 133.961 94.6261C134.685 94.6841 135.42 94.7013 136.143 94.6089L136.304 94.5807C136.34 94.4882 136.412 94.3049 136.448 94.2125L136.465 94.2078C136.777 94.2187 137.087 94.2532 137.399 94.283C137.402 94.1843 137.408 93.99 137.413 93.8912C137.622 93.9006 137.835 93.9116 138.05 93.9226C138.142 93.3914 138.756 93.6734 139.119 93.4995L139.197 93.2488C139.431 93.2316 139.667 93.2222 139.902 93.1908C140.196 93.0639 140.481 92.9166 140.786 92.8132C140.753 93.0968 140.713 93.3804 140.666 93.664C140.309 94.9583 139.82 96.2103 139.246 97.4216C138.845 97.4795 138.245 97.2445 138.065 97.7412C137.791 97.7506 137.518 97.76 137.247 97.7757C137.123 97.9355 136.971 98.0577 136.79 98.1408C136.65 98.1016 136.375 98.0217 136.235 97.981C136.207 98.064 136.151 98.2285 136.123 98.3116C135.636 98.5372 134.933 98.2505 134.593 98.7394C133.637 98.7801 132.677 98.7989 131.722 98.7472C131.565 98.6281 131.403 98.52 131.235 98.426C131.163 98.4119 131.019 98.3868 130.947 98.3743C130.737 98.1094 130.491 97.876 130.225 97.6723C130.12 97.5689 130.019 97.4654 129.918 97.3636C129.71 97.0815 129.477 96.8105 129.172 96.6318C129.15 96.4563 129.128 96.2808 129.111 96.1053C129.04 96.0599 128.902 95.9674 128.834 95.922C128.802 95.6493 128.829 95.3156 128.48 95.2686C128.43 95.0022 128.453 94.6841 128.175 94.5384C128.117 94.3033 128.082 94.0542 127.875 93.9022C127.752 93.7753 127.631 93.6484 127.512 93.5214L127.448 93.4509C127.423 93.2739 127.401 93.0968 127.384 92.9213C127.31 92.9213 127.165 92.9229 127.091 92.9229C127.094 92.8414 127.104 92.68 127.107 92.6001C127.029 92.5922 126.87 92.575 126.792 92.5672C126.715 92.3682 126.593 92.2083 126.409 92.1049C126.399 92.0454 126.377 91.9279 126.366 91.8683C126.316 91.8605 126.218 91.8464 126.169 91.8385C126.086 91.7712 125.922 91.6348 125.839 91.5659C125.042 91.486 124.234 91.4922 123.437 91.5581L123.387 91.5957C123.323 91.6474 123.196 91.7477 123.132 91.7978C122.748 91.862 122.33 91.7947 121.981 91.9921C121.678 92.188 121.318 92.2193 120.968 92.2287C120.741 92.1284 120.452 92.3212 120.55 92.5766C120.496 92.5781 120.384 92.5797 120.33 92.5797C119.921 92.6565 119.304 92.4011 119.113 92.9182L119.104 92.9197C118.766 92.9103 118.429 92.8994 118.094 92.8947L118.197 93.172C117.429 93.1532 116.784 93.6264 116.026 93.6546C115.976 93.6515 115.876 93.6421 115.824 93.639C115.801 93.7204 115.755 93.885 115.732 93.9665L115.693 93.9915C115.358 93.9743 115.023 93.9508 114.689 93.9351C114.686 94.026 114.68 94.2046 114.677 94.2955C114.36 94.2908 114.046 94.2892 113.733 94.2939C113.611 94.7625 113.102 94.5901 112.746 94.6324C112.441 95.2655 111.492 94.7155 111.135 95.2717C110.836 95.3266 110.49 95.2623 110.232 95.4504C109.856 95.7778 109.319 95.6352 108.865 95.6744C108.839 95.7575 108.782 95.9251 108.754 96.0098C108.364 96.0066 107.975 96.0003 107.588 96.0317C107.543 96.0944 107.455 96.2213 107.409 96.284C106.494 96.4751 105.539 96.3372 104.607 96.3639C104.607 96.284 104.604 96.1241 104.604 96.0442C104.386 96.0458 104.169 96.0505 103.953 96.0583C103.926 95.9737 103.87 95.806 103.842 95.7214C103.737 95.723 103.525 95.7261 103.419 95.7277C103.231 95.4974 103.028 95.2811 102.819 95.0711C102.544 94.9239 102.583 94.5995 102.538 94.3378C102.481 94.3347 102.37 94.3284 102.315 94.3253C102.24 94.1325 102.109 93.9868 101.941 93.8787C101.927 93.6781 101.911 93.4791 101.893 93.2817C101.767 93.1626 101.634 93.0467 101.575 92.8837C101.522 92.7082 101.415 92.5734 101.257 92.4826C101.208 92.2162 101.194 91.9232 100.913 91.8009C100.87 91.5393 100.889 91.24 100.635 91.0817C100.502 90.9642 100.372 90.8482 100.246 90.7323C100.177 90.4941 100.125 90.2403 99.9294 90.0742C99.6273 89.7623 99.3596 89.4098 99.0027 89.1606C98.0618 89.0823 97.1099 89.1512 96.1644 89.1183C95.9264 89.6605 95.2407 89.38 94.7836 89.4568C94.5832 90.0413 93.8709 89.72 93.4153 89.7717C93.3652 89.8548 93.265 90.0209 93.2149 90.1039C92.8502 90.1666 92.3351 90.0131 92.1582 90.4518C91.7371 90.4737 91.316 90.4878 90.8964 90.5019C90.8917 90.5928 90.8823 90.7715 90.8776 90.8623C90.5677 90.8529 90.2592 90.8467 89.9508 90.8498C89.7411 91.3058 89.1837 91.1366 88.7845 91.1977L88.8581 91.4734C88.3571 91.5612 87.7043 91.3857 87.3364 91.8119C86.6382 91.7743 86.1044 92.3306 85.3999 92.235C85.3905 92.3227 85.3748 92.4951 85.367 92.5828C84.9678 92.6236 84.3792 92.3776 84.2116 92.8994C84.1772 92.8994 84.1099 92.9025 84.0755 92.9025C83.706 92.9056 83.3381 92.9025 82.9702 92.9025C82.9608 92.9934 82.9436 93.1751 82.9357 93.266C82.8622 93.2676 82.715 93.2723 82.6399 93.2739C82.081 93.2629 81.5221 93.2629 80.9648 93.2974C80.6407 93.7753 79.9456 93.5026 79.4619 93.534C78.7918 93.2096 78.0372 93.2582 77.3155 93.1971L77.4251 92.9213C77.076 92.9135 76.7269 92.9119 76.3794 92.9135C76.3794 92.8289 76.3778 92.6612 76.3778 92.5766C76.1774 92.5766 75.9786 92.5766 75.7829 92.5766C75.595 92.2569 75.3493 91.9608 74.9908 91.8338C74.9845 91.8103 74.9704 91.7665 74.9641 91.743L74.9187 91.6035L74.7716 91.569C74.6479 91.5424 74.5242 91.5173 74.4021 91.4938C74.2487 91.2854 74.089 91.0848 73.9325 90.8827C73.7211 90.7119 73.5113 90.5411 73.2984 90.3734C73.264 90.1995 73.2311 90.0272 73.1998 89.8564L73.0589 89.8814C72.8507 89.5383 72.5861 89.2311 72.2558 89.0024C72.2448 88.8347 72.237 88.6686 72.2307 88.5041C72.1462 88.479 71.9803 88.4273 71.8973 88.4022C71.8785 88.1249 71.9771 87.7739 71.6499 87.6423C71.5075 87.5153 71.3666 87.3853 71.2272 87.2584C71.2069 87.075 71.1866 86.8933 71.1662 86.7115C70.8844 86.7146 70.5619 86.6708 70.4147 86.9763C69.9169 86.9544 69.6414 87.3383 69.394 87.7112C69.2359 87.719 69.0778 87.7269 68.9197 87.7363C68.6958 88.0042 68.45 88.2534 68.2042 88.501C68.0352 88.7235 67.7675 88.7658 67.5123 88.8096C67.3276 89.0149 67.1397 89.2171 66.969 89.4317C66.7968 89.4427 66.6278 89.4552 66.4587 89.4693C66.2818 89.6824 66.1033 89.894 65.9217 90.1039C65.6587 90.1525 65.3534 90.1666 65.2626 90.4722C65.0936 90.4816 64.926 90.4925 64.7601 90.5035C64.5801 90.7229 64.3985 90.9407 64.2231 91.1632C64.0353 91.1663 63.849 91.171 63.6627 91.1757C63.6564 91.2556 63.6454 91.4139 63.6392 91.4922C63.3339 91.5424 63.0255 91.6051 62.7719 91.7931C62.3633 91.9247 62.0095 92.1989 61.7903 92.5719C61.5931 92.5703 61.3974 92.5703 61.2017 92.5703C61.2001 92.6549 61.1985 92.8226 61.197 92.9072C60.8322 92.9714 60.2201 92.6863 60.1293 93.2128C59.5876 93.3209 59.0804 93.5575 58.6358 93.8818C58.3744 93.9665 58.0941 93.9398 57.8249 93.9555C57.7982 94.0401 57.7466 94.2093 57.7215 94.2924C57.3536 94.3456 56.7838 94.1122 56.6664 94.6152C56.2875 94.6841 55.7067 94.4381 55.5956 94.9662C55.1306 94.9505 54.6563 94.9207 54.2023 95.0445C54.0692 95.1103 53.9408 95.1887 53.8203 95.2749C53.7075 95.2764 53.5964 95.2811 53.4852 95.2905C52.9827 95.325 52.4755 95.2984 51.9761 95.372C51.9307 95.4409 51.8368 95.5788 51.7914 95.6478C50.8192 95.6415 49.847 95.6572 48.8764 95.629C48.809 95.5647 48.676 95.4331 48.6087 95.3689C47.9308 95.2937 47.2467 95.3234 46.5657 95.2952C46.4858 95.2216 46.3261 95.0743 46.2463 95.0022C45.8205 94.9693 45.3915 94.9756 44.9657 94.9568C44.9657 94.8831 44.9657 94.7374 44.9673 94.6637C44.6542 94.6355 44.2377 94.7437 44.1579 94.3284C43.945 94.3222 43.7336 94.3159 43.5239 94.3096C43.4738 94.3049 43.3767 94.2939 43.3282 94.2877C43.3141 93.8192 42.8836 93.99 42.5767 94.0056C42.5673 93.9163 42.547 93.7377 42.5376 93.6484C42.2558 93.5888 41.9192 93.5967 41.7611 93.3099C41.5904 93.2848 41.4198 93.2582 41.2507 93.2331L41.1004 93.2018C41.0926 93.1422 41.077 93.0263 41.0691 92.9667C40.8233 92.6863 40.504 92.539 40.1283 92.5484C40.1314 92.492 40.1392 92.3807 40.1423 92.3243C39.92 92.1613 39.7071 91.989 39.4911 91.8213C39.2704 91.5111 38.8148 91.5283 38.6316 91.1851C38.5721 91.1898 38.4516 91.1992 38.3921 91.2024C38.3968 91.1115 38.4046 90.9266 38.4093 90.8357C38.3201 90.8498 38.1385 90.878 38.0492 90.8921C38.0602 90.8028 38.0821 90.6242 38.0931 90.5348C38.0211 90.5333 37.8755 90.5286 37.8035 90.5254C37.625 90.281 37.4387 90.0444 37.2712 89.7952C37.218 89.7952 37.1084 89.7968 37.0536 89.7984C37.0442 89.7091 37.0223 89.532 37.0113 89.4427C36.9174 89.4599 36.7279 89.4928 36.634 89.5101C36.6481 89.4176 36.6779 89.2312 36.6919 89.1387C36.5996 89.1481 36.4117 89.17 36.3178 89.1794C36.3303 89.0948 36.3538 88.924 36.3663 88.8394L36.0845 88.7579C35.4881 87.9541 34.7303 87.2944 34.0274 86.5893C33.9758 86.1239 33.6501 85.7964 33.2807 85.5457C33.2682 85.4047 33.2556 85.2636 33.2431 85.1242C33.0725 84.9847 32.9316 84.8218 32.8251 84.6322C32.7719 84.629 32.6654 84.6212 32.6122 84.6181C32.6012 84.2216 32.4024 83.8973 32.1582 83.6043C32.0909 83.587 31.9578 83.5525 31.8921 83.5353C31.9359 82.954 31.4569 82.5889 31.0592 82.2598C30.7414 82.1909 30.4142 82.2253 30.0917 82.2191C29.932 82.2191 29.7724 82.2207 29.6127 82.2238C29.2839 82.2598 28.8033 82.0874 28.6859 82.5293C28.5246 82.5403 28.365 82.5513 28.2053 82.5638C28.0315 82.7644 27.8483 82.9602 27.673 83.1608C27.2926 83.4617 26.9654 83.8221 26.6413 84.1793C26.5067 84.3125 26.3721 84.4473 26.2405 84.5836L26.2139 84.604C26.0355 84.6588 25.8554 84.7074 25.6754 84.7575C25.6832 84.828 25.6973 84.9706 25.7036 85.0411C25.6206 85.0396 25.4547 85.0364 25.3717 85.0349C25.3686 85.085 25.3639 85.1853 25.3607 85.2354C25.0727 85.4564 24.8144 85.7165 24.5874 86.0017C24.5357 86.022 24.4324 86.0644 24.3807 86.0863C24.3306 86.1333 24.2336 86.2273 24.185 86.2728C24.0206 86.326 23.8531 86.3683 23.6841 86.4028C23.6684 86.4686 23.6355 86.6018 23.6183 86.6676C22.7354 86.6598 21.8461 86.7366 20.9679 86.6238C20.9225 86.5955 20.8317 86.5376 20.7863 86.5094L20.6517 86.4232C20.4231 86.3292 20.0254 86.4279 20.0583 86.0283C19.8611 86.0111 19.6622 85.9907 19.465 85.9719C19.4556 85.9139 19.4337 85.7995 19.4243 85.7431C19.2521 85.7118 19.083 85.6726 18.9155 85.624C18.7574 85.3749 19.0627 85.1587 19.1268 84.9315C19.2051 84.9377 19.3632 84.9503 19.4431 84.9565C19.4399 84.8609 19.4321 84.6682 19.429 84.5726C19.5104 84.5758 19.6748 84.5805 19.7562 84.5836C19.7609 84.5241 19.7687 84.405 19.7734 84.347C19.9894 84.2655 20.1429 84.1072 20.2384 83.8988C20.3041 83.891 20.4372 83.8753 20.5029 83.8675C20.5014 83.7923 20.4982 83.6419 20.4967 83.5666C20.7205 83.5572 20.946 83.5494 21.1714 83.5431C21.1636 83.4538 21.1495 83.2783 21.1417 83.189C21.209 83.2015 21.3452 83.2251 21.4125 83.2376C21.4767 82.8882 21.807 82.8631 22.0888 82.802C22.236 82.5967 22.4379 82.451 22.6493 82.3194L22.4786 82.2614C22.5365 82.2441 22.6555 82.2112 22.7134 82.194C22.8215 82.1846 23.0344 82.1627 23.1408 82.1533C23.3177 81.7647 23.8923 81.9574 24.0019 81.5108C24.0754 81.5061 24.2195 81.4998 24.2915 81.4951C24.2884 81.4262 24.2805 81.2899 24.2758 81.2209C24.6328 81.1865 24.9568 81.0517 25.1932 80.7759C25.2997 80.7791 25.5126 80.7869 25.619 80.7916C25.6206 80.6991 25.6222 80.5142 25.6222 80.4218C25.7224 80.4218 25.9196 80.4234 26.0198 80.4234C26.0104 80.3497 25.9932 80.2009 25.9854 80.1256C26.0809 80.1194 26.2734 80.1053 26.3689 80.0974C26.3611 80.0128 26.3486 79.842 26.3407 79.7558C26.5474 79.7684 26.754 79.7809 26.9607 79.795C26.9904 79.7261 27.0515 79.585 27.0828 79.5145C27.2268 79.3813 27.3677 79.245 27.5071 79.1087C27.6714 79.0915 27.8358 79.0758 28.0018 79.0601C28.1708 78.847 28.343 78.6386 28.5105 78.4271C28.5794 78.4114 28.7172 78.3816 28.7861 78.366C28.7704 77.9554 28.797 77.5402 28.7235 77.1343C28.6436 77.0967 28.4871 77.02 28.4088 76.9824C28.4072 76.9369 28.4041 76.8445 28.4025 76.799C28.3994 76.2302 28.4213 75.663 28.3978 75.0958C28.3243 75.0284 28.1771 74.892 28.1051 74.8247C28.0378 74.2277 28.1364 73.6228 28.0534 73.0258C27.9751 72.9772 27.8202 72.877 27.7434 72.8268C27.7544 72.5009 27.7528 72.1765 27.7434 71.8522C27.7341 71.531 27.7341 71.2113 27.7341 70.8916C27.6605 70.8619 27.5149 70.8023 27.4413 70.7726C27.4178 70.3542 27.4194 69.9358 27.3975 69.519C27.3787 69.1539 27.3583 68.7904 27.3364 68.4268L27.1032 68.3892C27.0875 67.905 27.0624 67.4209 27.039 66.9367C27.0358 66.7439 27.0327 66.5512 27.0296 66.36C26.9497 66.36 26.7932 66.3585 26.7149 66.3585C26.7086 66.0467 26.7055 65.7364 26.6914 65.4261C26.6758 65.0344 26.6679 64.6442 26.6601 64.2525C26.5912 64.2494 26.455 64.2431 26.3861 64.2384C26.336 63.4878 26.3658 62.7357 26.3439 61.9836C26.2609 61.9084 26.0965 61.7595 26.0136 61.6858C25.9603 61.0904 26.0683 60.4918 25.9979 59.8995C25.9165 59.8384 25.7552 59.7146 25.6738 59.6535C25.6707 59.0502 25.7192 58.4376 25.6159 57.8421C25.5564 57.7779 25.4374 57.6478 25.378 57.5836C25.3357 56.8205 25.3326 56.0558 25.2997 55.2927C25.2136 55.2911 25.0398 55.2865 24.9537 55.2833C24.9506 55.2159 24.9427 55.0812 24.938 55.0138C24.9255 54.4419 24.9819 53.8684 24.9208 53.2996C24.8504 53.2479 24.7095 53.146 24.639 53.0943C24.6375 53.0692 24.6359 53.0191 24.6343 52.994C24.6296 52.4001 24.6328 51.8063 24.639 51.2124C24.5498 51.1811 24.3698 51.1199 24.2805 51.0886C24.2664 50.49 24.2993 49.893 24.3009 49.2945C24.3431 48.9059 24.0128 48.6207 23.9784 48.2462C23.933 47.7338 23.9392 47.2183 23.9314 46.7043C23.8516 46.6714 23.6903 46.604 23.6105 46.5711C23.623 46.2405 23.6089 45.9099 23.5776 45.5824C23.5338 45.1468 23.5651 44.7096 23.5839 44.274C23.5025 44.2724 23.3396 44.2693 23.2567 44.2677C23.2551 44.2144 23.2488 44.1063 23.2473 44.0515C23.241 43.9371 23.2301 43.7099 23.2254 43.5971C23.2222 43.1176 23.2207 42.6396 23.216 42.1617C23.1487 42.157 23.014 42.1492 22.9467 42.1445C22.9451 41.8295 22.942 41.5146 22.9248 41.2012C22.895 40.7609 22.8919 40.3206 22.8856 39.8787C22.8168 39.8442 22.6774 39.7737 22.6086 39.7377C22.5898 39.4885 22.5835 39.2394 22.5741 38.9902C22.477 38.5296 22.823 37.8244 22.2594 37.5925C22.214 36.9814 22.2563 36.364 22.1749 35.7561C22.1091 35.6918 21.9776 35.5649 21.9119 35.5006C21.8837 35.3157 21.8461 35.134 21.8086 34.9522C21.7929 34.3975 21.8634 33.8444 21.854 33.2913C21.7694 33.249 21.6004 33.1659 21.5158 33.1252C21.5111 33.0813 21.5033 32.9935 21.5002 32.9497C21.5111 32.373 21.5299 31.7964 21.5221 31.2198C20.9413 30.9267 21.2685 30.1464 21.2027 29.6309Z" fill="white"/>
<path d="M72.644 68.7387C72.7161 68.7199 72.8601 68.6807 72.9321 68.6619C72.907 69.1288 73.3376 68.9847 73.6366 68.9956C73.9387 69.414 74.2737 69.8167 74.4851 70.2931C74.745 70.6237 74.7512 71.0421 74.7418 71.4448C74.8123 71.4385 74.9547 71.4244 75.0252 71.4166C75.0236 71.7597 75.0283 72.1045 75.0596 72.4476C75.0753 72.6827 75.0956 72.9193 75.1176 73.1559L75.3618 73.1512C75.2256 73.5774 75.0628 74.0005 74.781 74.3546C74.5477 74.3358 74.3176 74.3185 74.0874 74.3044C74.0561 74.3828 73.9919 74.5395 73.9606 74.6194C73.8589 74.6272 73.6569 74.6413 73.5567 74.6492C73.5614 74.563 73.5693 74.3922 73.5724 74.306C73.3141 74.3185 73.0542 74.3279 72.7975 74.3405C72.6769 74.2292 72.5595 74.118 72.4437 74.0052C72.2652 73.9864 72.0867 73.9691 71.9098 73.9534C71.8754 73.709 71.7251 73.5758 71.484 73.5617C71.4777 73.4881 71.4652 73.3408 71.4605 73.2687C71.3744 73.2812 71.2022 73.3063 71.1161 73.3204C71.1286 73.2311 71.1505 73.0525 71.1615 72.9647C71.0848 72.9631 70.9298 72.96 70.8515 72.9584C70.7435 72.3583 70.3819 71.8302 70.4461 71.1988C70.5228 71.1502 70.6731 71.0499 70.7498 70.9998C70.7764 70.7882 70.8061 70.5798 70.8374 70.3714C70.8437 70.3213 70.8593 70.2241 70.8672 70.174C71.2179 69.8794 71.4308 69.4454 71.83 69.2072C71.8347 69.1539 71.8425 69.0474 71.8472 68.9941C72.0413 68.9909 72.2354 68.9878 72.4311 68.9815C72.4844 68.9204 72.5908 68.7982 72.644 68.7387Z" fill="white"/>
<path d="M65.0154 0.0438744C65.6557 0.0376066 66.2975 0.0297719 66.9394 0C67.8756 0.162962 68.8211 0.00156693 69.7636 0.0172364C71.4355 0.0313389 73.1075 0.0141025 74.7779 0.0250711C75.8503 0.0689455 76.9258 0.14886 77.9982 0.0344728C78.4491 0.0172364 78.9109 0.0626777 79.3148 0.283617C79.7907 0.365098 80.276 0.390169 80.7598 0.347861C81.4329 0.376066 82.1766 0.249144 82.7824 0.615809C83.2708 0.667518 83.7624 0.701991 84.254 0.714526C84.6329 1.16111 85.2763 1.02321 85.7929 1.05299C85.9698 1.05299 86.1483 1.05142 86.3283 1.04985C86.3565 1.13603 86.4128 1.3084 86.441 1.39458C86.8574 1.41495 87.2754 1.44316 87.6903 1.49643C88.0582 1.82392 88.5795 1.73304 89.0241 1.85056C89.5251 1.97748 90.0198 2.12948 90.5317 2.20782C90.8636 2.38019 91.2284 2.46637 91.6041 2.45697C91.8233 2.46637 92.044 2.47264 92.2663 2.4695C92.2068 2.71238 92.3117 2.8205 92.5794 2.79386C92.7939 2.78916 93.0099 2.78916 93.2275 2.79699C93.2495 2.87221 93.2917 3.02263 93.3136 3.09941C94.3406 3.1856 95.2314 3.75596 96.2333 3.9534C96.4134 4.05682 96.6059 4.14143 96.8173 4.1712C96.8846 4.17591 97.0208 4.18374 97.0881 4.18844C97.2697 4.5034 97.6282 4.54257 97.9523 4.59271C98.0165 4.65226 98.1448 4.77448 98.2074 4.83402C98.364 4.87476 98.5205 4.91394 98.6802 4.95468C99.0059 5.11294 99.3471 5.23046 99.6931 5.34014C100.127 5.55168 100.564 5.78202 101.049 5.8541C101.202 5.88074 101.357 5.90738 101.514 5.93402C101.508 5.99043 101.495 6.10168 101.489 6.15809C102.533 6.50125 103.463 7.10609 104.473 7.52916C104.537 7.54327 104.665 7.57304 104.729 7.58871C104.814 7.60594 104.985 7.64355 105.069 7.66235C105.068 7.69683 105.064 7.76891 105.064 7.80495C105.388 7.90053 105.73 7.99768 105.955 8.2719C106.063 8.28757 106.279 8.31577 106.387 8.33144C106.412 8.38942 106.462 8.50694 106.487 8.56491C106.73 8.65736 106.971 8.76235 107.186 8.91591C107.369 8.98172 107.557 9.04597 107.746 9.10864C107.743 9.15408 107.735 9.2481 107.73 9.29354C107.796 9.30608 107.929 9.32958 107.995 9.34055C108.562 9.90465 109.326 10.1883 109.958 10.6662C110.091 10.7195 110.226 10.7727 110.362 10.826C111.359 11.4951 112.285 12.3146 113.398 12.7863C113.42 12.7941 113.463 12.8082 113.485 12.816C113.726 13.2234 114.116 13.5024 114.515 13.7421C115.22 14.1573 115.755 14.8217 116.529 15.1288C116.64 15.2385 116.751 15.3513 116.864 15.4642C117.194 15.7008 117.531 15.9264 117.861 16.1662C118.169 16.4576 118.482 16.7475 118.817 17.0123C118.83 17.0546 118.853 17.1424 118.866 17.1847C119.046 17.263 119.229 17.3429 119.408 17.4307C119.426 17.4652 119.462 17.5357 119.48 17.5701C119.616 18.0324 120.001 18.3191 120.4 18.5432C120.464 18.6827 120.53 18.8237 120.597 18.9632C120.715 18.9741 120.951 18.9929 121.07 19.0039L121.133 19.0478C121.524 19.4834 121.959 19.8751 122.357 20.3045C122.943 20.8795 123.542 21.4436 124.09 22.0563C124.154 22.0814 124.283 22.1299 124.348 22.1534C124.345 22.202 124.337 22.2976 124.334 22.3462C124.602 22.5342 124.864 22.7489 125.036 23.0341C125.073 23.0983 125.147 23.2268 125.184 23.2911C125.57 23.7831 125.905 24.3534 126.479 24.648C126.49 24.6684 126.51 24.7107 126.52 24.7326C126.748 24.9802 126.974 25.2309 127.199 25.4832C127.462 25.7966 127.733 26.1053 128.029 26.3889C128.261 26.7195 128.492 27.0501 128.724 27.3839C128.943 27.6566 129.184 27.9104 129.447 28.1439C129.463 28.2285 129.497 28.3962 129.513 28.4808C129.584 28.5278 129.723 28.6249 129.792 28.6719C129.994 28.9759 130.185 29.2877 130.326 29.6262C130.366 29.634 130.448 29.6497 130.488 29.6575C130.64 29.9114 130.8 30.1621 130.95 30.4175C130.999 30.4206 131.096 30.4269 131.144 30.43C131.238 30.8766 131.509 31.237 131.846 31.5332C131.899 31.6632 131.954 31.7949 132.01 31.9249C132.126 32.1051 132.236 32.2884 132.347 32.4749C132.409 32.5172 132.533 32.605 132.596 32.6488C132.61 32.735 132.639 32.9105 132.654 32.9967C132.821 33.1424 132.948 33.3226 133.042 33.5263C133.117 33.5373 133.266 33.5624 133.339 33.5749C133.245 33.6877 133.158 33.8005 133.067 33.9118C133.128 33.8883 133.25 33.8413 133.309 33.8162C133.335 33.8867 133.385 34.0277 133.41 34.0983C133.499 34.2456 133.577 34.3975 133.643 34.5574C134.053 35.5916 134.654 36.5333 135.241 37.4735C135.349 37.6897 135.46 37.9075 135.578 38.1206C135.963 38.8148 136.145 39.6421 136.75 40.1937C136.769 40.2595 136.807 40.3942 136.824 40.4616C137.186 41.6149 137.95 42.6162 138.18 43.8117C138.26 43.8462 138.418 43.9183 138.498 43.9543C138.521 44.1878 138.596 44.4166 138.743 44.6046C138.761 44.6657 138.793 44.788 138.809 44.8506C138.963 45.6482 139.431 46.3424 139.576 47.1446C139.628 47.2089 139.73 47.3405 139.78 47.4047C139.824 47.7824 139.943 48.1443 140.187 48.4421C140.202 48.4969 140.235 48.6082 140.253 48.663C140.514 49.0704 140.584 49.564 140.573 50.0403C140.547 50.3052 140.656 50.4086 140.901 50.3537C140.901 50.6985 140.926 51.0448 140.949 51.3895C141.017 51.3879 141.151 51.3848 141.218 51.3832C141.22 51.4804 141.222 51.6731 141.223 51.7687C141.178 52.2059 141.392 52.5866 141.588 52.958C141.586 53.0473 141.586 53.2259 141.586 53.3137C141.647 53.3121 141.768 53.3074 141.829 53.3059C141.865 53.7054 141.904 54.1066 141.929 54.5093C141.892 55.0765 142.183 55.5826 142.253 56.1342C142.249 56.5071 142.285 56.891 142.543 57.184C142.552 57.4206 142.56 57.6588 142.573 57.897C142.587 58.2198 142.609 58.5426 142.659 58.8622C142.726 58.9061 142.862 58.9923 142.931 59.0362C142.941 59.3934 142.945 59.7523 142.945 60.1111C142.909 60.5044 142.977 60.8977 143.263 61.1907C143.362 61.9993 143.122 62.93 143.642 63.632C143.639 63.9172 143.645 64.2024 143.651 64.4891C143.629 65.387 143.719 66.277 143.908 67.1529C144.03 70.2884 144.032 73.4317 143.906 76.5656C143.72 77.3945 143.629 78.2391 143.658 79.0899C143.653 79.6524 143.603 80.2134 143.626 80.7759C143.55 80.7524 143.398 80.7039 143.321 80.6788C143.315 80.9358 143.313 81.1912 143.313 81.4497C143.312 81.7302 143.313 82.0107 143.315 82.2943C143.297 82.6688 143.269 83.0433 143.229 83.4178C142.798 83.9678 143 84.7074 142.934 85.3499C142.895 85.1603 142.851 84.9738 142.804 84.7889C142.529 85.3483 142.596 85.9939 142.391 86.5752C142.227 87.0375 142.205 87.5326 142.26 88.0168C141.993 87.893 141.809 88.2283 141.898 88.4524C141.918 88.6843 141.934 88.9194 141.946 89.1544C141.945 89.3252 141.94 89.4991 141.934 89.6731C141.849 89.7091 141.677 89.7843 141.591 89.8203C141.544 90.5474 141.254 91.2212 141.09 91.9248C141.062 91.9937 141.004 92.1332 140.976 92.2037C140.945 92.2758 140.882 92.4199 140.851 92.4936C140.351 92.702 139.777 92.7991 139.385 93.2002C139.515 93.1987 139.773 93.1924 139.902 93.1908C139.667 93.2222 139.431 93.2316 139.197 93.2488C138.937 93.2551 138.681 93.3068 138.447 93.4196C137.801 93.7173 137.118 93.9273 136.465 94.2078L136.448 94.2125C136.163 94.2783 135.877 94.3175 135.587 94.3285C135.197 94.3065 134.809 94.2924 134.421 94.2955C134.167 94.2313 133.832 94.3332 133.649 94.1012C132.827 93.3366 132.289 92.3416 131.68 91.4155C131.573 91.2008 131.47 90.9877 131.364 90.7762C131.235 90.5693 131.11 90.3656 130.978 90.1635C130.941 90.093 130.866 89.9535 130.828 89.883C130.639 89.6229 130.454 89.3628 130.264 89.1058C129.681 88.2816 128.884 87.5561 127.902 87.26C127.39 86.8698 126.709 87.0171 126.114 86.9857C125.499 87.0343 124.766 86.8557 124.283 87.3446C124.225 87.3493 124.107 87.3602 124.049 87.3665C123.833 87.3868 123.62 87.4167 123.411 87.4527C123.383 87.5169 123.326 87.6454 123.298 87.7081C122.714 87.7677 122.061 87.6893 121.567 88.0701C121.305 88.0967 121.047 88.1234 120.788 88.1484C121.119 88.2158 121.446 88.2894 121.775 88.3756C121.855 88.2033 121.938 88.0309 122.024 87.8617C122.196 87.8883 122.54 87.9431 122.712 87.9698C122.482 88.0387 122.246 88.0951 122.016 88.1531C121.92 88.2565 121.828 88.3599 121.737 88.4665C121.363 88.4618 120.992 88.4508 120.622 88.4461L120.345 88.4477C119.685 88.6451 119.001 88.7768 118.367 89.0541C118.146 89.0933 117.927 89.1325 117.709 89.1732C117.678 89.1795 117.612 89.192 117.581 89.1983C116.948 89.3941 116.289 89.5023 115.68 89.7671C115.519 89.8015 115.359 89.8376 115.201 89.8736C114.702 90.1557 114.124 90.2215 113.6 90.4361C112.926 90.7213 112.076 90.6633 111.519 91.1679C111.472 91.1679 111.377 91.1679 111.328 91.1679C111.002 91.1601 110.66 91.1616 110.403 91.392C110.033 91.5048 109.512 91.4264 109.354 91.8714C109.332 91.873 109.288 91.8746 109.265 91.8746C108.493 91.8887 107.68 92.1285 106.937 91.8198C106.317 91.475 105.918 90.8608 105.448 90.3484C105.257 89.9504 105.03 89.5665 104.709 89.2609C104.703 89.2249 104.69 89.1497 104.684 89.1121C104.665 89.0557 104.628 88.9429 104.609 88.8864C104.44 88.5746 104.272 88.2628 104.116 87.9479C103.763 87.307 103.28 86.757 102.841 86.1772C102.301 85.483 101.478 85.1164 100.753 84.6573C99.9718 84.5993 99.1922 84.4332 98.4078 84.5397C97.4748 84.5648 96.6216 84.9644 95.7277 85.1822C95.3269 85.2888 94.8853 85.3263 94.5613 85.6162C94.5206 85.6178 94.4376 85.6209 94.3969 85.6225C93.6141 85.7071 92.8471 85.9453 92.116 86.2305C91.3599 86.2822 90.6789 86.6316 89.9368 86.7397C89.4406 87.0954 88.7455 86.8745 88.2962 87.3054C87.8672 87.4026 87.2801 87.2584 87.0499 87.7426C86.9936 87.7426 86.8824 87.7457 86.8276 87.7473C86.4143 87.7316 85.9588 87.7018 85.6629 88.0481C85.6097 88.0497 85.5048 88.0544 85.4515 88.0559C85.1353 88.0669 84.8207 88.0826 84.506 88.1108C83.9205 88.5104 83.1408 88.3709 82.5334 88.7548C82.4739 88.7579 82.3581 88.7626 82.2986 88.7658C81.3499 88.8316 80.3996 88.8269 79.4509 88.7783C79.3711 88.7752 79.213 88.772 79.1347 88.7705C79.1143 88.6937 79.0737 88.5417 79.0549 88.4649C77.6506 88.3647 76.9414 86.9998 76.0209 86.1364L76.0146 86.0988C76.0005 86.0158 75.9724 85.8497 75.9583 85.7651C75.7736 85.4627 75.6155 85.1462 75.4495 84.8343C75.3947 84.651 75.3399 84.4677 75.2883 84.2859L75.1411 84.3596C75.0394 83.8534 74.8421 83.3771 74.6151 82.9148C74.5384 82.871 74.3849 82.7832 74.3066 82.7393L74.2941 82.6374C74.2925 82.1094 73.8136 81.818 73.466 81.503C72.9103 80.9499 72.0508 81.1254 71.362 81.2523C71.3134 81.2821 71.2148 81.3401 71.1663 81.3683C69.5961 82.2113 68.4157 83.5635 67.0255 84.6447C66.4071 85.1148 65.867 85.6805 65.2298 86.1271C64.3484 86.7335 63.5406 87.4621 62.5512 87.8946C62.6733 87.9243 62.9159 87.9823 63.038 88.0105C62.9128 88.0512 62.7875 88.0904 62.6623 88.1296C62.3069 88.2032 61.9673 88.3255 61.6307 88.4571C61.5916 88.5166 61.5117 88.6342 61.471 88.6921C61.0311 88.8817 60.61 89.1105 60.1873 89.3346C59.9133 89.4412 59.6425 89.5524 59.3936 89.7107C59.237 89.753 59.0805 89.7953 58.9239 89.8392C58.877 89.8987 58.7846 90.0146 58.7376 90.0742C58.4245 90.1588 58.1176 90.2747 57.8499 90.4628L57.7638 90.4643C57.4742 90.4972 57.1893 90.5819 56.9717 90.7856C56.9247 90.7934 56.8323 90.8091 56.7854 90.8169C56.4002 90.8576 56.0528 91.0269 55.6896 91.1413C55.2121 91.2212 54.7268 91.229 54.2477 91.2776C54.6219 91.3497 54.9975 91.4202 55.3748 91.4813C54.9208 91.544 54.4621 91.5565 54.005 91.5424C52.3831 91.5299 50.7612 91.569 49.1378 91.5283C48.6572 91.533 48.1734 91.5518 47.696 91.4876C48.0122 91.5032 48.3269 91.4844 48.6432 91.4625C48.3035 91.0191 47.6976 91.1585 47.217 91.0598C46.9493 90.8796 46.6362 90.795 46.3262 90.7245C45.3916 90.4503 44.5932 89.8799 43.6961 89.5226C43.6053 89.485 43.4253 89.4082 43.3361 89.3706C43.1106 89.2547 42.8868 89.1325 42.6629 89.0196C42.5471 88.9256 42.4311 88.8347 42.3137 88.7454C40.8687 87.6893 39.5413 86.4452 38.4908 84.9942C38.1104 84.311 37.6439 83.6826 37.1632 83.07C37.0286 82.871 36.894 82.6751 36.7562 82.4808C36.728 82.4385 36.6701 82.3523 36.6419 82.3084C36.4603 82.0514 36.274 81.7992 36.0862 81.5485C36.0595 81.4795 36.0048 81.3432 35.9781 81.2742C35.8247 81.0784 35.6948 80.8653 35.593 80.6412C35.4239 80.4297 35.2533 80.2212 35.078 80.016C34.84 79.4817 34.4799 79.0131 34.0666 78.6042C34.3672 77.8849 35.1641 77.6029 35.7277 77.1297C36.0423 76.9025 36.3382 76.6517 36.6106 76.376C36.6873 76.3493 36.8407 76.2961 36.9175 76.2694C37.4372 75.8369 38.0243 75.4953 38.5503 75.0707C38.7335 74.9359 38.9166 74.8043 39.0998 74.6711C39.1671 74.6335 39.3017 74.5599 39.3691 74.5238C40.1127 73.8579 40.9549 73.3236 41.7486 72.7219C41.6391 72.6858 41.4229 72.6137 41.3149 72.5777C41.4668 72.4931 41.6405 72.4664 41.8065 72.4163C41.974 72.2376 42.1415 72.0606 42.3043 71.8804C42.2965 71.9885 42.2825 72.2048 42.2746 72.3113C42.4735 72.1546 42.6692 71.9964 42.8633 71.8334C42.94 71.8177 43.095 71.788 43.1717 71.7723C44.3897 70.7224 45.7736 69.8841 47.0385 68.8938C50.0709 66.6797 53.1206 64.486 56.1514 62.2703C55.3545 62.1105 54.5405 62.1387 53.7374 62.2108C53.6763 62.2797 53.5542 62.4192 53.4947 62.4897C53.2348 62.5116 52.9765 62.5305 52.7198 62.5602C50.993 63.4189 49.3539 64.4515 47.8213 65.622C47.7461 65.6377 47.5943 65.6675 47.5176 65.6831C46.9415 66.1219 46.2823 66.4619 45.7923 67.0088L45.7641 67.0135C45.6686 67.026 45.4761 67.0495 45.3806 67.0621C45.3775 67.1216 45.3728 67.2423 45.3697 67.3018C45.1223 67.3707 44.8687 67.4444 44.6934 67.6465C44.6276 67.6794 44.4961 67.7437 44.4304 67.7766C44.0249 68.0931 43.5443 68.3015 43.1607 68.6478C42.6269 68.9205 42.1087 69.2432 41.722 69.7102C41.7956 69.7149 41.9427 69.7274 42.0163 69.7321C41.9364 69.7744 41.7736 69.8575 41.6938 69.8982C41.556 69.9922 41.4229 70.1082 41.2476 70.1191L40.933 70.1145C40.3318 70.3887 39.8465 70.8525 39.2689 71.169C38.7742 71.4432 38.3138 71.7738 37.9052 72.1656C37.8676 72.1781 37.7941 72.2032 37.7565 72.2173C36.8579 72.6482 36.0642 73.2797 35.2204 73.8109C35.175 73.8422 35.0827 73.9018 35.0373 73.9331C34.3876 74.3092 33.7238 74.6774 33.1665 75.1898C32.4604 75.5032 31.8843 76.0359 31.1877 76.3697C31.1783 75.2822 31.2659 74.1948 31.2033 73.1073C31.1407 72.1531 31.2659 71.1862 31.0671 70.2429C30.7791 68.4378 31.0092 66.592 30.6303 64.8025C30.5959 64.7367 30.5254 64.6051 30.4909 64.5408C30.48 64.3528 30.4753 64.1648 30.4753 63.9799C30.4753 63.2277 30.5144 62.4395 30.2076 61.736C30.181 61.5386 30.159 61.3427 30.1403 61.1484C30.1074 60.6658 30.0824 60.1847 30.0574 59.7037C30.0855 59.5439 30.1137 59.3856 30.1419 59.2273C30.0448 59.0691 29.9462 58.9108 29.857 58.7478C29.8351 58.1853 29.8178 57.6165 29.6174 57.0838C29.392 56.4617 29.5517 55.7769 29.3278 55.1548C29.0366 54.3823 29.2416 53.4954 28.7736 52.7793C28.772 52.7229 28.7689 52.6117 28.7657 52.5553C28.7767 52.0507 28.7203 51.5383 28.4808 51.087C28.4745 50.9977 28.4636 50.8207 28.4573 50.7313C28.4511 50.2722 28.3869 49.8163 28.2288 49.3854C27.9204 47.5066 27.4257 45.6623 27.014 43.8008C26.7729 42.8716 26.4394 41.958 26.3439 40.9991C26.333 40.7781 26.2438 40.5776 26.1013 40.4115C26.0543 40.1247 26.0105 39.838 25.9682 39.5512C25.9025 39.4838 25.7725 39.3491 25.7068 39.2817C25.6864 39.0153 25.6645 38.7489 25.6363 38.4841C25.2966 37.8166 25.2168 37.0535 24.8896 36.3782C24.445 35.1371 24.1585 33.8319 23.5401 32.6582C23.083 31.8403 22.7839 30.8045 21.9119 30.3282C21.7694 29.7515 21.3531 29.3097 20.8412 29.037C20.8239 29.5118 20.8552 29.9897 21.0008 30.4457C21.2811 31.2605 21.0556 32.1819 21.5002 32.9497C21.5033 32.9935 21.5111 33.0813 21.5158 33.1252C21.5769 33.7378 21.519 34.3881 21.8086 34.9522C21.8461 35.134 21.8837 35.3157 21.9119 35.5006C21.8962 35.825 21.8791 36.151 21.8838 36.4769C21.8603 36.8091 21.9073 37.1475 22.1859 37.3653C22.2063 37.6568 22.1969 37.9482 22.1906 38.2413C22.1531 38.7584 22.1264 39.3522 22.5711 39.7158C22.5695 40.0793 22.5664 40.4428 22.5538 40.8063C22.5053 41.2576 22.618 41.6964 22.762 42.121C22.9718 42.7572 22.6148 43.5939 23.2473 44.0515C23.2488 44.1063 23.2551 44.2144 23.2567 44.2677C23.2802 44.73 23.3147 45.1922 23.3444 45.656L23.5776 45.5824C23.6089 45.9099 23.623 46.2405 23.6105 46.5711C23.5745 47.1415 23.62 47.7119 23.6732 48.2791L23.9049 48.2149C23.9284 48.873 23.8673 49.5468 24.0567 50.1876C24.3964 51.098 24.1568 52.1197 24.6343 52.994C24.6359 53.0191 24.6375 53.0692 24.639 53.0943C24.6562 53.6568 24.6923 54.2225 24.8223 54.7709C24.852 54.8321 24.9099 54.9527 24.938 55.0138C24.9427 55.0812 24.9506 55.2159 24.9537 55.2833C24.9772 55.7597 24.9444 56.2517 25.126 56.703C25.45 57.4755 25.1902 58.3389 25.4547 59.1239C25.7678 60.0014 25.5518 60.9729 25.9557 61.83C25.9369 62.9535 26.3909 64.0081 26.38 65.1316L26.4755 65.2256C26.5302 65.2757 26.6382 65.376 26.6914 65.4261C26.7055 65.7364 26.7086 66.0467 26.7149 66.3585C26.7274 66.8098 26.7651 67.2595 26.787 67.7123C26.7901 67.7578 26.7948 67.8487 26.798 67.8957C26.8574 68.0539 26.9248 68.2106 26.9921 68.3673C27.0531 68.864 27.0563 69.3639 27.0735 69.8637C27.0829 70.1787 27.2144 70.4639 27.36 70.7365C27.4069 71.2176 27.4242 71.7018 27.4696 72.1828C27.5604 72.0716 27.6526 71.9619 27.7434 71.8522C27.7528 72.1765 27.7544 72.5009 27.7434 72.8268C27.7059 73.4113 27.6872 74.0177 27.9079 74.574C28.2257 75.2854 27.8906 76.1581 28.4025 76.799C28.4041 76.8445 28.4072 76.9369 28.4088 76.9824C28.4276 77.4258 28.4323 77.8677 28.4355 78.3127C27.1048 79.1228 25.8633 80.0661 24.5608 80.9154C23.9331 81.3244 23.2395 81.6487 22.7134 82.194C22.6555 82.2112 22.5365 82.2441 22.4786 82.2614C22.4442 82.2724 22.3754 82.2928 22.3409 82.3037C21.0932 83.1185 19.8345 83.9396 18.8169 85.0443C18.806 85.317 18.7856 85.5912 18.7684 85.867C19.0001 85.8999 19.2317 85.9406 19.465 85.9719C19.6622 85.9907 19.8611 86.0111 20.0583 86.0283C19.9503 86.0424 19.7343 86.0707 19.6263 86.0848C19.7766 86.185 19.9285 86.2838 20.0819 86.3825C20.1304 86.4483 20.2275 86.5799 20.276 86.6457C20.6658 86.6912 21.0932 86.6614 21.3953 86.9591C22.1249 87.0484 22.9296 87.155 23.5933 86.7554C24.2743 86.4248 24.9256 85.9986 25.4031 85.4C25.4579 85.3593 25.569 85.2778 25.6238 85.2355C25.8164 85.0208 26.0073 84.8061 26.2139 84.604L26.2405 84.5836C26.336 84.5429 26.5255 84.4614 26.6195 84.4207C27.3881 83.8017 28.0347 83.0026 28.9505 82.5905C29.1791 82.4824 29.4045 82.3664 29.6127 82.2238C29.7724 82.2207 29.932 82.2191 30.0917 82.2191C30.6725 82.5701 31.2957 82.8976 31.6871 83.4758C32.509 84.6024 33.2166 85.8105 34.0275 86.945C34.7351 87.716 35.4349 88.5041 36.2365 89.181C36.9221 89.8862 37.6579 90.538 38.3687 91.2181C38.5847 91.4515 38.879 91.5722 39.1671 91.6897L39.1123 91.8057C39.2485 91.9044 39.3831 92.0047 39.5178 92.1081C39.9718 92.5233 40.5526 92.7725 40.9737 93.2269C41.005 93.2206 41.0691 93.2081 41.1004 93.2018L41.2507 93.2331C41.8863 93.6766 42.5266 94.2093 43.3282 94.2877C43.3767 94.2939 43.4738 94.3049 43.5239 94.3096C43.8855 94.7217 44.4788 94.7672 44.9657 94.9568C45.3915 94.9756 45.8205 94.9693 46.2463 95.0022C45.8956 94.9803 45.5231 94.9756 45.2695 95.2576C46.2652 95.22 47.1606 95.7591 48.1547 95.6823C49.8705 95.6149 51.5926 95.734 53.3068 95.6384C53.3522 95.5507 53.4398 95.3767 53.4852 95.2905C53.5964 95.2811 53.7075 95.2764 53.8203 95.2749C54.257 95.2999 54.6986 95.2952 55.1275 95.1918C54.8191 95.1307 54.5107 95.0821 54.2023 95.0445C54.6563 94.9207 55.1306 94.9505 55.5956 94.9662C56.2312 95.0273 56.8073 94.7217 57.3928 94.5321C57.7936 94.3927 58.1866 94.2282 58.5732 94.0542C59.2026 93.8975 59.7912 93.6249 60.3752 93.3491C61.9203 92.6612 63.4279 91.873 64.8353 90.9313C66.8705 89.8297 68.6693 88.3537 70.5902 87.0719C70.7483 87.0798 70.908 87.0907 71.0676 87.1017C71.5075 88.2048 72.1964 89.1716 72.8414 90.1588C73.2578 90.7057 73.7901 91.146 74.2472 91.6584C74.4758 91.9263 74.7842 92.1018 75.1035 92.2428C75.1474 92.2695 75.235 92.3212 75.2789 92.3463C76.0601 92.8649 76.9102 93.3397 77.8761 93.3475L77.8056 93.5559C78.6729 93.6186 79.5418 93.5826 80.4091 93.5983C81.0697 93.581 81.7445 93.6562 82.3942 93.5042C82.4552 93.4463 82.5788 93.3318 82.6399 93.2739C82.715 93.2723 82.8622 93.2676 82.9357 93.266C83.241 93.2519 83.5479 93.2332 83.8564 93.2128C83.9111 93.1344 84.0207 92.9808 84.0755 92.9025C84.1099 92.9025 84.1772 92.8994 84.2116 92.8994C84.9694 92.8696 85.6786 92.5672 86.3831 92.3118C87.0156 92.1159 87.6402 91.8793 88.3056 91.8119L88.257 91.6223C88.6249 91.5769 88.9944 91.5346 89.3638 91.4923C89.428 91.4312 89.5548 91.3089 89.6175 91.2478C90.4409 91.1319 91.2378 90.8639 92.008 90.5568C92.7563 90.491 93.4561 90.2027 94.1903 90.0632C94.5895 89.7796 95.0842 89.7859 95.5523 89.7326C95.9954 89.4302 96.5464 89.438 97.0584 89.3691C97.6971 89.3048 98.3797 89.2437 98.9761 89.5336C99.3941 89.7906 99.69 90.1996 99.9546 90.6038C100.326 91.1883 100.74 91.7602 100.935 92.4356C100.994 92.4748 101.116 92.55 101.176 92.5891C101.22 92.8069 101.266 93.0279 101.315 93.2473C101.403 93.1266 101.489 93.0043 101.575 92.8837C101.634 93.0467 101.767 93.1626 101.893 93.2817C101.911 93.4791 101.927 93.6781 101.941 93.8787L101.807 93.7691C101.803 93.6719 101.799 93.476 101.796 93.3789C101.731 93.3554 101.601 93.3068 101.537 93.2817C101.619 93.744 101.941 94.0934 102.204 94.4616C102.719 95.1542 103.294 95.8562 104.097 96.2213C105.384 96.8261 106.833 96.5018 108.17 96.2824C108.761 96.1195 109.401 96.0583 109.932 95.7324C110.395 95.6713 110.901 95.7011 111.303 95.4206C111.618 95.3658 111.937 95.3188 112.256 95.2749L112.2 95.0602C113.338 94.9756 114.389 94.4757 115.47 94.1498C115.525 94.1106 115.636 94.0323 115.693 93.9915L115.732 93.9665C115.981 93.9179 116.231 93.8787 116.485 93.8474C116.505 93.8458 116.546 93.8427 116.566 93.8411C116.948 93.5387 117.476 93.639 117.881 93.3867C118.309 93.2927 118.778 93.2519 119.104 92.9197L119.113 92.9182C119.545 92.9307 119.956 92.7897 120.33 92.5797C120.384 92.5797 120.496 92.5781 120.55 92.5766C120.658 92.5687 120.875 92.55 120.983 92.5406C121.585 92.376 122.185 92.1864 122.816 92.1676C122.914 92.0767 123.015 91.9874 123.116 91.8981C123.384 91.9044 123.652 91.9138 123.923 91.9059C124.507 91.8887 125.092 91.8511 125.679 91.8542C125.762 91.8589 125.928 91.8668 126.011 91.8715C126.517 92.3713 126.957 92.9354 127.448 93.4509L127.512 93.5214C127.497 93.5888 127.467 93.7205 127.451 93.7879C127.62 93.9916 127.747 94.2266 127.855 94.471C128.024 94.8064 128.206 95.137 128.405 95.4582C128.449 95.5977 128.497 95.7387 128.546 95.8813C128.81 96.2213 129.042 96.588 129.23 96.9781C129.627 97.4702 130.075 97.9183 130.523 98.3665C130.725 98.5655 130.963 98.7394 131.248 98.8005C132.12 99.1233 133.043 99.1076 133.959 99.1029C134.191 99.1656 134.629 99.1515 134.57 98.8021C134.911 98.7974 135.252 98.766 135.595 98.7363C135.65 98.6689 135.761 98.5357 135.816 98.4683C136.253 98.4448 136.749 98.4902 137.104 98.1784C137.779 98.0468 138.39 97.7052 139.071 97.5924C138.972 98.0029 138.87 98.4166 138.839 98.8397C138.834 98.9118 138.823 99.0543 138.819 99.1249C138.574 99.081 138.463 99.1907 138.48 99.4539C138.468 99.6843 138.451 99.9146 138.437 100.147C138.365 100.195 138.22 100.294 138.148 100.344C138.141 100.46 138.127 100.692 138.12 100.808C138.048 100.825 137.906 100.861 137.834 100.878C137.673 101.317 137.485 101.746 137.308 102.179C137.195 102.39 137.081 102.6 136.968 102.813C136.895 103.012 136.826 103.213 136.777 103.421C136.768 103.456 136.749 103.522 136.74 103.556C136.578 103.661 136.411 103.772 136.343 103.965C135.974 104.714 135.614 105.468 135.257 106.223C134.733 107.112 134.15 107.977 133.726 108.92C133.701 109.001 133.652 109.166 133.627 109.249C133.61 109.283 133.574 109.352 133.557 109.387C133.392 109.581 133.297 109.815 133.211 110.051C133.151 110.097 133.031 110.186 132.971 110.231C132.94 110.386 132.91 110.543 132.882 110.701C132.616 110.932 132.383 111.197 132.179 111.482C132.019 111.775 131.855 112.069 131.641 112.326C131.625 112.359 131.592 112.427 131.575 112.461C130.944 112.989 130.502 113.71 130.166 114.453C129.919 114.829 129.679 115.211 129.41 115.573C129.15 115.814 128.924 116.092 128.738 116.394C128.697 116.4 128.614 116.411 128.572 116.416C128.463 116.684 128.364 116.974 128.118 117.151C128.11 117.211 128.095 117.33 128.087 117.389C128.027 117.391 127.907 117.395 127.847 117.397C127.689 117.64 127.528 117.881 127.375 118.127C127.31 118.132 127.184 118.138 127.119 118.143C127.116 118.204 127.11 118.328 127.107 118.39C126.797 118.502 126.733 118.829 126.625 119.099C126.561 119.1 126.429 119.1 126.363 119.1C126.366 119.185 126.371 119.354 126.374 119.439C126.315 119.443 126.196 119.454 126.136 119.459C126.022 119.611 125.909 119.766 125.795 119.918C125.676 120.022 125.56 120.127 125.444 120.233C125.195 120.559 124.918 120.862 124.616 121.139C124.482 121.277 124.353 121.421 124.233 121.571C124.176 121.579 124.064 121.595 124.007 121.603C124.009 121.684 124.01 121.846 124.01 121.927C123.949 121.932 123.826 121.941 123.765 121.947C123.653 122.103 123.544 122.259 123.431 122.416C123.317 122.522 123.204 122.632 123.093 122.742C122.841 122.975 122.584 123.203 122.315 123.416C122.307 123.475 122.293 123.596 122.285 123.657C122.229 123.663 122.114 123.677 122.058 123.685C121.628 124.205 121.102 124.633 120.641 125.125C120.51 125.218 120.378 125.31 120.248 125.404C120.076 125.606 119.902 125.81 119.738 126.02C119.671 126.023 119.536 126.029 119.469 126.031C119.469 126.09 119.47 126.209 119.47 126.269C119.142 126.437 118.833 126.636 118.526 126.835C118.52 126.901 118.508 127.029 118.501 127.095C118.439 127.095 118.312 127.096 118.249 127.098C118.074 127.314 117.891 127.526 117.712 127.742C117.665 127.754 117.568 127.783 117.521 127.797C117.351 128.04 117.073 128.142 116.812 128.247C116.809 128.306 116.801 128.424 116.798 128.483C116.734 128.488 116.607 128.499 116.544 128.505C116.515 128.541 116.455 128.613 116.425 128.648C115.931 128.811 115.441 129.053 115.225 129.563C115.184 129.578 115.104 129.607 115.063 129.621C115.06 129.66 115.054 129.737 115.051 129.774C114.728 129.942 114.45 130.179 114.205 130.447C113.809 130.602 113.459 130.845 113.161 131.148C113.034 131.213 112.909 131.279 112.784 131.346C112.618 131.454 112.447 131.559 112.28 131.664C112.225 131.731 112.114 131.863 112.059 131.93C111.953 131.938 111.743 131.954 111.636 131.962C111.63 132.017 111.616 132.126 111.61 132.181C111.433 132.283 111.262 132.394 111.093 132.505C110.88 132.631 110.672 132.758 110.465 132.891L110.373 132.94C109.62 133.278 108.811 133.643 108.275 134.292C108.059 134.359 107.86 134.469 107.682 134.605C107.518 134.665 107.355 134.724 107.197 134.79C107.023 135.025 106.721 135.049 106.462 135.124C106.462 135.182 106.466 135.301 106.466 135.36C106.343 135.368 106.098 135.384 105.976 135.392C105.985 135.464 106.005 135.611 106.015 135.683C105.816 135.697 105.619 135.711 105.421 135.729C105.373 135.794 105.277 135.928 105.23 135.993C104.975 136.058 104.678 136.08 104.538 136.338C104.398 136.363 104.26 136.391 104.124 136.424C103.909 136.467 103.709 136.54 103.508 136.622C102.491 137.181 101.373 137.542 100.393 138.168C100.335 138.168 100.221 138.165 100.163 138.165C99.8998 138.14 99.798 138.25 99.8575 138.494C99.7965 138.494 99.6759 138.494 99.6164 138.494C98.8368 138.524 98.1793 138.989 97.467 139.25C97.0662 139.431 96.5856 139.489 96.2912 139.848C96.2537 139.851 96.1801 139.858 96.1441 139.861C95.82 139.862 95.4975 139.914 95.2173 140.082C94.5833 140.26 93.968 140.516 93.3105 140.603C93.3152 140.672 93.3246 140.813 93.3293 140.882C92.6186 140.738 91.9422 141.022 91.2769 141.227C91.0656 141.266 90.9184 141.417 90.7963 141.584C90.6194 141.594 90.4441 141.6 90.2703 141.609C89.9431 141.613 89.5298 141.545 89.3889 141.932C88.9881 141.957 88.5889 141.987 88.1897 142.017C88.1881 142.075 88.1866 142.191 88.185 142.249C87.8891 142.278 87.5948 142.313 87.3036 142.368C86.6054 142.642 85.8493 142.637 85.126 142.8C84.8066 142.98 84.434 142.963 84.0818 142.973C83.6591 143.007 83.0924 142.849 82.8325 143.292C82.5037 143.288 82.175 143.3 81.8478 143.31C81.6615 143.311 81.4768 143.314 81.2936 143.317C81.0353 143.311 80.7801 143.305 80.5234 143.302C80.1069 143.286 79.6733 143.316 79.357 143.618C78.8248 143.656 78.2925 143.665 77.7602 143.667C77.3485 143.668 76.9383 143.673 76.5297 143.659C75.9505 143.634 75.3415 143.529 74.7998 143.794C74.2034 144.077 73.5333 143.985 72.8977 143.988C71.8003 143.971 70.7029 144.013 69.6086 143.982C69.3377 144.019 69.1468 143.842 69.009 143.637C68.4877 143.603 67.9648 143.615 67.4482 143.681C66.4274 143.723 65.4083 143.634 64.3891 143.632C64.2733 143.299 63.932 143.314 63.644 143.308C63.3512 143.308 63.0585 143.317 62.7673 143.327C62.5606 143.325 62.3555 143.325 62.1505 143.325C61.6558 143.27 61.1016 143.377 60.6632 143.092C60.2624 143.037 59.8617 142.999 59.4609 142.968C58.9772 142.783 58.484 142.576 57.9533 142.622C57.7967 142.62 57.6402 142.62 57.4852 142.622C56.8277 142.252 56.0637 142.216 55.3577 141.989C54.7424 141.906 54.1601 141.683 53.5464 141.6C53.4728 141.597 53.3256 141.587 53.2521 141.583C53.0939 141.456 52.9452 141.307 52.7401 141.269C51.591 141.005 50.4967 140.555 49.3524 140.274C49.2929 140.263 49.1723 140.241 49.1128 140.23C48.8717 140.213 48.6307 140.201 48.3911 140.194C48.3958 140.127 48.4052 139.994 48.4099 139.927C48.0859 139.903 47.7634 139.883 47.444 139.842C47.4002 139.76 47.3141 139.599 47.2718 139.518C47.0902 139.511 46.9086 139.507 46.7285 139.502C46.6691 139.436 46.5516 139.303 46.4937 139.237C45.5685 139.004 44.7012 138.599 43.8198 138.247C43.7415 138.226 43.5866 138.186 43.5083 138.164C43.3517 138.126 43.1967 138.092 43.0418 138.062C42.9964 137.994 42.9056 137.86 42.8602 137.792C42.6645 137.78 42.4703 137.77 42.2762 137.763C42.2355 137.694 42.1525 137.559 42.1118 137.49C41.8473 137.44 41.5404 137.427 41.4121 137.147C41.2461 137.125 41.0817 137.108 40.9158 137.092C40.8719 137.028 40.7843 136.901 40.7404 136.836C40.4853 136.761 40.2254 136.689 40.0234 136.511C39.6978 136.41 39.3722 136.312 39.0669 136.16C38.9072 136.023 38.7491 135.892 38.5926 135.757C38.4141 135.733 38.2372 135.713 38.0618 135.694C38.0618 135.614 38.0618 135.453 38.0618 135.371C37.9961 135.378 37.863 135.392 37.7973 135.398C37.8959 135.113 37.5577 134.94 37.3261 135.044C36.62 134.931 36.0674 134.389 35.449 134.058C35.3754 134.029 35.2267 133.967 35.1515 133.938C34.9966 133.811 34.8416 133.685 34.685 133.565C34.3891 133.394 34.0854 133.236 33.7958 133.055C33.658 132.997 33.5218 132.941 33.3856 132.886C33.071 132.603 32.7109 132.382 32.3446 132.175C32.2209 132.084 32.0988 131.996 31.9736 131.915C31.6949 131.457 31.1939 131.233 30.7681 130.943C30.2687 130.635 29.8194 130.255 29.3513 129.903C29.2574 129.881 29.0679 129.834 28.974 129.812C28.9443 129.802 28.8848 129.785 28.855 129.776C28.5388 129.453 28.21 129.132 27.7983 128.933C27.778 128.831 27.7357 128.626 27.7153 128.524C27.4555 128.394 27.1972 128.264 26.9232 128.17C26.8574 128.149 26.7275 128.11 26.6617 128.091C26.6633 128.044 26.6633 127.952 26.6649 127.905C26.3627 127.723 26.07 127.527 25.7741 127.336C25.4375 126.976 25.0759 126.642 24.6876 126.34C24.4638 126.137 24.2462 125.932 24.0317 125.722C23.9597 125.699 23.8172 125.652 23.7452 125.628C23.2724 125.042 22.6869 124.567 22.1421 124.055C21.8133 123.706 21.4815 123.359 21.137 123.024C21.004 122.888 20.8725 122.748 20.7441 122.609C20.6877 122.598 20.5735 122.576 20.5171 122.565C20.5077 122.51 20.4889 122.397 20.4795 122.341C19.8878 121.85 19.4385 121.213 18.8295 120.741C18.8216 120.678 18.8044 120.554 18.7966 120.492C18.7246 120.495 18.579 120.501 18.5054 120.503C18.4459 120.291 18.3849 120.081 18.3254 119.873C18.2581 119.876 18.1203 119.881 18.053 119.884C18.0436 119.821 18.0279 119.694 18.0201 119.63C17.7039 119.346 17.4174 119.033 17.1324 118.723C16.9117 118.472 16.691 118.223 16.4765 117.97C16.4624 117.944 16.4342 117.891 16.4201 117.864C15.9223 116.85 15.0409 116.098 14.4335 115.156C14.2081 114.782 13.9341 114.434 13.5646 114.193C13.3549 113.859 13.1607 113.513 12.9056 113.213C12.8962 113.152 12.8758 113.031 12.8664 112.972C12.8116 112.967 12.702 112.956 12.6472 112.952C12.5564 112.749 12.4296 112.572 12.2621 112.43C12.248 112.348 12.2199 112.187 12.2042 112.105C12.1447 112.051 12.0242 111.941 11.9631 111.884C11.8441 111.722 11.7236 111.56 11.5983 111.405C11.5498 111.258 11.5013 111.114 11.4543 110.969C11.3588 110.88 11.2665 110.789 11.1741 110.698C11.1584 110.598 11.124 110.396 11.1068 110.294C10.5479 109.539 10.1299 108.693 9.59292 107.923C9.40192 107.555 9.21563 107.184 9.03716 106.809C8.72562 106.331 8.45948 105.827 8.18552 105.328C8.07124 105.071 7.95539 104.819 7.82858 104.572C7.7597 104.363 7.68925 104.156 7.62037 103.949C7.57653 104.072 7.5327 104.194 7.48886 104.319C7.39963 104.018 7.29474 103.719 7.08966 103.479C7.06617 103.318 7.04269 103.158 7.01921 103C6.94719 102.962 6.8016 102.887 6.72959 102.849C6.7155 102.627 6.69984 102.406 6.68575 102.185C6.62313 102.191 6.50102 102.201 6.4384 102.205C6.34917 101.837 6.36326 101.394 6.0345 101.142C6.00632 100.975 5.97814 100.809 5.95152 100.645C5.87795 100.593 5.72922 100.491 5.65564 100.441C5.65564 100.331 5.65877 100.114 5.66034 100.005C5.55232 99.8833 5.4443 99.7626 5.33628 99.6435C5.32532 99.4461 5.31436 99.2502 5.30497 99.0559C5.23765 99.0575 5.10458 99.0606 5.03883 99.0622C4.96368 98.5999 4.93237 98.1095 4.66467 97.7099C4.6224 97.5501 4.5817 97.3934 4.53943 97.2367C4.31556 96.9923 4.26703 96.6663 4.22789 96.3514C4.15901 96.3059 4.02281 96.215 3.95393 96.1696C3.9414 95.8891 3.92731 95.6102 3.92418 95.3313C3.93201 95.2686 3.9461 95.1433 3.95236 95.0806C3.8506 94.9678 3.74728 94.8565 3.64552 94.7468C3.63143 94.4992 3.61734 94.2548 3.60482 94.0104C3.51715 93.99 3.34024 93.9461 3.25257 93.9242C3.21657 93.5465 3.22439 93.1188 2.92538 92.8399C2.91286 92.6628 2.9019 92.4888 2.89407 92.3149C2.88468 91.9686 2.94417 91.5456 2.54966 91.3842C2.55435 91.3105 2.56531 91.1648 2.57157 91.0927C2.64828 90.8467 2.57314 90.433 2.23029 90.5223C2.23655 90.0867 2.19272 89.6386 1.91249 89.286C1.8937 89.0306 1.87805 88.7768 1.87022 88.5245C1.9031 88.0685 1.79508 87.6282 1.52424 87.26C1.51172 87.2083 1.48667 87.1064 1.47571 87.0547C1.1767 86.5642 1.24715 85.961 1.19079 85.4125C1.12817 84.9001 1.36613 84.1825 0.830719 83.8628C0.843243 83.2517 0.69765 82.6563 0.528574 82.0734C0.503526 81.6707 0.491002 81.2664 0.481609 80.8637C0.494133 80.0222 0.332884 79.1933 0.148153 78.377C0.145022 78.0307 0.143457 77.6828 0.143457 77.3381C0.141891 76.8758 0.140326 76.4167 0.141891 75.956C0.210774 74.8952 -0.00996376 73.8485 0.000994856 72.7908C0.0323052 71.6971 -0.0631913 70.5971 0.0917948 69.5096C0.168505 68.8844 0.130933 68.2561 0.148153 67.6293C0.191988 66.8991 0.21234 66.1689 0.207643 65.4387C0.273395 65.3729 0.408029 65.2428 0.473781 65.1786C0.512919 64.4829 0.523878 63.7871 0.527009 63.0914C0.512919 62.4427 0.883946 61.8614 0.84794 61.2095C0.852636 60.8758 0.857333 60.542 0.871422 60.2098C1.17513 60.0061 1.16574 59.6488 1.15791 59.3245C1.16417 59.0706 1.16261 58.8168 1.16731 58.5645C1.1767 58.3953 1.19079 58.2276 1.20644 58.0615C1.49137 57.6604 1.43188 57.1449 1.48354 56.6826C1.89527 55.8991 1.92502 55.0013 2.19428 54.1708C2.36962 53.0833 2.88624 52.0711 2.9473 50.9664C2.95669 50.7987 2.96608 50.6295 2.97548 50.4619C3.02244 50.4634 3.11637 50.4681 3.16334 50.4697C3.25101 49.7818 3.63769 49.1723 3.65022 48.4703C3.70814 48.4452 3.82555 48.3966 3.88348 48.3731C4.16057 47.8012 4.40323 47.2073 4.54569 46.5868C4.60831 46.2593 4.65841 45.9318 4.70694 45.6028C4.7539 45.6075 4.84784 45.6169 4.8948 45.6231C4.92142 45.3975 4.95429 45.1734 4.9903 44.9493C5.06388 44.9305 5.21104 44.8898 5.28462 44.8694C5.54762 43.9105 6.01258 43.0298 6.37735 42.11C6.37265 42.0239 6.36326 41.8531 6.35856 41.7684C6.59652 41.8076 6.70924 41.7011 6.69828 41.4457C6.7061 41.2623 6.7155 41.0806 6.72646 40.8988C6.8016 40.8502 6.95346 40.7546 7.0286 40.7061C7.04739 40.5415 7.06617 40.3786 7.08652 40.2156C7.33857 40.0777 7.3918 39.8082 7.44972 39.5528C7.50921 39.5089 7.62819 39.4196 7.68612 39.3757C7.73778 39.1517 7.78944 38.9291 7.8411 38.7066C7.89277 38.7098 7.99766 38.7176 8.04932 38.7207C8.08063 38.5296 8.11037 38.34 8.14325 38.1504C8.23561 38.0266 8.32641 37.9012 8.41565 37.7743C8.49862 37.7273 8.66143 37.6317 8.74284 37.5847C8.77885 37.4296 8.81486 37.2745 8.85086 37.1209C9.10291 36.7354 9.35966 36.3453 9.50212 35.9034C9.52247 35.8454 9.56317 35.7279 9.58509 35.6699C9.76982 35.4662 9.82774 35.1936 9.91228 34.9397C9.97021 34.9428 10.0892 34.9491 10.1471 34.9522C10.1471 34.841 10.1471 34.6201 10.1471 34.5088C10.216 34.501 10.3538 34.4869 10.4226 34.479C10.5056 34.2267 10.6027 33.9776 10.7232 33.7394C10.8406 33.5953 10.9565 33.4511 11.0708 33.3054C11.1772 33.0876 11.2774 32.8604 11.4762 32.7099C11.5248 32.5251 11.5733 32.3402 11.6203 32.1553C11.6625 32.1506 11.7486 32.1396 11.7925 32.1349C11.9662 31.8105 12.1948 31.5238 12.4484 31.259C12.5658 31.0521 12.6801 30.8437 12.8038 30.64C12.9337 30.4316 13.0637 30.2232 13.1952 30.0164C13.6116 29.5149 14.0155 29.001 14.3584 28.4463C14.41 28.4009 14.5149 28.31 14.5666 28.2661C15.1834 27.6597 15.6468 26.9201 16.2198 26.2761C16.5313 25.9047 16.9336 25.571 17.0416 25.0742C17.0557 25.0319 17.0855 24.9442 17.0996 24.9003C17.1544 24.8972 17.2624 24.8893 17.3172 24.8862C17.4737 24.6512 17.6381 24.4224 17.7994 24.192C17.8448 24.1842 17.9371 24.1701 17.9825 24.1638C18.1657 23.8113 18.4459 23.5277 18.7465 23.2738C18.7715 23.1986 18.8232 23.0466 18.8498 22.9714C19.3617 22.5326 19.822 22.0406 20.2729 21.5423C20.7644 21.0785 21.2889 20.6413 21.6865 20.0914C21.7445 20.0835 21.8603 20.0694 21.9198 20.0631C21.9167 19.9832 21.9135 19.8234 21.912 19.7451C21.9715 19.7372 22.0904 19.7247 22.1499 19.7184C22.4176 19.3862 22.7401 19.1042 23.1033 18.8848C23.5605 18.4085 24.0379 17.9509 24.564 17.5482C24.7409 17.3602 24.924 17.1784 25.0994 16.9888C25.1322 16.9731 25.1996 16.9402 25.2324 16.9246C25.7177 16.7287 26.0935 16.3573 26.4723 16.0095C27.0328 15.4736 27.7701 15.1476 28.2461 14.5177C28.5811 14.1777 28.9646 13.8816 29.4233 13.728C29.4311 13.6857 29.4452 13.6011 29.4531 13.5588C29.7051 13.3974 29.9525 13.2313 30.2061 13.0746C30.2123 13.037 30.2264 12.9618 30.2327 12.9242C30.4863 12.8098 30.7337 12.6781 30.9654 12.5214C31.1908 12.4212 31.4241 12.3209 31.579 12.1156C31.6182 12.1015 31.6949 12.0733 31.734 12.0592C32.0612 11.6487 32.5512 11.4356 32.9911 11.1723C33.1352 11.0611 33.2792 10.9467 33.4217 10.8323C33.5766 10.7806 33.7332 10.7304 33.8882 10.6803C33.9226 10.6176 33.9884 10.4907 34.0228 10.428C34.2639 10.3653 34.5238 10.3168 34.7085 10.1334C34.8541 10.0175 35.0044 9.90622 35.1562 9.79496C35.3598 9.67588 35.5601 9.54895 35.7449 9.40166C35.9453 9.34995 36.1457 9.29981 36.346 9.2528C36.3429 9.19012 36.3366 9.06477 36.3319 9.00209C36.5449 8.98015 36.7578 8.95978 36.9707 8.93941C36.9707 8.8689 36.9707 8.72631 36.9722 8.65423C37.0912 8.64953 37.3292 8.63856 37.4482 8.63386C37.4435 8.56021 37.4341 8.41605 37.4294 8.34397C37.6188 8.32831 37.8082 8.31264 37.9992 8.29697C38.0493 8.22175 38.1479 8.06819 38.198 7.99298C38.2685 7.98828 38.4094 7.98044 38.4798 7.97731C38.7444 7.98671 38.8446 7.87076 38.7804 7.63102C38.9918 7.62945 39.2031 7.62945 39.4145 7.63102C39.6461 7.69683 39.9671 7.50879 39.8497 7.24085C39.9076 7.23928 40.025 7.23615 40.0845 7.23615C40.1377 7.17347 40.2457 7.05125 40.3005 6.99014C40.5588 6.92746 40.8281 6.86478 40.9627 6.6078C41.1287 6.59213 41.2946 6.57803 41.4621 6.56393C41.5075 6.49185 41.6015 6.34769 41.6484 6.27404C41.8582 6.25367 42.0696 6.2333 42.2809 6.21293C42.2762 6.14869 42.2684 6.0202 42.2637 5.95439C42.4516 5.94342 42.641 5.92932 42.8304 5.91365C43.0355 5.85724 43.2312 5.77105 43.4175 5.67077C43.6335 5.59869 43.8511 5.53131 44.0656 5.44983C44.0969 5.42633 44.1595 5.37932 44.1893 5.35738C44.9282 5.08317 45.6875 4.86066 46.4123 4.54884C46.6049 4.47989 46.7254 4.31066 46.8632 4.16964C47.0542 4.1524 47.2467 4.13673 47.4409 4.12263C47.4377 4.07092 47.4299 3.9675 47.4268 3.91579C47.8745 3.78574 48.4835 3.92049 48.7872 3.49272C48.8952 3.48802 49.1081 3.48018 49.2146 3.47548C49.4713 3.45981 49.7109 3.3705 49.9441 3.26864C50.5625 3.10725 51.1684 2.90511 51.7773 2.70768C51.7288 2.66537 51.6333 2.58389 51.5863 2.54315C51.7711 2.50398 51.9574 2.4648 52.1452 2.42563C52.3848 2.43346 52.6243 2.44757 52.8638 2.46637C53.0799 2.54472 53.4352 2.40056 53.3272 2.12321C54.3511 2.16552 55.3013 1.68133 56.3001 1.5168C57.2942 1.41808 58.2085 0.916662 59.2276 1.03575C59.2026 0.96367 59.1556 0.819511 59.1306 0.748999C59.4531 0.742731 59.7756 0.727062 60.0996 0.711392C60.3078 0.705125 60.5161 0.703558 60.7258 0.703558C61.1642 0.683187 61.7278 0.832047 62.019 0.396437C62.235 0.391736 62.4542 0.385468 62.6718 0.376066C63.1007 0.380767 63.5281 0.391736 63.9586 0.391736C64.3312 0.366665 64.8181 0.465382 65.0154 0.0438744ZM72.043 68.8108C71.7392 69.0364 71.3526 69.1868 71.1944 69.5598C71.0082 69.718 70.8907 69.9264 70.8672 70.174C70.8593 70.2241 70.8437 70.3213 70.8374 70.3714C70.7607 70.409 70.6105 70.4843 70.5338 70.5219C70.5009 70.9293 70.4414 71.3398 70.2254 71.6971C70.3663 72.0606 70.4712 72.4367 70.5463 72.819C70.6152 72.8613 70.7514 72.9444 70.8203 72.9867C70.8688 73.1355 70.9205 73.286 70.9737 73.4364C71.362 73.6417 71.7032 73.9206 72.0461 74.1963C72.2872 74.2794 72.5314 74.3797 72.7208 74.5614C72.9979 74.5897 73.2781 74.6163 73.5567 74.6492C73.6569 74.6413 73.8589 74.6272 73.9606 74.6194C74.3082 74.6194 74.6574 74.5693 74.972 74.4142C75.0613 74.27 75.1724 74.1462 75.3055 74.0428C75.3979 73.4521 75.3806 72.8519 75.3008 72.2627L75.0596 72.4476C75.0283 72.1045 75.0236 71.7597 75.0252 71.4166C75.0048 71.1423 74.983 70.8697 74.958 70.5986C74.4382 69.8277 74.017 68.7152 72.9321 68.6619C72.8601 68.6807 72.7161 68.7199 72.644 68.7387C72.4421 68.7559 72.2418 68.7794 72.043 68.8108ZM41.3056 69.8685C41.4074 69.9546 41.4074 69.9546 41.3056 69.8685Z" fill="#6495C7"/>
</svg>
