<svg width="512" height="512" viewBox="0 0 512 512" fill="none" xmlns="http://www.w3.org/2000/svg">
<path d="M75.3874 105.354C77.3412 105.332 76.0109 108.279 77.909 107.833C77.7587 108.959 78.6715 109.694 79.2337 110.536C79.4508 110.53 79.8906 110.519 80.1076 110.513C80.4027 111.455 80.1911 112.764 81.2933 113.249C81.5215 114.229 81.4714 115.455 82.6236 115.856C82.6626 116.53 82.696 117.205 82.7294 117.879C83.0021 117.89 83.5365 117.912 83.8037 117.918C83.9651 118.987 83.6367 120.503 85.2008 120.558C85.1674 121.623 85.134 122.692 85.1006 123.762C86.982 123.946 86.1192 126.024 86.7538 127.227C87.3995 128.431 87.6834 129.757 87.7613 131.111C89.8041 131.272 88.6575 133.462 88.8077 134.765C90.6446 135.094 89.9043 137.172 90.1381 138.493C92.0585 139.323 91.0064 141.769 91.2736 143.39C91.5686 143.446 92.1586 143.557 92.4481 143.613C92.4648 144.855 92.4704 146.103 92.5427 147.351C92.7988 147.741 93.3164 148.521 93.5725 148.911C93.6838 150.404 93.7673 151.897 93.8452 153.396C94.1736 153.396 94.8193 153.39 95.1477 153.39C95.3259 155.14 94.1681 157.747 96.1441 158.784C96.1886 160.199 96.2053 161.614 96.2443 163.034C98.2203 163.697 97.1516 166.099 97.4021 167.653C99.9069 169.224 97.4077 173.041 99.7344 174.673C99.829 176.562 99.8846 178.45 99.9514 180.339C100.258 180.35 100.875 180.367 101.182 180.378C101.204 180.696 101.243 181.325 101.265 181.643C101.555 183.348 100.358 185.871 102.278 186.863C102.289 187.064 102.3 187.459 102.306 187.66C102.339 189.242 102.222 190.841 102.44 192.418C102.69 192.563 103.197 192.864 103.447 193.014C103.608 195.276 103.531 197.549 103.525 199.822C103.792 199.984 104.321 200.312 104.588 200.48C105 203.171 104.571 205.928 105.017 208.625L105.824 208.82C105.79 211.255 105.957 213.684 106.124 216.113C106.124 216.369 106.124 216.882 106.13 217.143C106.386 217.21 106.909 217.344 107.165 217.416C107.232 218.107 107.31 218.804 107.405 219.506C107.41 221.929 107.143 224.37 107.421 226.787C107.655 226.96 108.123 227.311 108.357 227.484C108.357 228.141 108.373 228.81 108.412 229.478C108.54 233.083 108.262 236.705 108.551 240.304C108.819 240.448 109.353 240.733 109.62 240.877C109.876 251.446 109.542 262.026 109.665 272.601C110.433 272.617 111.206 272.634 111.975 272.656C112.036 272.361 112.147 271.759 112.208 271.459C113.127 271.247 114.134 271.169 114.852 270.489C115.242 269.999 115.632 269.514 116.021 269.03C116.656 268.963 117.296 268.901 117.942 268.846C118.554 268.077 119.189 267.325 119.812 266.561C120.814 266.517 121.905 266.5 122.027 265.208C122.217 265.191 122.59 265.157 122.779 265.141C123.252 264.684 123.747 264.238 124.371 263.999C125.595 263.57 126.469 262.539 127.171 261.491C127.866 261.458 128.562 261.43 129.263 261.408C129.241 261.096 129.197 260.477 129.174 260.165C129.453 260.216 130.004 260.321 130.282 260.372C130.059 258.817 131.49 258.968 132.564 258.834C133.082 258.282 133.616 257.742 134.123 257.179L134.245 256.773C134.379 256.722 134.641 256.633 134.774 256.589C135.592 256.544 136.527 256.628 136.839 255.681C137.362 255.185 137.863 254.678 138.348 254.148C138.971 254.148 139.6 254.148 140.229 254.16C140.196 253.875 140.134 253.318 140.107 253.04C141.12 252.867 142.272 252.878 143.007 252.031C143.48 251.535 143.925 251.017 144.343 250.477C145.25 250.354 146.146 250.159 146.658 249.312C147.282 249.273 147.755 248.861 148.245 248.527C148.528 248.382 149.107 248.087 149.391 247.936C150.605 247.156 151.184 245.301 152.876 245.385C153.471 245.351 153.861 245.017 154.045 244.382C154.234 244.326 154.607 244.209 154.796 244.148C154.902 243.942 155.113 243.524 155.214 243.312C155.77 243.089 156.349 242.967 156.956 242.95C157.39 242.46 157.835 241.981 158.303 241.529C159.834 240.504 161.693 239.93 162.717 238.27L162.817 238.253C164.12 238.264 165.105 237.468 166.101 236.755C166.096 236.521 166.084 236.042 166.073 235.808C167.086 235.713 168.495 236.142 168.723 234.732C169.825 233.562 171.84 233.618 172.497 232.058C173.087 232.008 173.677 231.963 174.267 231.93C174.913 231.172 175.608 230.453 176.148 229.618C176.566 229.64 177.406 229.685 177.824 229.707C177.996 229.439 178.336 228.893 178.503 228.626C179.004 228.169 179.488 227.696 179.978 227.228C180.59 227.177 181.202 227.127 181.82 227.083C181.826 226.76 181.843 226.119 181.848 225.796C182.199 225.835 182.9 225.902 183.256 225.935C183.256 225.634 183.262 225.021 183.262 224.715C184.347 224.709 185.444 224.709 186.535 224.704C186.674 223.255 187.96 223.45 189.045 223.439C190.008 221.088 193.454 223.389 194.601 221.166C195.892 221.311 197.601 220.731 198.436 222.096C196.783 221.968 195.525 222.871 194.367 223.913C194.322 224.035 194.233 224.286 194.183 224.414C193.404 224.709 192.997 225.356 192.808 226.141C192.207 226.125 191.617 226.108 191.021 226.086C190.359 226.843 189.669 227.584 189.123 228.437C188.739 228.431 187.977 228.409 187.593 228.398C186.485 229.668 185.244 230.81 184.119 232.064C183.201 232.158 182.288 232.337 181.965 233.345C181.681 233.351 181.125 233.373 180.841 233.384C180.863 233.702 180.902 234.342 180.924 234.66C180.69 234.638 180.217 234.587 179.983 234.565C179.46 235.908 177.879 235.874 176.855 236.638C176.415 237.134 176.004 237.652 175.625 238.203C174.69 238.331 173.616 238.326 173.293 239.429C173.131 239.462 172.814 239.529 172.653 239.563C172.235 240.164 171.706 240.66 171.077 241.028C171.072 241.201 171.061 241.552 171.061 241.724C169.33 241.735 168.099 242.833 167.07 244.092C166.602 244.543 166.157 245.011 165.717 245.496C164.749 245.619 163.563 245.513 163.351 246.766C163.129 246.789 162.689 246.833 162.472 246.856C162.478 247.14 162.489 247.708 162.494 247.992C161.693 248.076 160.891 248.17 160.095 248.26C160.073 248.455 160.034 248.833 160.012 249.028C159.294 249.324 158.826 249.886 158.559 250.605C158.292 250.594 157.757 250.577 157.49 250.566C157.501 250.845 157.535 251.396 157.546 251.669C156.577 251.803 155.252 251.508 154.996 252.795C154.006 253.519 153.076 254.332 152.252 255.246C151.64 255.346 151.028 255.458 150.415 255.575C149.836 256.215 149.241 256.845 148.645 257.48C148.055 257.658 147.437 257.753 146.897 258.054C146.753 258.388 146.469 259.057 146.33 259.397C146.074 259.347 145.562 259.252 145.306 259.202C145.294 259.43 145.272 259.876 145.267 260.099C144.159 261.363 142.072 261.252 141.365 262.829C141.131 262.862 140.658 262.929 140.424 262.962C140.441 263.252 140.468 263.837 140.485 264.127C140.151 264.099 139.483 264.043 139.149 264.015C139.149 264.327 139.149 264.951 139.149 265.263C138.431 265.341 137.713 265.425 136.995 265.52C136.533 265.988 136.06 266.444 135.576 266.89C135.526 267.113 135.42 267.564 135.37 267.793C134.362 267.932 133.037 267.687 132.709 268.974C132.503 268.996 132.08 269.041 131.874 269.063C131.857 269.269 131.83 269.681 131.813 269.887C131.15 270.227 130.599 270.723 130.098 271.264C129.124 271.464 128.206 271.798 127.861 272.84C127.699 272.785 127.371 272.668 127.204 272.612C126.614 273.42 125.979 274.189 125.395 275.002C124.41 275.119 123.257 275.08 122.962 276.289C122.69 276.306 122.15 276.339 121.877 276.356C121.922 276.646 121.999 277.225 122.044 277.515C121.704 277.543 121.037 277.598 120.703 277.626C120.97 278.935 120.04 281.086 121.905 281.454C121.927 281.693 121.972 282.178 121.994 282.417C122.239 282.395 122.74 282.345 122.985 282.323C122.935 284.189 124.109 285.549 125.673 286.384C125.707 286.919 125.74 287.46 125.773 288.006C126.397 288.451 126.853 289.059 127.159 289.761C127.365 289.766 127.777 289.783 127.983 289.794C128.189 290.713 128.301 291.722 128.985 292.446C129.447 292.964 129.892 293.488 130.327 294.034C130.354 294.262 130.41 294.725 130.438 294.959C130.46 295.159 130.505 295.566 130.527 295.766C131.323 296.357 132.091 296.987 132.882 297.594C132.898 298.106 132.921 298.63 132.948 299.159C134.062 299.895 134.969 300.892 135.448 302.151C135.854 303.243 136.795 303.979 137.641 304.731C138.259 305.438 138.854 306.168 139.433 306.915C139.689 306.915 140.196 306.915 140.446 306.909C140.418 307.221 140.363 307.845 140.335 308.157C140.546 308.174 140.975 308.213 141.192 308.23C141.548 308.781 141.971 309.299 142.467 309.739C143.352 310.592 144.203 311.483 145.15 312.269C145.194 312.475 145.289 312.893 145.339 313.099C145.584 313.088 146.074 313.06 146.319 313.043C146.625 313.634 146.987 314.224 147.415 314.743C148.116 315.768 149.386 315.495 150.449 315.539C150.36 315.807 150.176 316.347 150.087 316.614C150.349 316.659 150.872 316.737 151.133 316.776C151.501 318.33 153.466 317.801 154.345 318.899C155.258 319.25 156.249 319.534 156.661 320.537C157.345 320.531 158.03 320.526 158.72 320.526C158.765 320.826 158.854 321.434 158.904 321.735C159.561 321.746 160.229 321.768 160.891 321.79C161.342 323.501 163.279 322.815 164.565 323.061C165.695 324.671 168.055 324.153 169.586 325.289C171.283 325.518 173.003 325.451 174.712 325.434C174.746 325.729 174.801 326.325 174.829 326.626L175.107 326.604C180.44 326.687 185.784 326.804 191.11 326.582C191.339 326.309 191.795 325.757 192.018 325.484C193.643 325.534 195.274 325.49 196.888 325.267C197.072 325.25 197.445 325.206 197.629 325.189C198.347 323.183 201.48 325.194 201.903 322.905C202.07 322.877 202.399 322.821 202.566 322.793C203.451 322.815 204.342 322.854 205.232 322.91C205.271 322.598 205.343 321.969 205.382 321.651L205.689 321.645C206.919 321.462 208.889 322.286 209.268 320.514C209.919 320.509 210.565 320.509 211.216 320.52C211.294 320.191 211.444 319.528 211.522 319.194C212.196 319.172 212.869 319.149 213.548 319.127C214.049 318.124 215.151 318.041 216.125 317.835C216.259 316.347 217.595 316.748 218.647 316.787C218.73 316.52 218.903 315.979 218.986 315.712C219.883 315.55 220.885 315.517 221.475 314.703C221.809 314.364 222.465 313.684 222.799 313.35C223.245 313.21 223.69 313.071 224.135 312.926C224.363 312.681 224.82 312.196 225.048 311.951C225.31 311.923 225.838 311.873 226.106 311.845C226.122 311.506 226.161 310.831 226.178 310.492C226.868 310.486 227.558 310.486 228.254 310.492C228.883 309.728 229.557 309.004 230.113 308.179C230.347 308.185 230.82 308.191 231.054 308.196C231.054 307.934 231.049 307.416 231.049 307.154C232.435 306.998 233.592 306.285 234.661 305.444C234.694 305.26 234.761 304.892 234.795 304.714C235.507 304.458 236.008 303.951 236.236 303.226C236.459 303.243 236.91 303.277 237.132 303.288C237.144 302.976 237.171 302.341 237.183 302.023C237.967 302.096 238.758 302.162 239.548 302.229C239.565 301.867 239.598 301.148 239.615 300.786C239.916 300.742 240.517 300.647 240.817 300.602C240.828 300.352 240.856 299.839 240.873 299.583C241.157 299.572 241.725 299.544 242.009 299.533C242.009 299.193 242.009 298.519 242.009 298.184C242.354 298.218 243.044 298.296 243.383 298.329C243.361 298.006 243.317 297.36 243.294 297.037C243.617 297.07 244.257 297.143 244.575 297.182C244.558 296.853 244.519 296.195 244.497 295.867C244.797 295.9 245.398 295.961 245.699 295.995C245.693 295.711 245.671 295.154 245.666 294.875C246.64 294.635 247.848 294.708 248.421 293.716C249.067 293.382 249.523 292.858 249.768 292.173C249.996 292.167 250.458 292.151 250.686 292.145C250.675 291.855 250.653 291.276 250.642 290.986C251.36 290.986 252.084 290.981 252.807 290.986C253.052 288.869 255.507 290.039 256.926 289.755L256.57 288.847C257.193 288.802 257.817 288.763 258.446 288.735L258.051 289.761C258.908 289.744 259.771 289.722 260.633 289.705C260.605 289.933 260.55 290.385 260.522 290.613C261.106 290.981 261.674 291.387 262.209 291.839C262.826 292.524 263.444 293.22 264.157 293.822L264.201 294.184C264.24 294.63 264.324 295.516 264.363 295.956C264.641 295.956 265.192 295.961 265.47 295.961C265.47 296.819 265.482 297.683 265.498 298.552L266.445 298.023C266.584 299.304 266.762 300.586 266.945 301.867C267.146 302.001 267.547 302.274 267.747 302.408C267.87 304.045 269.083 305.16 270.274 306.129L270.296 306.263C270.352 306.759 270.458 307.739 270.513 308.235C270.803 308.218 271.382 308.185 271.677 308.168C271.649 308.48 271.588 309.104 271.56 309.416C271.81 309.416 272.311 309.411 272.562 309.411C272.946 309.94 273.347 310.469 273.753 310.999C274.132 311.405 274.516 311.818 274.905 312.224C275.434 312.625 275.974 313.021 276.52 313.417C276.542 313.656 276.592 314.13 276.614 314.364C277.31 314.336 278.006 314.313 278.713 314.297C278.763 315.868 280.282 315.528 281.368 315.628C281.646 315.634 282.208 315.645 282.492 315.656C282.603 315.924 282.826 316.464 282.937 316.737C286.01 316.692 289.094 316.759 292.166 316.709C292.278 316.436 292.506 315.885 292.617 315.612C292.829 315.6 293.241 315.584 293.452 315.573C295.033 315.567 296.614 315.6 298.2 315.573C298.952 313.506 301.49 314.598 303.137 314.391C303.366 313.951 303.594 313.517 303.828 313.088C304.017 313.082 304.39 313.065 304.579 313.06C305.987 312.943 307.847 313.483 308.72 311.99C308.915 311.985 309.31 311.974 309.511 311.974C310.652 311.935 311.804 311.868 312.951 311.779C313.585 309.912 316.129 311.015 317.61 310.492C318.411 309.037 320.176 309.511 321.534 309.349C322.397 307.327 324.974 308.497 326.666 308.241L326.304 307.316C327.729 307.121 329.165 306.954 330.607 306.831C330.841 306.736 331.297 306.541 331.531 306.447L331.537 305.984C332.962 305.639 335.288 306.402 335.633 304.435C335.778 304.43 336.073 304.419 336.218 304.413C337.66 304.174 339.919 305.188 340.61 303.355C341.879 303.093 343.972 303.951 344.239 302.057C345.792 302.062 347.35 302.09 348.909 302.107L348.531 301.16C350.952 300.853 353.446 300.563 355.867 301.02C356.028 301.271 356.362 301.767 356.524 302.018C357.57 302.073 358.839 301.884 359.079 303.238C359.669 303.265 360.27 303.299 360.871 303.332C361.494 304.096 362.129 304.864 362.752 305.639C363.387 305.711 364.033 305.789 364.678 305.867C364.756 306.497 364.845 307.126 364.94 307.762C365.886 308.553 366.749 309.433 367.567 310.358C368.63 310.765 368.463 311.857 368.525 312.781C368.792 312.865 369.332 313.021 369.599 313.105C369.666 314.508 370.373 315.695 371.213 316.782C371.464 316.798 371.959 316.826 372.21 316.843C372.232 316.977 372.276 317.244 372.299 317.372C372.321 317.818 372.36 318.704 372.382 319.149C372.66 319.133 373.211 319.094 373.484 319.077C373.484 319.902 373.484 320.732 373.49 321.562C373.718 321.562 374.174 321.567 374.403 321.573C374.636 322.236 375.048 322.771 375.638 323.172C376.039 323.595 376.429 324.019 376.841 324.453C377.353 324.871 377.876 325.267 378.421 325.662C378.421 325.913 378.427 326.403 378.433 326.654C378.75 326.609 379.384 326.515 379.702 326.47C379.679 326.777 379.635 327.401 379.618 327.707C382.284 327.701 384.967 327.924 387.628 327.629C387.845 327.389 388.279 326.905 388.496 326.665C388.58 326.665 388.736 326.66 388.814 326.654C389.821 326.643 390.823 326.643 391.836 326.643L391.408 325.657C392.699 325.529 393.99 325.395 395.287 325.283C395.426 324.999 395.699 324.437 395.833 324.152C396.005 324.152 396.345 324.152 396.512 324.152C397.67 324.158 398.822 324.114 399.985 324.069C400.364 323.556 400.748 323.055 401.154 322.57C402.084 322.726 403.019 322.877 403.96 323.022C403.943 322.654 403.921 321.918 403.91 321.551C405.034 321.629 406.164 321.662 407.305 321.673C407.678 320.927 408.363 320.553 409.164 320.414C410.467 320.303 412.615 321.306 412.949 319.367C414.263 319.216 415.838 319.467 416.745 318.252C417.847 318.13 418.961 318.052 420.068 317.929C420.87 317.901 421.36 317.439 421.543 316.536C422.557 316.626 423.575 316.726 424.599 316.832C424.677 316.492 424.828 315.823 424.906 315.489C426.258 315.322 428.128 316.052 428.88 314.475C430.193 314.492 431.513 314.531 432.843 314.547C433.166 314.169 433.494 313.801 433.834 313.433C434.652 313.227 435.493 313.027 436.311 312.781C437.652 312.286 439.066 312.068 440.458 311.734C440.608 311.455 440.914 310.909 441.064 310.636C441.27 310.614 441.688 310.575 441.894 310.558C443.152 310.564 444.415 310.642 445.679 310.692C445.69 310.397 445.712 309.806 445.729 309.511C447.783 309.489 449.842 309.483 451.908 309.5C451.919 309.79 451.935 310.369 451.947 310.664C453.032 310.681 454.128 310.703 455.225 310.726C455.643 311.249 456.088 311.773 456.533 312.291C457.858 312.893 459.216 313.495 460.229 314.598C461.059 315.5 461.81 316.72 463.163 316.821C463.101 317.417 463.046 318.018 463.007 318.626C463.719 319.032 464.22 319.656 464.448 320.459C464.671 320.459 465.111 320.459 465.328 320.464C464.844 322.409 466.92 323.306 466.903 325.155L467.799 325.183C467.805 325.529 467.822 326.225 467.827 326.57C468.178 326.587 468.874 326.621 469.224 326.632C469.191 327.317 469.157 328.002 469.135 328.693C470.783 329.1 469.77 331.507 471.646 331.557C471.662 331.78 471.701 332.214 471.718 332.437C472.458 333.017 473.187 333.624 473.944 334.198C473.967 334.443 474.011 334.922 474.034 335.161C474.267 335.189 474.74 335.234 474.974 335.262C475.208 335.914 475.653 336.309 476.305 336.448C478.882 336.655 481.492 336.716 484.064 336.387L484.637 336.287C484.765 335.958 485.021 335.306 485.149 334.978L485.211 334.961C486.318 335 487.42 335.122 488.528 335.228C488.539 334.877 488.562 334.186 488.578 333.835C489.324 333.869 490.081 333.908 490.844 333.947C491.172 332.058 493.354 333.061 494.645 332.443L494.924 331.551C495.753 331.49 496.594 331.457 497.429 331.345C498.475 330.894 499.488 330.37 500.574 330.002C500.457 331.011 500.312 332.019 500.145 333.028C498.876 337.63 497.139 342.081 495.096 346.388C493.671 346.594 491.539 345.758 490.899 347.524C489.925 347.558 488.951 347.591 487.988 347.647C487.548 348.215 487.009 348.65 486.363 348.945C485.867 348.806 484.888 348.522 484.392 348.377C484.292 348.672 484.092 349.257 483.992 349.552C482.26 350.355 479.761 349.335 478.553 351.073C475.152 351.218 471.74 351.285 468.345 351.101C467.788 350.678 467.209 350.293 466.614 349.959C466.358 349.909 465.846 349.82 465.589 349.775C464.844 348.834 463.97 348.003 463.023 347.279C462.65 346.911 462.289 346.544 461.932 346.182C461.192 345.179 460.363 344.215 459.277 343.58C459.199 342.956 459.121 342.332 459.06 341.708C458.81 341.546 458.32 341.218 458.075 341.056C457.964 340.087 458.058 338.9 456.817 338.733C456.639 337.786 456.722 336.655 455.732 336.136C455.526 335.301 455.403 334.415 454.668 333.875C454.229 333.423 453.8 332.972 453.377 332.521L453.149 332.27C453.06 331.64 452.982 331.011 452.921 330.387C452.659 330.387 452.141 330.392 451.88 330.392C451.891 330.103 451.924 329.529 451.935 329.245C451.657 329.217 451.095 329.156 450.817 329.128C450.544 328.42 450.11 327.852 449.453 327.484C449.419 327.272 449.341 326.855 449.303 326.643C449.124 326.615 448.774 326.565 448.601 326.537C448.306 326.297 447.722 325.813 447.427 325.568C444.593 325.283 441.721 325.306 438.888 325.54L438.71 325.673C438.482 325.857 438.031 326.214 437.803 326.392C436.439 326.621 434.953 326.381 433.711 327.083C432.631 327.779 431.351 327.891 430.11 327.924C429.303 327.568 428.273 328.253 428.624 329.161C428.429 329.167 428.034 329.172 427.839 329.172C426.386 329.445 424.193 328.537 423.514 330.376L423.481 330.381C422.278 330.348 421.081 330.309 419.89 330.292L420.258 331.278C417.525 331.211 415.231 332.894 412.537 332.994C412.359 332.983 412.003 332.95 411.819 332.939C411.736 333.228 411.574 333.813 411.491 334.103L411.352 334.192C410.16 334.131 408.969 334.047 407.784 333.992C407.772 334.315 407.75 334.95 407.739 335.273C406.615 335.256 405.496 335.251 404.383 335.267C403.948 336.933 402.139 336.32 400.876 336.471C399.79 338.722 396.417 336.766 395.148 338.744C394.085 338.939 392.855 338.71 391.936 339.379C390.601 340.543 388.691 340.036 387.077 340.176C386.982 340.471 386.782 341.067 386.682 341.368C385.296 341.357 383.91 341.335 382.535 341.446C382.374 341.669 382.062 342.12 381.9 342.343C378.644 343.023 375.249 342.532 371.937 342.627C371.937 342.343 371.926 341.775 371.926 341.491C371.152 341.496 370.378 341.513 369.61 341.541C369.515 341.24 369.315 340.644 369.215 340.343C368.842 340.348 368.09 340.36 367.712 340.365C367.044 339.546 366.32 338.777 365.58 338.031C364.6 337.507 364.74 336.354 364.578 335.423C364.378 335.412 363.983 335.39 363.788 335.379C363.521 334.693 363.053 334.175 362.457 333.791C362.407 333.078 362.352 332.37 362.285 331.668C361.84 331.245 361.366 330.833 361.155 330.253C360.966 329.629 360.587 329.15 360.025 328.827C359.852 327.88 359.802 326.838 358.8 326.403C358.65 325.473 358.717 324.409 357.815 323.846C357.342 323.428 356.88 323.016 356.429 322.604C356.184 321.757 356 320.854 355.305 320.264C354.23 319.155 353.279 317.901 352.009 317.016C348.664 316.737 345.28 316.982 341.918 316.865C341.072 318.793 338.634 317.796 337.008 318.069C336.296 320.147 333.763 319.005 332.143 319.188C331.965 319.484 331.609 320.074 331.431 320.37C330.134 320.592 328.303 320.046 327.674 321.606C326.176 321.684 324.679 321.735 323.187 321.785C323.171 322.108 323.137 322.743 323.12 323.066C322.018 323.033 320.922 323.01 319.825 323.022C319.079 324.643 317.098 324.041 315.678 324.258L315.94 325.239C314.159 325.551 311.838 324.927 310.53 326.442C308.047 326.309 306.149 328.286 303.644 327.947C303.611 328.259 303.555 328.871 303.527 329.183C302.108 329.328 300.015 328.454 299.419 330.309C299.297 330.309 299.057 330.32 298.935 330.32C297.621 330.331 296.313 330.32 295.005 330.32C294.972 330.643 294.91 331.289 294.883 331.613C294.621 331.618 294.098 331.635 293.831 331.64C291.844 331.601 289.856 331.601 287.875 331.724C286.723 333.423 284.251 332.454 282.531 332.565C280.149 331.412 277.466 331.585 274.9 331.367L275.289 330.387C274.048 330.359 272.807 330.353 271.571 330.359C271.571 330.058 271.565 329.462 271.565 329.161C270.853 329.161 270.146 329.161 269.45 329.161C268.782 328.025 267.908 326.972 266.634 326.52C266.612 326.437 266.561 326.281 266.539 326.197L266.378 325.701L265.855 325.579C265.415 325.484 264.975 325.395 264.541 325.311C263.995 324.57 263.428 323.857 262.871 323.139C262.12 322.531 261.374 321.924 260.617 321.328C260.494 320.709 260.377 320.097 260.266 319.489L259.765 319.578C259.025 318.358 258.084 317.266 256.909 316.453C256.871 315.857 256.843 315.266 256.82 314.681C256.52 314.592 255.93 314.408 255.635 314.319C255.568 313.333 255.919 312.085 254.755 311.617C254.249 311.166 253.748 310.703 253.252 310.252C253.18 309.6 253.108 308.954 253.035 308.308C252.033 308.319 250.887 308.163 250.364 309.249C248.593 309.171 247.614 310.536 246.734 311.862C246.172 311.89 245.61 311.918 245.048 311.951C244.252 312.904 243.378 313.79 242.504 314.67C241.903 315.461 240.951 315.612 240.044 315.768C239.387 316.497 238.719 317.216 238.112 317.979C237.5 318.018 236.899 318.063 236.298 318.113C235.669 318.871 235.034 319.623 234.388 320.37C233.453 320.542 232.368 320.592 232.045 321.679C231.444 321.712 230.848 321.751 230.258 321.79C229.618 322.57 228.972 323.345 228.349 324.136C227.681 324.147 227.019 324.164 226.356 324.18C226.334 324.465 226.295 325.027 226.273 325.306C225.187 325.484 224.091 325.707 223.189 326.375C221.736 326.843 220.478 327.818 219.699 329.144C218.998 329.139 218.302 329.139 217.606 329.139C217.6 329.44 217.595 330.036 217.589 330.337C216.292 330.565 214.116 329.551 213.793 331.423C211.867 331.808 210.064 332.649 208.483 333.802C207.553 334.103 206.557 334.008 205.6 334.064C205.505 334.365 205.321 334.966 205.232 335.262C203.924 335.451 201.898 334.621 201.48 336.409C200.133 336.655 198.068 335.78 197.673 337.657C196.02 337.602 194.333 337.496 192.719 337.936C192.246 338.17 191.79 338.449 191.361 338.755C190.96 338.761 190.565 338.777 190.17 338.811C188.383 338.933 186.58 338.839 184.804 339.1C184.642 339.346 184.308 339.836 184.147 340.081C180.69 340.059 177.234 340.114 173.783 340.014C173.543 339.786 173.07 339.318 172.831 339.089C170.421 338.822 167.988 338.928 165.567 338.827C165.283 338.566 164.715 338.042 164.431 337.786C162.917 337.669 161.392 337.691 159.878 337.624C159.878 337.362 159.878 336.844 159.884 336.582C158.77 336.482 157.29 336.866 157.006 335.39C156.249 335.368 155.497 335.345 154.752 335.323C154.573 335.306 154.228 335.267 154.056 335.245C154.006 333.579 152.475 334.187 151.384 334.242C151.351 333.925 151.278 333.29 151.245 332.972C150.243 332.76 149.046 332.788 148.484 331.769C147.877 331.679 147.27 331.585 146.669 331.496L146.135 331.384C146.107 331.172 146.051 330.76 146.024 330.548C145.15 329.551 144.014 329.027 142.678 329.061C142.689 328.86 142.717 328.465 142.728 328.264C141.938 327.685 141.181 327.072 140.413 326.476C139.628 325.373 138.008 325.434 137.357 324.214C137.145 324.231 136.717 324.264 136.505 324.275C136.522 323.952 136.55 323.294 136.566 322.971C136.249 323.021 135.603 323.122 135.286 323.172C135.325 322.854 135.403 322.219 135.442 321.902C135.186 321.896 134.668 321.879 134.412 321.868C133.778 320.999 133.115 320.158 132.52 319.272C132.331 319.272 131.941 319.278 131.746 319.283C131.713 318.966 131.635 318.336 131.596 318.018C131.262 318.08 130.588 318.197 130.254 318.258C130.304 317.929 130.41 317.266 130.46 316.938C130.132 316.971 129.464 317.049 129.13 317.082C129.174 316.782 129.258 316.174 129.302 315.873L128.301 315.584C126.18 312.726 123.486 310.38 120.986 307.873C120.803 306.218 119.645 305.054 118.331 304.162C118.287 303.661 118.242 303.16 118.198 302.664C117.591 302.168 117.09 301.589 116.712 300.914C116.522 300.903 116.144 300.875 115.955 300.864C115.916 299.455 115.209 298.301 114.34 297.26C114.101 297.198 113.628 297.076 113.394 297.014C113.55 294.947 111.847 293.649 110.433 292.479C109.303 292.234 108.139 292.357 106.993 292.334C106.425 292.334 105.857 292.34 105.29 292.351C104.121 292.479 102.412 291.866 101.994 293.438C101.421 293.477 100.853 293.516 100.285 293.56C99.6676 294.273 99.0163 294.97 98.3929 295.683C97.0403 296.753 95.8769 298.034 94.7247 299.304C94.246 299.778 93.7673 300.257 93.2997 300.742L93.2051 300.814C92.5706 301.009 91.9304 301.182 91.2903 301.36C91.3181 301.611 91.3682 302.118 91.3905 302.368C91.0955 302.363 90.5055 302.352 90.2105 302.346C90.1993 302.525 90.1826 302.881 90.1715 303.059C89.1473 303.845 88.2289 304.77 87.4217 305.784C87.2381 305.856 86.8707 306.007 86.687 306.085C86.5089 306.252 86.1638 306.586 85.9912 306.748C85.4067 306.937 84.8112 307.087 84.21 307.21C84.1543 307.444 84.0374 307.918 83.9762 308.152C80.8368 308.124 77.6752 308.397 74.5525 307.996C74.3911 307.895 74.0682 307.689 73.9068 307.589L73.4281 307.282C72.6154 306.948 71.2016 307.299 71.3185 305.878C70.6171 305.817 69.9102 305.745 69.2089 305.678C69.1755 305.472 69.0975 305.065 69.0641 304.864C68.4518 304.753 67.8507 304.614 67.2551 304.441C66.6929 303.555 67.7783 302.786 68.0065 301.978C68.2849 302.001 68.8471 302.045 69.1309 302.068C69.1198 301.728 69.092 301.043 69.0808 300.703C69.3703 300.714 69.9547 300.731 70.2442 300.742C70.2609 300.53 70.2887 300.107 70.3054 299.9C71.0736 299.611 71.6191 299.048 71.9586 298.307C72.1924 298.279 72.6655 298.223 72.8993 298.196C72.8937 297.928 72.8826 297.393 72.877 297.126C73.673 297.092 74.4746 297.065 75.2761 297.042C75.2483 296.725 75.1982 296.101 75.1704 295.783C75.4097 295.828 75.894 295.911 76.1333 295.956C76.3615 294.713 77.536 294.624 78.538 294.407C79.0612 293.677 79.7792 293.159 80.5307 292.691L79.924 292.485C80.1299 292.424 80.5529 292.307 80.7589 292.245C81.143 292.212 81.9 292.134 82.2785 292.101C82.9075 290.719 84.9503 291.404 85.34 289.816C85.6016 289.8 86.1137 289.777 86.3697 289.761C86.3586 289.515 86.3308 289.031 86.3141 288.786C87.5832 288.663 88.7354 288.184 89.5759 287.203C89.9544 287.214 90.7114 287.242 91.0899 287.259C91.0955 286.93 91.101 286.273 91.101 285.944C91.4573 285.944 92.1587 285.95 92.5149 285.95C92.4815 285.688 92.4203 285.159 92.3924 284.891C92.732 284.869 93.4166 284.819 93.7562 284.791C93.7283 284.49 93.6838 283.883 93.656 283.576C94.3907 283.621 95.1255 283.665 95.8602 283.716C95.966 283.47 96.1831 282.969 96.2944 282.718C96.8065 282.245 97.3075 281.76 97.8029 281.275C98.3873 281.214 98.9718 281.158 99.5618 281.103C100.163 280.345 100.775 279.604 101.371 278.852C101.616 278.796 102.106 278.69 102.351 278.635C102.295 277.175 102.389 275.698 102.128 274.255C101.844 274.122 101.287 273.849 101.009 273.715C101.003 273.553 100.992 273.225 100.987 273.063C100.976 271.041 101.054 269.024 100.97 267.007C100.708 266.768 100.185 266.283 99.9292 266.043C99.6898 263.921 100.04 261.77 99.7455 259.647C99.4672 259.475 98.9161 259.118 98.6434 258.94C98.6823 257.781 98.6768 256.628 98.6434 255.474C98.61 254.332 98.61 253.196 98.61 252.059C98.3484 251.953 97.8307 251.742 97.5691 251.636C97.4856 250.148 97.4911 248.661 97.4132 247.179C97.3464 245.881 97.2741 244.588 97.1961 243.295L96.3668 243.162C96.3111 241.44 96.222 239.719 96.1385 237.997C96.1274 237.312 96.1163 236.627 96.1051 235.947C95.8213 235.947 95.2646 235.941 94.9863 235.941C94.9641 234.833 94.9529 233.729 94.9028 232.626C94.8472 231.233 94.8193 229.846 94.7915 228.453C94.5466 228.442 94.0623 228.42 93.8174 228.403C93.6393 225.735 93.745 223.06 93.6671 220.386C93.3721 220.119 92.7876 219.589 92.4926 219.327C92.3034 217.21 92.6874 215.082 92.437 212.976C92.1475 212.759 91.5742 212.319 91.2847 212.101C91.2736 209.956 91.4462 207.778 91.0788 205.661C90.8673 205.432 90.4442 204.97 90.2327 204.742C90.0824 202.028 90.0713 199.31 89.9544 196.596C89.6483 196.591 89.0304 196.574 88.7242 196.563C88.7131 196.323 88.6853 195.844 88.6686 195.605C88.6241 193.571 88.8244 191.532 88.6074 189.51C88.3569 189.326 87.8559 188.964 87.6054 188.78C87.5999 188.691 87.5943 188.512 87.5887 188.423C87.572 186.312 87.5832 184.2 87.6054 182.089C87.2882 181.977 86.648 181.76 86.3308 181.648C86.2807 179.52 86.3975 177.397 86.4031 175.269C86.5534 173.887 85.3789 172.873 85.2565 171.542C85.095 169.72 85.1173 167.887 85.0895 166.06C84.8056 165.943 84.2323 165.703 83.9484 165.586C83.9929 164.411 83.9428 163.235 83.8315 162.071C83.6756 160.522 83.787 158.967 83.8537 157.419C83.5643 157.413 82.9854 157.402 82.6904 157.396C82.6848 157.207 82.6626 156.822 82.657 156.627C82.6347 156.221 82.5958 155.413 82.5791 155.012C82.5679 153.307 82.5624 151.608 82.5457 149.908C82.3063 149.892 81.8276 149.864 81.5883 149.847C81.5827 148.727 81.5716 147.607 81.5103 146.493C81.4046 144.928 81.3935 143.362 81.3712 141.791C81.1263 141.668 80.6309 141.418 80.386 141.289C80.3192 140.404 80.2969 139.518 80.2635 138.632C79.9184 136.994 81.1485 134.487 79.1447 133.662C78.9833 131.489 79.1335 129.294 78.8441 127.133C78.6103 126.904 78.1427 126.453 77.909 126.225C77.8088 125.567 77.6752 124.921 77.5416 124.275C77.4859 122.302 77.7364 120.336 77.703 118.369C77.4024 118.218 76.8013 117.923 76.5007 117.778C76.484 117.622 76.4562 117.31 76.445 117.154C76.484 115.104 76.5508 113.054 76.523 111.004C74.4579 109.962 75.6212 107.187 75.3874 105.354Z" fill="white"/>
<path d="M258.29 244.404C258.546 244.337 259.058 244.198 259.314 244.131C259.225 245.791 260.756 245.279 261.819 245.318C262.893 246.805 264.084 248.237 264.836 249.931C265.76 251.106 265.782 252.594 265.749 254.026C265.999 254.004 266.506 253.953 266.756 253.926C266.751 255.146 266.767 256.371 266.879 257.592C266.934 258.427 267.007 259.269 267.085 260.11L267.953 260.093C267.469 261.608 266.89 263.113 265.888 264.372C265.059 264.305 264.24 264.244 263.422 264.194C263.311 264.472 263.082 265.029 262.971 265.313C262.609 265.341 261.891 265.391 261.535 265.419C261.552 265.113 261.58 264.506 261.591 264.199C260.672 264.244 259.748 264.277 258.835 264.322C258.407 263.926 257.989 263.531 257.577 263.129C256.943 263.063 256.308 263.001 255.679 262.946C255.557 262.076 255.023 261.603 254.165 261.553C254.143 261.291 254.098 260.767 254.082 260.511C253.776 260.555 253.163 260.645 252.857 260.695C252.902 260.377 252.98 259.742 253.019 259.43C252.746 259.424 252.195 259.413 251.917 259.408C251.532 257.274 250.247 255.396 250.475 253.151C250.748 252.978 251.282 252.622 251.555 252.444C251.649 251.691 251.755 250.95 251.866 250.209C251.889 250.031 251.944 249.686 251.972 249.507C253.219 248.46 253.976 246.917 255.395 246.07C255.412 245.881 255.44 245.502 255.457 245.312C256.147 245.301 256.837 245.29 257.533 245.268C257.722 245.05 258.101 244.616 258.29 244.404Z" fill="white"/>
<path d="M231.166 0.155998C233.442 0.133713 235.724 0.105856 238.007 0C241.335 0.579421 244.697 0.00557129 248.048 0.0612848C253.993 0.111427 259.938 0.0501421 265.877 0.0891416C269.69 0.24514 273.514 0.529279 277.327 0.12257C278.93 0.0612849 280.572 0.222854 282.008 1.00842C283.7 1.29813 285.426 1.38727 287.146 1.23684C289.539 1.33713 292.183 0.885846 294.337 2.18954C296.074 2.3734 297.822 2.49597 299.57 2.54054C300.917 4.12837 303.205 3.6381 305.041 3.74395C305.67 3.74395 306.305 3.73838 306.945 3.73281C307.045 4.03923 307.246 4.65208 307.346 4.95851C308.826 5.03093 310.313 5.13122 311.788 5.32064C313.096 6.48506 314.949 6.16192 316.53 6.57977C318.311 7.03105 320.07 7.57147 321.891 7.85004C323.071 8.46289 324.368 8.76931 325.703 8.73589C326.483 8.76931 327.268 8.7916 328.058 8.78046C327.846 9.64402 328.219 10.0284 329.171 9.93373C329.934 9.91701 330.702 9.91701 331.476 9.94487C331.554 10.2123 331.704 10.7471 331.782 11.0201C335.433 11.3266 338.601 13.3545 342.163 14.0565C342.803 14.4242 343.488 14.7251 344.239 14.8309C344.479 14.8477 344.963 14.8755 345.202 14.8922C345.848 16.0121 347.123 16.1514 348.275 16.3296C348.503 16.5414 348.959 16.9759 349.182 17.1876C349.739 17.3325 350.295 17.4718 350.863 17.6166C352.021 18.1793 353.234 18.5972 354.464 18.9872C356.006 19.7393 357.559 20.5583 359.285 20.8146C359.83 20.9093 360.381 21.004 360.938 21.0987C360.916 21.2993 360.871 21.6949 360.849 21.8954C364.562 23.1156 367.868 25.2661 371.458 26.7704C371.687 26.8205 372.143 26.9264 372.371 26.9821C372.672 27.0434 373.278 27.1771 373.579 27.2439C373.573 27.3665 373.562 27.6228 373.562 27.7509C374.715 28.0908 375.928 28.4362 376.73 29.4112C377.114 29.4669 377.882 29.5672 378.266 29.6229C378.355 29.829 378.533 30.2469 378.622 30.453C379.485 30.7817 380.342 31.155 381.105 31.701C381.756 31.935 382.424 32.1634 383.097 32.3863C383.086 32.5479 383.058 32.8821 383.042 33.0437C383.276 33.0883 383.749 33.1718 383.982 33.2108C385.997 35.2165 388.714 36.225 390.963 37.9242C391.436 38.1136 391.914 38.3031 392.399 38.4925C395.944 40.8715 399.234 43.7853 403.192 45.4623C403.27 45.4901 403.425 45.5403 403.503 45.5681C404.361 47.0167 405.747 48.0084 407.166 48.8608C409.671 50.3372 411.574 52.6994 414.324 53.7914C414.719 54.1814 415.115 54.5826 415.515 54.9837C416.69 55.825 417.887 56.6273 419.061 57.4797C420.158 58.5159 421.271 59.5466 422.462 60.4882C422.507 60.6386 422.59 60.9506 422.635 61.1011C423.275 61.3796 423.926 61.6638 424.561 61.9758C424.627 62.0983 424.755 62.349 424.817 62.4716C425.301 64.1152 426.67 65.1347 428.09 65.9314C428.318 66.4273 428.552 66.9287 428.791 67.4245C429.209 67.4635 430.049 67.5304 430.472 67.5694L430.695 67.7254C432.086 69.2742 433.634 70.6671 435.047 72.1936C437.129 74.2383 439.261 76.244 441.209 78.4224C441.438 78.5115 441.894 78.6842 442.128 78.7678C442.117 78.9405 442.089 79.2804 442.078 79.4531C443.03 80.1217 443.959 80.8849 444.571 81.8989C444.705 82.1273 444.967 82.5842 445.1 82.8126C446.47 84.562 447.661 86.59 449.704 87.6374C449.742 87.7098 449.815 87.8603 449.848 87.9383C450.661 88.8185 451.463 89.71 452.264 90.6069C453.199 91.7212 454.162 92.8188 455.214 93.8272C456.038 95.0028 456.862 96.1783 457.686 97.365C458.465 98.3344 459.322 99.237 460.257 100.067C460.313 100.368 460.435 100.964 460.491 101.265C460.741 101.432 461.237 101.778 461.482 101.945C462.2 103.025 462.879 104.134 463.38 105.338C463.525 105.365 463.814 105.421 463.959 105.449C464.499 106.352 465.066 107.243 465.601 108.151C465.773 108.162 466.119 108.185 466.291 108.196C466.625 109.784 467.588 111.065 468.785 112.118C468.974 112.58 469.169 113.048 469.369 113.511C469.781 114.151 470.171 114.803 470.566 115.466C470.789 115.617 471.228 115.929 471.451 116.085C471.501 116.391 471.607 117.015 471.657 117.322C472.253 117.84 472.703 118.48 473.037 119.205C473.305 119.244 473.833 119.333 474.095 119.377C473.761 119.779 473.449 120.18 473.126 120.575C473.344 120.492 473.778 120.325 473.989 120.235C474.078 120.486 474.256 120.988 474.345 121.238C474.663 121.762 474.941 122.302 475.175 122.871C476.633 126.548 478.771 129.896 480.858 133.239C481.242 134.008 481.637 134.782 482.055 135.54C483.424 138.008 484.07 140.95 486.224 142.911C486.291 143.145 486.424 143.624 486.486 143.864C487.771 147.964 490.488 151.524 491.306 155.775C491.59 155.898 492.152 156.154 492.436 156.282C492.519 157.112 492.787 157.926 493.31 158.594C493.371 158.811 493.488 159.246 493.544 159.469C494.089 162.305 495.753 164.773 496.271 167.625C496.455 167.854 496.817 168.322 496.995 168.55C497.151 169.893 497.574 171.18 498.442 172.238C498.498 172.433 498.614 172.829 498.676 173.024C499.605 174.473 499.856 176.228 499.817 177.921C499.722 178.863 500.112 179.23 500.98 179.035C500.98 180.261 501.069 181.492 501.153 182.718C501.392 182.713 501.871 182.701 502.11 182.696C502.116 183.041 502.121 183.727 502.127 184.066C501.965 185.621 502.728 186.975 503.424 188.295C503.418 188.613 503.418 189.248 503.418 189.56C503.635 189.554 504.064 189.537 504.281 189.532C504.409 190.953 504.548 192.379 504.637 193.811C504.504 195.828 505.539 197.627 505.789 199.588C505.773 200.914 505.901 202.279 506.819 203.321C506.853 204.162 506.88 205.009 506.925 205.856C506.975 207.004 507.053 208.151 507.231 209.288C507.47 209.444 507.955 209.75 508.2 209.906C508.233 211.177 508.25 212.452 508.25 213.728C508.122 215.127 508.361 216.525 509.38 217.567C509.73 220.442 508.879 223.751 510.727 226.247C510.716 227.261 510.738 228.275 510.76 229.295C510.682 232.487 510.999 235.652 511.673 238.766C512.107 249.914 512.113 261.09 511.667 272.233C511.005 275.18 510.682 278.183 510.782 281.209C510.766 283.209 510.588 285.203 510.671 287.203C510.398 287.12 509.858 286.947 509.586 286.858C509.563 287.772 509.558 288.68 509.558 289.599C509.552 290.596 509.558 291.594 509.563 292.602C509.502 293.934 509.402 295.265 509.257 296.597C507.726 298.552 508.445 301.182 508.211 303.466C508.072 302.792 507.916 302.129 507.749 301.472C506.769 303.461 507.008 305.756 506.279 307.823C505.695 309.467 505.617 311.227 505.812 312.949C504.865 312.508 504.209 313.701 504.526 314.497C504.598 315.322 504.654 316.158 504.698 316.993C504.693 317.601 504.676 318.219 504.654 318.838C504.353 318.966 503.741 319.233 503.435 319.361C503.268 321.946 502.238 324.342 501.654 326.844C501.553 327.089 501.348 327.585 501.247 327.835C501.136 328.092 500.913 328.604 500.802 328.866C499.026 329.607 496.984 329.952 495.592 331.379C496.054 331.373 496.972 331.351 497.429 331.345C496.594 331.457 495.753 331.49 494.924 331.551C494 331.574 493.087 331.757 492.258 332.159C489.959 333.217 487.532 333.964 485.211 334.961L485.149 334.978C484.136 335.212 483.118 335.351 482.088 335.39C480.702 335.312 479.322 335.262 477.941 335.273C477.04 335.045 475.848 335.407 475.197 334.582C472.275 331.863 470.36 328.326 468.195 325.033C467.816 324.27 467.449 323.512 467.07 322.76C466.614 322.024 466.169 321.3 465.701 320.581C465.567 320.331 465.3 319.835 465.167 319.584C464.493 318.659 463.836 317.734 463.163 316.821C461.086 313.89 458.253 311.311 454.763 310.258C452.943 308.87 450.522 309.394 448.407 309.283C446.219 309.455 443.614 308.82 441.894 310.558C441.688 310.575 441.27 310.614 441.064 310.636C440.296 310.709 439.54 310.815 438.794 310.943C438.693 311.171 438.493 311.628 438.393 311.851C436.317 312.063 433.995 311.784 432.237 313.138C431.307 313.233 430.389 313.327 429.47 313.417C430.645 313.656 431.808 313.918 432.977 314.224C433.261 313.612 433.556 312.999 433.862 312.397C434.474 312.492 435.699 312.687 436.311 312.781C435.493 313.027 434.652 313.227 433.834 313.433C433.494 313.801 433.166 314.169 432.843 314.547C431.513 314.531 430.193 314.492 428.88 314.475L427.895 314.481C425.546 315.183 423.113 315.651 420.859 316.637C420.074 316.776 419.295 316.915 418.521 317.06C418.41 317.083 418.176 317.127 418.065 317.149C415.816 317.846 413.473 318.23 411.307 319.172C410.734 319.294 410.166 319.423 409.604 319.551C407.828 320.553 405.774 320.787 403.91 321.551C401.516 322.565 398.493 322.359 396.512 324.152C396.345 324.152 396.005 324.152 395.833 324.152C394.675 324.125 393.456 324.13 392.543 324.949C391.23 325.35 389.376 325.072 388.814 326.654C388.736 326.66 388.58 326.665 388.496 326.665C385.752 326.715 382.864 327.568 380.22 326.47C378.015 325.245 376.596 323.061 374.926 321.239C374.247 319.824 373.44 318.459 372.299 317.372C372.276 317.244 372.232 316.977 372.21 316.843C372.143 316.642 372.009 316.241 371.943 316.041C371.341 314.932 370.746 313.823 370.189 312.703C368.937 310.425 367.217 308.469 365.658 306.408C363.738 303.94 360.81 302.636 358.233 301.004C355.455 300.797 352.683 300.207 349.895 300.586C346.577 300.675 343.543 302.096 340.365 302.87C338.94 303.249 337.37 303.382 336.218 304.413C336.073 304.419 335.778 304.43 335.633 304.435C332.85 304.736 330.123 305.583 327.524 306.597C324.835 306.781 322.414 308.024 319.775 308.408C318.011 309.673 315.539 308.887 313.942 310.419C312.417 310.765 310.329 310.252 309.511 311.974C309.31 311.974 308.915 311.985 308.72 311.99C307.251 311.935 305.631 311.829 304.579 313.06C304.39 313.065 304.017 313.082 303.828 313.088C302.703 313.127 301.585 313.183 300.466 313.283C298.384 314.704 295.612 314.208 293.452 315.573C293.241 315.584 292.829 315.6 292.617 315.612C289.244 315.846 285.865 315.829 282.492 315.656C282.208 315.645 281.646 315.634 281.368 315.628C281.295 315.355 281.151 314.815 281.084 314.542C276.091 314.185 273.569 309.333 270.296 306.263L270.274 306.129C270.224 305.834 270.124 305.243 270.074 304.943C269.417 303.867 268.855 302.742 268.265 301.633C268.07 300.981 267.875 300.329 267.692 299.683L267.168 299.945C266.807 298.146 266.105 296.452 265.298 294.808C265.025 294.652 264.48 294.34 264.201 294.184L264.157 293.822C264.151 291.944 262.448 290.908 261.212 289.788C259.236 287.822 256.181 288.446 253.731 288.897C253.559 289.003 253.208 289.209 253.036 289.309C247.453 292.307 243.256 297.115 238.313 300.959C236.114 302.63 234.194 304.642 231.928 306.23C228.794 308.386 225.922 310.976 222.404 312.514C222.839 312.62 223.701 312.826 224.135 312.926C223.69 313.071 223.245 313.21 222.799 313.35C221.536 313.612 220.328 314.046 219.131 314.514C218.992 314.726 218.708 315.144 218.564 315.35C217 316.024 215.502 316.837 213.999 317.634C213.025 318.013 212.062 318.409 211.177 318.971C210.621 319.122 210.064 319.272 209.507 319.428C209.34 319.64 209.012 320.052 208.845 320.264C207.732 320.565 206.64 320.977 205.689 321.645L205.382 321.651C204.353 321.768 203.34 322.069 202.566 322.793C202.399 322.821 202.07 322.877 201.903 322.905C200.534 323.049 199.299 323.651 198.007 324.058C196.31 324.342 194.584 324.37 192.881 324.543C194.211 324.799 195.547 325.049 196.888 325.267C195.274 325.49 193.643 325.534 192.018 325.484C186.251 325.439 180.484 325.579 174.712 325.434C173.003 325.451 171.283 325.518 169.586 325.289C170.71 325.345 171.829 325.278 172.953 325.2C171.746 323.623 169.591 324.119 167.883 323.768C166.931 323.127 165.818 322.827 164.715 322.576C161.392 321.601 158.554 319.573 155.364 318.303C155.041 318.169 154.401 317.896 154.084 317.762C153.282 317.35 152.486 316.915 151.69 316.514C151.278 316.18 150.866 315.857 150.449 315.539C145.311 311.784 140.591 307.361 136.856 302.201C135.504 299.772 133.845 297.538 132.136 295.36C131.657 294.652 131.179 293.956 130.689 293.265C130.589 293.115 130.383 292.808 130.282 292.652C129.637 291.738 128.974 290.841 128.306 289.95C128.212 289.705 128.017 289.22 127.922 288.975C127.377 288.279 126.915 287.521 126.553 286.724C125.952 285.972 125.345 285.231 124.722 284.501C123.876 282.601 122.595 280.936 121.126 279.481C122.195 276.924 125.028 275.921 127.032 274.239C128.151 273.431 129.203 272.54 130.171 271.559C130.444 271.464 130.989 271.275 131.262 271.18C133.11 269.642 135.197 268.428 137.068 266.918C137.719 266.439 138.37 265.971 139.021 265.497C139.261 265.364 139.74 265.102 139.979 264.974C142.623 262.606 145.617 260.706 148.44 258.567C148.05 258.438 147.282 258.182 146.897 258.054C147.437 257.753 148.055 257.658 148.645 257.48C149.241 256.845 149.836 256.215 150.415 255.575C150.388 255.959 150.338 256.728 150.31 257.107C151.017 256.55 151.713 255.987 152.403 255.408C152.676 255.352 153.227 255.246 153.499 255.19C157.83 251.458 162.751 248.477 167.248 244.956C178.03 237.083 188.873 229.284 199.649 221.406C196.816 220.837 193.922 220.938 191.066 221.194C190.849 221.439 190.415 221.935 190.203 222.186C189.279 222.264 188.361 222.331 187.448 222.436C181.309 225.489 175.481 229.161 170.031 233.323C169.764 233.379 169.224 233.484 168.951 233.54C166.903 235.1 164.559 236.309 162.817 238.253L162.717 238.27C162.377 238.315 161.693 238.398 161.353 238.443C161.342 238.655 161.326 239.084 161.314 239.295C160.435 239.54 159.533 239.802 158.91 240.521C158.676 240.638 158.208 240.866 157.975 240.983C156.533 242.109 154.824 242.85 153.46 244.081C151.562 245.05 149.72 246.198 148.345 247.858C148.607 247.875 149.13 247.92 149.391 247.936C149.107 248.087 148.528 248.382 148.245 248.527C147.755 248.861 147.282 249.273 146.658 249.312L145.54 249.296C143.402 250.271 141.677 251.92 139.623 253.045C137.864 254.02 136.227 255.196 134.774 256.589C134.641 256.633 134.379 256.722 134.245 256.773C131.05 258.305 128.228 260.55 125.228 262.439C125.067 262.55 124.738 262.762 124.577 262.873C122.267 264.21 119.907 265.52 117.925 267.341C115.415 268.456 113.366 270.35 110.889 271.537C110.856 267.67 111.168 263.804 110.945 259.937C110.722 256.544 111.168 253.107 110.461 249.753C109.437 243.335 110.255 236.771 108.908 230.409C108.785 230.175 108.535 229.707 108.412 229.478C108.373 228.81 108.357 228.141 108.357 227.484C108.357 224.81 108.496 222.007 107.405 219.506C107.31 218.804 107.232 218.107 107.165 217.416C107.048 215.701 106.96 213.99 106.871 212.28C106.971 211.711 107.071 211.149 107.171 210.586C106.826 210.023 106.475 209.461 106.158 208.881C106.08 206.881 106.019 204.859 105.306 202.964C104.505 200.753 105.073 198.318 104.277 196.106C103.241 193.359 103.97 190.206 102.306 187.66C102.3 187.459 102.289 187.064 102.278 186.863C102.317 185.069 102.117 183.247 101.265 181.643C101.243 181.325 101.204 180.696 101.182 180.378C101.159 178.746 100.931 177.125 100.369 175.592C99.2726 168.912 97.5137 162.355 96.0497 155.736C95.1925 152.432 94.0069 149.184 93.6674 145.775C93.6284 144.989 93.3111 144.276 92.8046 143.685C92.6376 142.666 92.4818 141.646 92.3315 140.627C92.0977 140.387 91.6357 139.908 91.4019 139.668C91.3295 138.721 91.2516 137.774 91.1514 136.832C89.9435 134.459 89.6597 131.746 88.4963 129.345C86.9155 124.932 85.8968 120.291 83.6982 116.118C82.0728 113.21 81.0094 109.527 77.909 107.833C77.4024 105.783 75.9221 104.212 74.1019 103.243C74.0407 104.931 74.152 106.63 74.6697 108.251C75.666 111.149 74.8642 114.424 76.445 117.154C76.4562 117.31 76.484 117.622 76.5007 117.778C76.7178 119.957 76.5118 122.269 77.5416 124.275C77.6752 124.921 77.8088 125.567 77.909 126.225C77.8533 127.378 77.7923 128.537 77.809 129.696C77.7255 130.877 77.8925 132.08 78.8833 132.855C78.9557 133.891 78.9223 134.927 78.9 135.969C78.7664 137.807 78.6718 139.919 80.2526 141.212C80.2471 142.504 80.2359 143.797 80.1914 145.089C80.0189 146.694 80.4196 148.254 80.9317 149.764C81.6776 152.026 80.4082 155.001 82.657 156.627C82.6626 156.822 82.6848 157.207 82.6904 157.396C82.7739 159.04 82.8966 160.683 83.0024 162.333L83.8315 162.071C83.9428 163.235 83.9929 164.411 83.9484 165.586C83.8204 167.614 83.982 169.642 84.1713 171.659L84.9951 171.431C85.0786 173.771 84.8615 176.166 85.535 178.445C86.7429 181.682 85.891 185.314 87.5887 188.423C87.5943 188.512 87.5999 188.691 87.6054 188.78C87.6667 190.78 87.7949 192.791 88.257 194.741C88.3627 194.958 88.5684 195.387 88.6686 195.605C88.6853 195.844 88.7131 196.323 88.7242 196.563C88.8077 198.257 88.6911 200.006 89.3368 201.611C90.489 204.357 89.565 207.427 90.5057 210.218C91.619 213.338 90.8508 216.793 92.2869 219.84C92.2201 223.835 93.8344 227.584 93.7954 231.579L94.1349 231.913C94.3298 232.092 94.7136 232.448 94.9028 232.626C94.9529 233.729 94.9641 234.833 94.9863 235.941C95.0308 237.546 95.1647 239.145 95.2426 240.755C95.2538 240.917 95.2705 241.24 95.2816 241.407C95.4931 241.97 95.7325 242.527 95.9718 243.084C96.1889 244.85 96.2 246.627 96.2613 248.404C96.2947 249.524 96.7622 250.538 97.2799 251.508C97.4469 253.218 97.5081 254.94 97.6695 256.65C97.9924 256.254 98.3205 255.864 98.6434 255.474C98.6768 256.628 98.6823 257.781 98.6434 258.94C98.5098 261.018 98.4432 263.174 99.2281 265.152C100.358 267.681 99.1666 270.784 100.987 273.063C100.992 273.225 101.003 273.553 101.009 273.715C101.076 275.292 101.093 276.863 101.104 278.445C96.3726 281.326 91.9585 284.68 87.3274 287.699C85.0953 289.153 82.6292 290.307 80.7589 292.245C80.5529 292.307 80.1299 292.424 79.924 292.485C79.8015 292.524 79.5569 292.596 79.4344 292.635C74.9981 295.533 70.5228 298.452 66.9047 302.38C66.8657 303.349 66.7934 304.324 66.7321 305.305C67.5559 305.422 68.3795 305.566 69.2089 305.678C69.9102 305.745 70.6171 305.817 71.3185 305.878C70.9344 305.929 70.1665 306.029 69.7825 306.079C70.3168 306.436 70.8567 306.787 71.4022 307.138C71.5748 307.372 71.9199 307.84 72.0925 308.074C73.4785 308.235 74.9981 308.129 76.0724 309.188C78.6662 309.506 81.5273 309.884 83.8874 308.464C86.3088 307.288 88.6243 305.773 90.322 303.644C90.5169 303.5 90.9121 303.21 91.1069 303.059C91.7915 302.296 92.4704 301.533 93.2051 300.814L93.2997 300.742C93.6393 300.597 94.3131 300.307 94.647 300.162C97.3801 297.962 99.679 295.12 102.935 293.655C103.748 293.271 104.549 292.858 105.29 292.351C105.857 292.34 106.425 292.334 106.993 292.334C109.058 293.582 111.274 294.747 112.665 296.803C115.587 300.809 118.103 305.104 120.987 309.138C123.503 311.879 125.991 314.681 128.841 317.088C131.279 319.595 133.895 321.913 136.422 324.331C137.19 325.161 138.237 325.59 139.261 326.008L139.066 326.42C139.55 326.771 140.029 327.128 140.508 327.495C142.122 328.972 144.187 329.858 145.684 331.473C145.796 331.451 146.024 331.406 146.135 331.384L146.669 331.496C148.929 333.072 151.206 334.967 154.056 335.245C154.228 335.267 154.573 335.306 154.752 335.323C156.037 336.788 158.147 336.95 159.878 337.624C161.392 337.691 162.917 337.669 164.431 337.786C163.184 337.708 161.86 337.691 160.958 338.694C164.498 338.56 167.682 340.477 171.217 340.204C177.317 339.964 183.44 340.388 189.535 340.048C189.697 339.736 190.008 339.117 190.17 338.811C190.565 338.777 190.96 338.761 191.361 338.755C192.914 338.844 194.484 338.828 196.009 338.46C194.912 338.243 193.816 338.07 192.719 337.936C194.333 337.496 196.02 337.602 197.673 337.657C199.933 337.875 201.982 336.788 204.063 336.114C205.488 335.618 206.886 335.033 208.26 334.415C210.498 333.858 212.591 332.888 214.667 331.908C220.161 329.462 225.522 326.66 230.526 323.311C237.762 319.395 244.157 314.146 250.987 309.589C251.549 309.617 252.117 309.656 252.685 309.695C254.249 313.617 256.698 317.055 258.992 320.565C260.472 322.509 262.365 324.075 263.99 325.896C264.803 326.849 265.899 327.473 267.035 327.975C267.191 328.069 267.502 328.253 267.658 328.342C270.436 330.186 273.458 331.875 276.893 331.902L276.642 332.643C279.726 332.866 282.815 332.738 285.899 332.794C288.248 332.732 290.647 333 292.957 332.46C293.174 332.253 293.614 331.847 293.831 331.64C294.098 331.635 294.621 331.618 294.883 331.613C295.968 331.562 297.059 331.496 298.156 331.423C298.351 331.145 298.74 330.599 298.935 330.32C299.057 330.32 299.297 330.309 299.419 330.309C302.113 330.203 304.635 329.128 307.14 328.22C309.389 327.523 311.61 326.682 313.975 326.442L313.803 325.768C315.111 325.607 316.424 325.456 317.738 325.306C317.966 325.089 318.417 324.654 318.64 324.437C321.568 324.024 324.401 323.072 327.14 321.98C329.8 321.746 332.288 320.721 334.899 320.225C336.318 319.216 338.077 319.239 339.742 319.049C341.317 317.974 343.276 318.002 345.096 317.757C347.367 317.528 349.794 317.311 351.915 318.342C353.401 319.255 354.453 320.71 355.394 322.147C356.713 324.225 358.188 326.259 358.879 328.66C359.09 328.799 359.524 329.067 359.736 329.206C359.892 329.98 360.059 330.766 360.231 331.546C360.543 331.117 360.849 330.682 361.155 330.253C361.366 330.833 361.84 331.245 362.285 331.668C362.352 332.37 362.407 333.078 362.457 333.791L361.979 333.401C361.968 333.056 361.951 332.359 361.94 332.014C361.712 331.93 361.25 331.757 361.022 331.668C361.311 333.312 362.458 334.554 363.393 335.864C365.224 338.326 367.267 340.822 370.122 342.12C374.698 344.271 379.852 343.117 384.606 342.337C386.704 341.758 388.981 341.541 390.868 340.382C392.516 340.165 394.313 340.271 395.744 339.273C396.863 339.078 397.998 338.911 399.134 338.755L398.933 337.992C402.98 337.691 406.715 335.914 410.561 334.755C410.756 334.616 411.151 334.337 411.352 334.192L411.491 334.103C412.376 333.93 413.267 333.791 414.168 333.68C414.241 333.674 414.385 333.663 414.458 333.657C415.816 332.582 417.692 332.939 419.134 332.042C420.653 331.707 422.323 331.562 423.481 330.381L423.514 330.376C425.05 330.42 426.509 329.919 427.839 329.172C428.034 329.172 428.429 329.167 428.624 329.161C429.008 329.133 429.776 329.067 430.16 329.033C432.303 328.448 434.435 327.774 436.678 327.707C437.029 327.384 437.385 327.066 437.747 326.749C438.699 326.771 439.651 326.805 440.614 326.777C442.69 326.715 444.772 326.582 446.859 326.593C447.154 326.61 447.744 326.637 448.039 326.654C449.837 328.431 451.401 330.437 453.149 332.27L453.377 332.521C453.321 332.76 453.216 333.228 453.16 333.468C453.761 334.192 454.212 335.028 454.596 335.897C455.197 337.089 455.843 338.265 456.55 339.407C456.706 339.903 456.879 340.404 457.051 340.911C457.992 342.12 458.816 343.424 459.484 344.811C460.897 346.561 462.489 348.154 464.081 349.747C464.799 350.455 465.645 351.073 466.658 351.291C469.759 352.438 473.043 352.383 476.299 352.366C477.123 352.589 478.682 352.539 478.47 351.296C479.684 351.28 480.897 351.168 482.116 351.062C482.311 350.823 482.706 350.349 482.901 350.11C484.454 350.026 486.218 350.188 487.482 349.079C489.881 348.611 492.052 347.396 494.473 346.995C494.122 348.455 493.761 349.926 493.649 351.43C493.633 351.686 493.594 352.193 493.577 352.444C492.709 352.288 492.313 352.678 492.375 353.614C492.33 354.433 492.269 355.252 492.219 356.076C491.963 356.249 491.451 356.6 491.195 356.778C491.167 357.191 491.117 358.015 491.094 358.428C490.838 358.489 490.332 358.617 490.076 358.678C489.502 360.238 488.834 361.765 488.206 363.303C487.805 364.055 487.398 364.801 486.998 365.559C486.736 366.266 486.491 366.98 486.319 367.721C486.285 367.843 486.218 368.077 486.185 368.2C485.612 368.573 485.016 368.969 484.777 369.654C483.463 372.317 482.183 374.997 480.914 377.682C479.049 380.841 476.978 383.917 475.47 387.27C475.381 387.56 475.208 388.145 475.119 388.44C475.058 388.563 474.93 388.808 474.869 388.931C474.284 389.622 473.945 390.452 473.639 391.293C473.427 391.455 472.998 391.772 472.787 391.934C472.676 392.485 472.57 393.042 472.47 393.605C471.523 394.424 470.694 395.366 469.97 396.38C469.403 397.421 468.818 398.469 468.056 399.383C468 399.5 467.883 399.739 467.822 399.862C465.579 401.739 464.009 404.302 462.812 406.943C461.933 408.28 461.081 409.639 460.124 410.926C459.2 411.784 458.398 412.771 457.736 413.846C457.591 413.868 457.296 413.907 457.146 413.924C456.756 414.877 456.405 415.907 455.531 416.537C455.504 416.749 455.448 417.172 455.42 417.384C455.209 417.389 454.78 417.406 454.568 417.412C454.006 418.275 453.433 419.133 452.887 420.008C452.659 420.024 452.208 420.047 451.98 420.063C451.969 420.281 451.947 420.721 451.936 420.944C450.833 421.339 450.605 422.504 450.221 423.462C449.993 423.468 449.525 423.468 449.292 423.468C449.303 423.768 449.319 424.37 449.331 424.671C449.119 424.688 448.696 424.727 448.485 424.743C448.078 425.284 447.677 425.835 447.271 426.376C446.848 426.744 446.436 427.117 446.024 427.496C445.139 428.654 444.154 429.73 443.08 430.716C442.601 431.206 442.145 431.719 441.716 432.254C441.516 432.281 441.115 432.337 440.914 432.365C440.92 432.655 440.926 433.229 440.926 433.518C440.708 433.535 440.269 433.568 440.052 433.591C439.656 434.142 439.267 434.699 438.866 435.257C438.46 435.635 438.059 436.025 437.664 436.415C436.767 437.246 435.855 438.053 434.897 438.811C434.869 439.023 434.819 439.452 434.791 439.669C434.591 439.691 434.185 439.741 433.984 439.769C432.454 441.619 430.583 443.14 428.947 444.889C428.479 445.218 428.012 445.547 427.55 445.881C426.937 446.6 426.32 447.324 425.735 448.071C425.496 448.082 425.017 448.104 424.778 448.11C424.778 448.321 424.783 448.745 424.783 448.957C423.614 449.553 422.518 450.26 421.427 450.968C421.405 451.202 421.36 451.659 421.338 451.893C421.115 451.893 420.664 451.898 420.442 451.904C419.818 452.673 419.167 453.425 418.532 454.194C418.365 454.238 418.02 454.338 417.853 454.389C417.247 455.252 416.261 455.614 415.332 455.988C415.321 456.199 415.293 456.617 415.282 456.829C415.053 456.846 414.603 456.885 414.38 456.907C414.274 457.035 414.063 457.291 413.957 457.414C412.198 457.993 410.456 458.857 409.688 460.668C409.543 460.723 409.259 460.824 409.114 460.874C409.103 461.013 409.081 461.286 409.07 461.42C407.923 462.016 406.932 462.857 406.064 463.81C404.656 464.361 403.409 465.225 402.351 466.306C401.9 466.534 401.455 466.768 401.01 467.008C400.42 467.392 399.813 467.765 399.217 468.139C399.023 468.378 398.627 468.846 398.433 469.086C398.054 469.114 397.308 469.169 396.93 469.197C396.907 469.392 396.857 469.782 396.835 469.977C396.206 470.339 395.599 470.735 394.998 471.131C394.241 471.576 393.501 472.028 392.766 472.501L392.438 472.674C389.76 473.877 386.882 475.175 384.979 477.482C384.211 477.721 383.504 478.111 382.869 478.596C382.285 478.808 381.706 479.02 381.144 479.254C380.526 480.089 379.451 480.173 378.533 480.44C378.533 480.646 378.544 481.07 378.544 481.282C378.11 481.309 377.236 481.365 376.802 481.393C376.835 481.649 376.908 482.173 376.941 482.429C376.234 482.479 375.533 482.529 374.831 482.591C374.659 482.825 374.319 483.298 374.152 483.532C373.245 483.761 372.188 483.839 371.692 484.758C371.191 484.847 370.701 484.947 370.217 485.064C369.454 485.215 368.742 485.477 368.029 485.766C364.411 487.755 360.437 489.037 356.953 491.265C356.747 491.265 356.34 491.254 356.134 491.254C355.199 491.165 354.837 491.555 355.049 492.424C354.832 492.424 354.403 492.424 354.192 492.424C351.42 492.53 349.082 494.185 346.549 495.11C345.124 495.756 343.415 495.962 342.369 497.238C342.235 497.249 341.974 497.271 341.846 497.282C340.693 497.288 339.547 497.472 338.55 498.068C336.296 498.703 334.109 499.611 331.771 499.923C331.787 500.168 331.821 500.67 331.837 500.915C329.31 500.402 326.906 501.411 324.54 502.141C323.789 502.28 323.265 502.815 322.831 503.411C322.202 503.444 321.579 503.467 320.961 503.5C319.798 503.511 318.328 503.272 317.827 504.648C316.402 504.737 314.983 504.843 313.563 504.949C313.558 505.155 313.552 505.567 313.547 505.773C312.495 505.879 311.448 506.002 310.413 506.197C307.93 507.172 305.242 507.155 302.67 507.734C301.535 508.375 300.21 508.314 298.957 508.347C297.455 508.47 295.44 507.907 294.516 509.484C293.347 509.467 292.178 509.512 291.014 509.545C290.352 509.551 289.695 509.562 289.044 509.573C288.125 509.551 287.218 509.528 286.305 509.517C284.825 509.461 283.283 509.567 282.158 510.643C280.266 510.776 278.373 510.81 276.481 510.815C275.017 510.821 273.559 510.838 272.106 510.787C270.046 510.698 267.881 510.325 265.955 511.267C263.834 512.275 261.452 511.946 259.192 511.957C255.29 511.896 251.388 512.047 247.497 511.935C246.534 512.069 245.855 511.439 245.365 510.709C243.512 510.587 241.653 510.631 239.816 510.865C236.186 511.016 232.563 510.698 228.939 510.693C228.527 509.506 227.314 509.562 226.29 509.539C225.249 509.539 224.208 509.573 223.173 509.606C222.438 509.601 221.709 509.601 220.979 509.601C219.22 509.406 217.25 509.785 215.691 508.771C214.266 508.576 212.841 508.442 211.417 508.33C209.697 507.673 207.943 506.938 206.056 507.099C205.5 507.094 204.943 507.094 204.392 507.099C202.054 505.784 199.338 505.656 196.827 504.848C194.64 504.553 192.569 503.762 190.387 503.467C190.125 503.456 189.602 503.422 189.341 503.405C188.778 502.954 188.25 502.425 187.52 502.291C183.435 501.35 179.544 499.751 175.475 498.753C175.264 498.714 174.835 498.636 174.623 498.597C173.766 498.536 172.909 498.491 172.057 498.469C172.074 498.23 172.107 497.756 172.124 497.516C170.972 497.433 169.825 497.36 168.69 497.216C168.534 496.926 168.228 496.352 168.077 496.062C167.432 496.04 166.786 496.023 166.146 496.007C165.934 495.773 165.517 495.299 165.311 495.065C162.021 494.235 158.938 492.798 155.804 491.544C155.525 491.472 154.974 491.327 154.696 491.249C154.139 491.115 153.588 490.992 153.037 490.887C152.876 490.647 152.553 490.168 152.392 489.928C151.696 489.884 151.006 489.85 150.315 489.822C150.171 489.577 149.876 489.098 149.731 488.853C148.79 488.675 147.699 488.63 147.243 487.633C146.653 487.555 146.068 487.494 145.478 487.438C145.322 487.209 145.011 486.758 144.855 486.53C143.948 486.262 143.024 486.006 142.306 485.371C141.148 485.014 139.99 484.663 138.905 484.123C138.337 483.638 137.775 483.17 137.218 482.691C136.583 482.607 135.954 482.535 135.331 482.468C135.331 482.184 135.331 481.61 135.331 481.321C135.097 481.343 134.624 481.393 134.39 481.415C134.741 480.401 133.539 479.788 132.715 480.156C130.204 479.755 128.24 477.827 126.041 476.652C125.779 476.546 125.25 476.329 124.983 476.223C124.432 475.771 123.881 475.326 123.325 474.897C122.273 474.289 121.193 473.727 120.163 473.086C119.673 472.88 119.189 472.679 118.705 472.484C117.586 471.476 116.305 470.69 115.003 469.955C114.563 469.632 114.129 469.32 113.684 469.03C112.693 467.403 110.912 466.607 109.398 465.576C107.622 464.478 106.025 463.13 104.36 461.877C104.026 461.799 103.353 461.631 103.019 461.553C102.913 461.52 102.701 461.459 102.596 461.425C101.471 460.278 100.302 459.135 98.8385 458.428C98.7661 458.066 98.6158 457.336 98.5434 456.974C97.6194 456.511 96.701 456.049 95.7269 455.715C95.4931 455.642 95.0311 455.503 94.7973 455.436C94.8029 455.269 94.8029 454.94 94.8085 454.773C93.7342 454.127 92.6933 453.43 91.6412 452.751C90.4445 451.469 89.1587 450.283 87.7783 449.207C86.9823 448.489 86.2086 447.759 85.446 447.012C85.1899 446.929 84.6834 446.761 84.4274 446.678C82.7463 444.594 80.6645 442.906 78.7275 441.084C77.5586 439.842 76.3785 438.611 75.1539 437.418C74.6808 436.934 74.2132 436.438 73.7568 435.942C73.5564 435.903 73.1501 435.825 72.9497 435.786C72.9163 435.591 72.8495 435.19 72.8161 434.989C70.712 433.245 69.1145 430.978 66.9492 429.301C66.9214 429.078 66.8602 428.638 66.8323 428.415C66.5763 428.426 66.0586 428.448 65.797 428.454C65.5855 427.702 65.3684 426.955 65.1569 426.214C64.9175 426.225 64.4277 426.242 64.1883 426.253C64.1549 426.03 64.0993 425.579 64.0715 425.351C62.9471 424.342 61.9284 423.228 60.9154 422.125C60.1305 421.233 59.3457 420.348 58.5831 419.451C58.533 419.356 58.4328 419.166 58.3827 419.072C56.6126 415.467 53.4788 412.793 51.3191 409.444C50.5175 408.113 49.5435 406.876 48.2298 406.018C47.4839 404.831 46.7937 403.6 45.8864 402.536C45.853 402.319 45.7806 401.89 45.7472 401.678C45.5524 401.661 45.1628 401.622 44.968 401.606C44.6451 400.887 44.1943 400.257 43.5987 399.75C43.5486 399.461 43.4484 398.887 43.3927 398.597C43.1812 398.402 42.7526 398.012 42.5355 397.811C42.1125 397.232 41.6839 396.658 41.2386 396.107C41.066 395.583 40.8934 395.07 40.7265 394.558C40.3869 394.24 40.0585 393.917 39.7301 393.594C39.6744 393.237 39.552 392.519 39.4907 392.157C37.5036 389.471 36.0174 386.463 34.1082 383.727C33.4291 382.418 32.7667 381.097 32.1321 379.766C31.0244 378.067 30.0782 376.273 29.1041 374.501C28.6977 373.587 28.2858 372.69 27.835 371.81C27.59 371.069 27.3396 370.334 27.0946 369.598C26.9388 370.033 26.7829 370.467 26.6271 370.913C26.3098 369.843 25.9368 368.779 25.2077 367.927C25.1242 367.353 25.0407 366.785 24.9572 366.222C24.7011 366.088 24.1835 365.821 23.9274 365.687C23.8773 364.896 23.8217 364.11 23.7716 363.325C23.5489 363.347 23.1147 363.381 22.8921 363.397C22.5748 362.088 22.6249 360.511 21.456 359.614C21.3558 359.024 21.2556 358.433 21.161 357.848C20.8994 357.664 20.3706 357.302 20.1089 357.124C20.1089 356.734 20.1201 355.959 20.1256 355.575C19.7416 355.14 19.3575 354.711 18.9734 354.288C18.9345 353.586 18.8955 352.89 18.8621 352.199C18.6228 352.204 18.1496 352.216 17.9158 352.221C17.6487 350.578 17.5373 348.834 16.5855 347.413C16.4352 346.845 16.2905 346.288 16.1402 345.73C15.3442 344.861 15.1717 343.702 15.0325 342.583C14.7876 342.421 14.3033 342.098 14.0584 341.936C14.0139 340.939 13.9638 339.947 13.9526 338.956C13.9805 338.733 14.0306 338.287 14.0528 338.064C13.691 337.663 13.3237 337.268 12.9618 336.878C12.9117 335.997 12.8617 335.128 12.8171 334.259C12.5054 334.187 11.8764 334.031 11.5647 333.953C11.4367 332.61 11.4645 331.089 10.4014 330.097C10.3568 329.468 10.3179 328.849 10.29 328.231C10.2566 327 10.4681 325.495 9.06545 324.921C9.08214 324.66 9.12111 324.141 9.14337 323.885C9.41612 323.01 9.14894 321.54 7.92992 321.857C7.95219 320.308 7.79633 318.715 6.79997 317.461C6.73317 316.553 6.67751 315.651 6.64968 314.754C6.76657 313.132 6.3825 311.567 5.41953 310.258C5.375 310.074 5.28594 309.712 5.24698 309.528C4.18382 307.784 4.4343 305.639 4.23391 303.689C4.01126 301.867 4.85734 299.315 2.95367 298.179C2.9982 296.006 2.48053 293.889 1.87937 291.816C1.79031 290.385 1.74578 288.947 1.71239 287.515C1.75692 284.524 1.18359 281.576 0.526768 278.674C0.515635 277.442 0.510069 276.206 0.510069 274.98C0.504503 273.336 0.498936 271.704 0.504503 270.066C0.749419 266.294 -0.0354267 262.572 0.00353726 258.812C0.114863 254.923 -0.22468 251.012 0.326382 247.145C0.59913 244.922 0.465539 242.688 0.526768 240.46C0.682624 237.863 0.754985 235.267 0.738287 232.671C0.97207 232.437 1.45077 231.975 1.68455 231.746C1.82371 229.272 1.86268 226.799 1.87381 224.325C1.82371 222.018 3.14292 219.952 3.0149 217.634C3.0316 216.447 3.04829 215.26 3.09839 214.079C4.17825 213.355 4.14485 212.085 4.11702 210.932C4.13929 210.029 4.13372 209.126 4.15042 208.229C4.18382 207.628 4.23391 207.032 4.28958 206.441C5.30264 205.015 5.09112 203.182 5.27481 201.538C6.73874 198.753 6.8445 195.56 7.8019 192.607C8.42532 188.741 10.2622 185.142 10.4793 181.214C10.5127 180.618 10.5461 180.016 10.5795 179.42C10.7465 179.425 11.0804 179.442 11.2474 179.448C11.5591 177.002 12.934 174.835 12.9785 172.339C13.1845 172.25 13.602 172.077 13.8079 171.993C14.7932 169.96 15.6559 167.848 16.1625 165.642C16.3851 164.478 16.5632 163.313 16.7358 162.143C16.9028 162.16 17.2367 162.193 17.4037 162.216C17.4984 161.413 17.6153 160.617 17.7433 159.82C18.0049 159.753 18.5281 159.608 18.7897 159.536C19.7249 156.126 21.3781 152.995 22.675 149.725C22.6583 149.418 22.6249 148.811 22.6082 148.51C23.4543 148.649 23.8551 148.27 23.8161 147.362C23.8439 146.711 23.8773 146.064 23.9163 145.418C24.1835 145.245 24.7234 144.905 24.9906 144.733C25.0574 144.148 25.1242 143.568 25.1965 142.989C26.0927 142.499 26.282 141.54 26.4879 140.632C26.6994 140.476 27.1225 140.159 27.3284 140.003C27.5121 139.206 27.6958 138.415 27.8795 137.624C28.0632 137.635 28.4361 137.663 28.6198 137.674C28.7311 136.994 28.8369 136.32 28.9538 135.646C29.2822 135.206 29.605 134.76 29.9223 134.309C30.2173 134.142 30.7962 133.802 31.0857 133.635C31.2137 133.083 31.3417 132.531 31.4697 131.985C32.3659 130.615 33.2788 129.228 33.7853 127.656C33.8577 127.45 34.0024 127.032 34.0803 126.826C34.7371 126.102 34.9431 125.133 35.2437 124.23C35.4496 124.241 35.8727 124.264 36.0786 124.275C36.0786 123.879 36.0786 123.094 36.0786 122.698C36.3235 122.67 36.8134 122.62 37.0583 122.592C37.3533 121.695 37.6984 120.809 38.127 119.962C38.5445 119.45 38.9564 118.937 39.3627 118.419C39.7412 117.645 40.0975 116.837 40.8044 116.302C40.9769 115.645 41.1495 114.987 41.3165 114.33C41.4668 114.313 41.7729 114.274 41.9288 114.257C42.5466 113.104 43.3593 112.085 44.2611 111.143C44.6785 110.408 45.0849 109.667 45.5246 108.942C45.9866 108.201 46.4486 107.46 46.9162 106.725C48.3968 104.942 49.8329 103.115 51.0519 101.142C51.2356 100.981 51.6085 100.658 51.7922 100.502C53.9853 98.3456 55.633 95.7159 57.6702 93.4261C58.7779 92.1056 60.2085 90.9189 60.5925 89.1528C60.6426 89.0024 60.7484 88.6904 60.7985 88.5344C60.9933 88.5233 61.3774 88.4954 61.5722 88.4843C62.1288 87.6486 62.7133 86.8351 63.2866 86.0161C63.448 85.9883 63.7764 85.9381 63.9379 85.9159C64.5891 84.6623 65.5855 83.6539 66.6542 82.7513C66.7433 82.4839 66.927 81.9435 67.0216 81.6761C68.8418 80.1161 70.4782 78.3667 72.0813 76.595C73.8291 74.9459 75.6939 73.3915 77.1077 71.4359C77.3136 71.4081 77.7255 71.3579 77.9371 71.3356C77.9259 71.0515 77.9148 70.4832 77.9092 70.2046C78.1208 70.1768 78.5438 70.1322 78.7553 70.1099C79.7071 68.9288 80.8538 67.926 82.1452 67.146C83.7705 65.4523 85.4682 63.8254 87.3385 62.3936C87.9675 61.725 88.6188 61.0788 89.2422 60.4046C89.3591 60.3489 89.5984 60.2319 89.7153 60.1762C91.4409 59.4798 92.7768 58.1594 94.1238 56.9225C96.1165 55.0171 98.7383 53.8583 100.43 51.6186C101.622 50.4096 102.985 49.3566 104.616 48.8106C104.644 48.6602 104.694 48.3594 104.722 48.2089C105.618 47.6351 106.498 47.0445 107.399 46.4874C107.422 46.3537 107.472 46.0862 107.494 45.9525C108.396 45.5458 109.275 45.0778 110.099 44.5207C110.901 44.1641 111.73 43.8076 112.281 43.0777C112.42 43.0276 112.693 42.9273 112.832 42.8771C113.995 41.4175 115.738 40.6597 117.302 39.7238C117.814 39.3282 118.326 38.9215 118.833 38.5148C119.384 38.3309 119.94 38.1526 120.491 37.9744C120.614 37.7515 120.848 37.3002 120.97 37.0774C121.827 36.8545 122.751 36.6818 123.408 36.03C123.926 35.6177 124.46 35.2221 125 34.8265C125.724 34.4031 126.436 33.9518 127.093 33.4281C127.805 33.2443 128.518 33.066 129.23 32.8989C129.219 32.676 129.197 32.2303 129.18 32.0074C129.937 31.9294 130.694 31.857 131.451 31.7846C131.451 31.5339 131.451 31.0269 131.457 30.7706C131.88 30.7539 132.726 30.7149 133.149 30.6982C133.132 30.4363 133.099 29.9237 133.082 29.6675C133.756 29.6118 134.429 29.556 135.108 29.5003C135.286 29.2329 135.637 28.6869 135.815 28.4195C136.066 28.4028 136.567 28.3749 136.817 28.3638C137.758 28.3972 138.114 27.9849 137.886 27.1325C138.637 27.1269 139.389 27.1269 140.14 27.1325C140.964 27.3665 142.105 26.6979 141.688 25.7452C141.894 25.7397 142.311 25.7285 142.523 25.7285C142.712 25.5057 143.096 25.0711 143.291 24.8538C144.209 24.631 145.167 24.4081 145.645 23.4944C146.235 23.4387 146.825 23.3885 147.421 23.3384C147.582 23.0821 147.916 22.5696 148.083 22.3077C148.829 22.2353 149.581 22.1629 150.332 22.0904C150.315 21.862 150.288 21.4051 150.271 21.1711C150.939 21.1322 151.612 21.082 152.286 21.0263C153.015 20.8257 153.711 20.5193 154.373 20.1627C155.141 19.9065 155.915 19.6669 156.678 19.3772C156.789 19.2936 157.012 19.1265 157.117 19.0485C159.745 18.0735 162.444 17.2823 165.022 16.1736C165.706 15.9285 166.135 15.3268 166.625 14.8254C167.304 14.7641 167.988 14.7084 168.679 14.6582C168.667 14.4744 168.64 14.1067 168.629 13.9228C170.22 13.4604 172.386 13.9395 173.466 12.4186C173.85 12.4018 174.607 12.374 174.985 12.3573C175.898 12.3016 176.75 11.984 177.579 11.6218C179.778 11.048 181.932 10.3293 184.097 9.6273C183.925 9.47688 183.585 9.18716 183.418 9.04231C184.075 8.90303 184.737 8.76374 185.405 8.62446C186.257 8.65231 187.109 8.70246 187.96 8.76931C188.728 9.04788 189.992 8.53532 189.608 7.54919C193.248 7.69961 196.627 5.97806 200.178 5.39307C203.713 5.04208 206.963 3.25924 210.587 3.68267C210.498 3.42638 210.331 2.91382 210.242 2.66311C211.389 2.64082 212.535 2.58511 213.688 2.5294C214.428 2.50711 215.168 2.50154 215.914 2.50154C217.473 2.42911 219.477 2.95839 220.512 1.40955C221.28 1.39284 222.059 1.37055 222.833 1.33713C224.358 1.35384 225.878 1.39284 227.408 1.39284C228.733 1.3037 230.464 1.65469 231.166 0.155998ZM256.153 244.66C255.073 245.463 253.698 245.998 253.136 247.324C252.473 247.886 252.056 248.627 251.972 249.507C251.944 249.686 251.889 250.031 251.866 250.209C251.594 250.343 251.06 250.611 250.787 250.744C250.67 252.193 250.458 253.653 249.69 254.923C250.191 256.215 250.564 257.553 250.831 258.912C251.076 259.062 251.561 259.358 251.805 259.508C251.978 260.037 252.162 260.572 252.351 261.107C253.731 261.837 254.945 262.829 256.164 263.809C257.021 264.105 257.889 264.461 258.563 265.107C259.548 265.208 260.544 265.302 261.535 265.419C261.891 265.391 262.609 265.341 262.971 265.313C264.207 265.313 265.448 265.135 266.567 264.584C266.885 264.071 267.28 263.631 267.753 263.263C268.081 261.163 268.02 259.029 267.736 256.934L266.879 257.592C266.767 256.371 266.751 255.146 266.756 253.926C266.684 252.951 266.606 251.981 266.517 251.017C264.669 248.276 263.172 244.321 259.314 244.131C259.058 244.198 258.546 244.337 258.29 244.404C257.572 244.465 256.86 244.549 256.153 244.66ZM146.864 248.421C147.226 248.728 147.226 248.728 146.864 248.421Z" fill="#6495C7"/>
</svg>
